G75*
G70*
%OFA0B0*%
%FSLAX24Y24*%
%IPPOS*%
%LPD*%
%AMOC8*
5,1,8,0,0,1.08239X$1,22.5*
%
%ADD10C,0.0100*%
%ADD11C,0.0000*%
%ADD12C,0.0080*%
%ADD13OC8,0.0984*%
%ADD14C,0.0984*%
%ADD15R,0.0984X0.0984*%
%ADD16R,0.0800X0.0800*%
%ADD17C,0.0800*%
%ADD18R,0.1000X0.1000*%
%ADD19C,0.1000*%
%ADD20R,0.0472X0.0472*%
%ADD21C,0.0472*%
%ADD22C,0.0630*%
%ADD23OC8,0.0630*%
%ADD24C,0.0118*%
%ADD25C,0.0300*%
%ADD26C,0.0140*%
%ADD27C,0.0280*%
D10*
X003600Y000390D02*
X015150Y000390D01*
X018450Y003690D02*
X018450Y015590D01*
X015150Y018890D02*
X014550Y018890D01*
X014527Y018888D01*
X014504Y018883D01*
X014482Y018874D01*
X014462Y018861D01*
X014444Y018846D01*
X014429Y018828D01*
X014416Y018808D01*
X014407Y018786D01*
X014402Y018763D01*
X014400Y018740D01*
X014400Y018240D01*
X014398Y018217D01*
X014393Y018194D01*
X014384Y018172D01*
X014371Y018152D01*
X014356Y018134D01*
X014338Y018119D01*
X014318Y018106D01*
X014296Y018097D01*
X014273Y018092D01*
X014250Y018090D01*
X008300Y018090D01*
X008277Y018092D01*
X008254Y018097D01*
X008232Y018106D01*
X008212Y018119D01*
X008194Y018134D01*
X008179Y018152D01*
X008166Y018172D01*
X008157Y018194D01*
X008152Y018217D01*
X008150Y018240D01*
X008150Y018690D01*
X008148Y018713D01*
X008143Y018736D01*
X008134Y018758D01*
X008121Y018778D01*
X008106Y018796D01*
X008088Y018811D01*
X008068Y018824D01*
X008046Y018833D01*
X008023Y018838D01*
X008000Y018840D01*
X003450Y018840D01*
X000150Y015490D02*
X000150Y003840D01*
X015150Y018890D02*
X015623Y018543D01*
X016080Y018176D01*
X016521Y017790D01*
X016944Y017384D01*
X017350Y016961D01*
X017736Y016520D01*
X018103Y016063D01*
X018450Y015590D01*
X003600Y000390D02*
X003106Y000752D01*
X002627Y001136D01*
X002167Y001540D01*
X001724Y001964D01*
X001300Y002407D01*
X000896Y002867D01*
X000512Y003346D01*
X000150Y003840D01*
X015150Y000390D02*
X015623Y000737D01*
X016080Y001104D01*
X016521Y001490D01*
X016944Y001896D01*
X017350Y002319D01*
X017736Y002760D01*
X018103Y003217D01*
X018450Y003690D01*
X003450Y018840D02*
X002976Y018487D01*
X002518Y018114D01*
X002077Y017721D01*
X001653Y017309D01*
X001248Y016879D01*
X000862Y016432D01*
X000495Y015969D01*
X000150Y015490D01*
D11*
X001775Y002540D02*
X001777Y002585D01*
X001783Y002630D01*
X001792Y002674D01*
X001806Y002717D01*
X001823Y002759D01*
X001843Y002799D01*
X001867Y002838D01*
X001895Y002874D01*
X001925Y002907D01*
X001958Y002938D01*
X001993Y002966D01*
X002031Y002991D01*
X002071Y003012D01*
X002112Y003030D01*
X002155Y003045D01*
X002199Y003055D01*
X002244Y003062D01*
X002289Y003065D01*
X002334Y003064D01*
X002379Y003059D01*
X002423Y003050D01*
X002467Y003038D01*
X002509Y003022D01*
X002549Y003002D01*
X002588Y002979D01*
X002625Y002952D01*
X002659Y002923D01*
X002691Y002891D01*
X002719Y002856D01*
X002745Y002819D01*
X002767Y002779D01*
X002786Y002738D01*
X002801Y002696D01*
X002813Y002652D01*
X002821Y002608D01*
X002825Y002563D01*
X002825Y002517D01*
X002821Y002472D01*
X002813Y002428D01*
X002801Y002384D01*
X002786Y002342D01*
X002767Y002301D01*
X002745Y002261D01*
X002719Y002224D01*
X002691Y002189D01*
X002659Y002157D01*
X002625Y002128D01*
X002588Y002101D01*
X002549Y002078D01*
X002509Y002058D01*
X002467Y002042D01*
X002423Y002030D01*
X002379Y002021D01*
X002334Y002016D01*
X002289Y002015D01*
X002244Y002018D01*
X002199Y002025D01*
X002155Y002035D01*
X002112Y002050D01*
X002071Y002068D01*
X002031Y002089D01*
X001993Y002114D01*
X001958Y002142D01*
X001925Y002173D01*
X001895Y002206D01*
X001867Y002242D01*
X001843Y002281D01*
X001823Y002321D01*
X001806Y002363D01*
X001792Y002406D01*
X001783Y002450D01*
X001777Y002495D01*
X001775Y002540D01*
X015925Y002540D02*
X015927Y002585D01*
X015933Y002630D01*
X015942Y002674D01*
X015956Y002717D01*
X015973Y002759D01*
X015993Y002799D01*
X016017Y002838D01*
X016045Y002874D01*
X016075Y002907D01*
X016108Y002938D01*
X016143Y002966D01*
X016181Y002991D01*
X016221Y003012D01*
X016262Y003030D01*
X016305Y003045D01*
X016349Y003055D01*
X016394Y003062D01*
X016439Y003065D01*
X016484Y003064D01*
X016529Y003059D01*
X016573Y003050D01*
X016617Y003038D01*
X016659Y003022D01*
X016699Y003002D01*
X016738Y002979D01*
X016775Y002952D01*
X016809Y002923D01*
X016841Y002891D01*
X016869Y002856D01*
X016895Y002819D01*
X016917Y002779D01*
X016936Y002738D01*
X016951Y002696D01*
X016963Y002652D01*
X016971Y002608D01*
X016975Y002563D01*
X016975Y002517D01*
X016971Y002472D01*
X016963Y002428D01*
X016951Y002384D01*
X016936Y002342D01*
X016917Y002301D01*
X016895Y002261D01*
X016869Y002224D01*
X016841Y002189D01*
X016809Y002157D01*
X016775Y002128D01*
X016738Y002101D01*
X016699Y002078D01*
X016659Y002058D01*
X016617Y002042D01*
X016573Y002030D01*
X016529Y002021D01*
X016484Y002016D01*
X016439Y002015D01*
X016394Y002018D01*
X016349Y002025D01*
X016305Y002035D01*
X016262Y002050D01*
X016221Y002068D01*
X016181Y002089D01*
X016143Y002114D01*
X016108Y002142D01*
X016075Y002173D01*
X016045Y002206D01*
X016017Y002242D01*
X015993Y002281D01*
X015973Y002321D01*
X015956Y002363D01*
X015942Y002406D01*
X015933Y002450D01*
X015927Y002495D01*
X015925Y002540D01*
D12*
X015685Y002510D02*
X011700Y002510D01*
X011700Y002588D02*
X015685Y002588D01*
X015685Y002667D02*
X011700Y002667D01*
X011700Y002745D02*
X015707Y002745D01*
X015685Y002692D02*
X015685Y002388D01*
X015801Y002107D01*
X016017Y001891D01*
X016298Y001775D01*
X016396Y001775D01*
X016325Y001704D01*
X015446Y000967D01*
X015446Y000967D01*
X015055Y000680D01*
X011700Y000680D01*
X011700Y006931D01*
X011732Y006907D01*
X011805Y006865D01*
X011882Y006833D01*
X011963Y006811D01*
X012047Y006800D01*
X012049Y006800D01*
X012049Y007400D01*
X012129Y007400D01*
X012129Y007480D01*
X012729Y007480D01*
X012729Y007482D01*
X012718Y007565D01*
X012696Y007646D01*
X012664Y007724D01*
X012622Y007796D01*
X012571Y007863D01*
X012511Y007922D01*
X012445Y007973D01*
X012372Y008015D01*
X012295Y008047D01*
X012214Y008069D01*
X012130Y008080D01*
X012129Y008080D01*
X012129Y007480D01*
X012049Y007480D01*
X012049Y008080D01*
X012047Y008080D01*
X011963Y008069D01*
X011882Y008047D01*
X011805Y008015D01*
X011732Y007973D01*
X011700Y007949D01*
X011700Y013840D01*
X009650Y015890D01*
X009650Y017800D01*
X014368Y017800D01*
X014572Y017918D01*
X014690Y018122D01*
X014690Y018600D01*
X015055Y018600D01*
X015446Y018313D01*
X016325Y017576D01*
X017136Y016765D01*
X017873Y015886D01*
X018160Y015495D01*
X018160Y003785D01*
X017873Y003394D01*
X017215Y002609D01*
X017215Y002692D01*
X017099Y002973D01*
X016883Y003189D01*
X016602Y003305D01*
X016298Y003305D01*
X016017Y003189D01*
X015801Y002973D01*
X015685Y002692D01*
X015739Y002824D02*
X011700Y002824D01*
X011700Y002902D02*
X015772Y002902D01*
X015809Y002981D02*
X011700Y002981D01*
X011700Y003059D02*
X015887Y003059D01*
X015966Y003138D02*
X011700Y003138D01*
X011700Y003216D02*
X016083Y003216D01*
X016273Y003295D02*
X011700Y003295D01*
X011700Y003373D02*
X017856Y003373D01*
X017916Y003452D02*
X011700Y003452D01*
X011700Y003530D02*
X017973Y003530D01*
X018031Y003609D02*
X011700Y003609D01*
X011700Y003687D02*
X018088Y003687D01*
X018146Y003766D02*
X011700Y003766D01*
X011700Y003844D02*
X018160Y003844D01*
X018160Y003923D02*
X011700Y003923D01*
X011700Y004001D02*
X018160Y004001D01*
X018160Y004080D02*
X011700Y004080D01*
X011700Y004158D02*
X018160Y004158D01*
X018160Y004237D02*
X011700Y004237D01*
X011700Y004315D02*
X018160Y004315D01*
X018160Y004394D02*
X011700Y004394D01*
X011700Y004472D02*
X016367Y004472D01*
X016377Y004462D02*
X017326Y004462D01*
X017431Y004567D01*
X017431Y005517D01*
X017326Y005622D01*
X016535Y005622D01*
X016230Y005927D01*
X016230Y007150D01*
X016270Y007053D01*
X016271Y007052D01*
X016271Y006895D01*
X016359Y006682D01*
X016523Y006519D01*
X016736Y006431D01*
X016967Y006431D01*
X017180Y006519D01*
X017343Y006682D01*
X017431Y006895D01*
X017431Y007126D01*
X017343Y007339D01*
X017180Y007502D01*
X016967Y007591D01*
X016880Y007591D01*
X016880Y011056D01*
X016830Y011177D01*
X012455Y015552D01*
X012455Y016531D01*
X012478Y016554D01*
X012519Y016653D01*
X012559Y016554D01*
X012676Y016437D01*
X012829Y016374D01*
X012995Y016374D01*
X013148Y016437D01*
X013265Y016554D01*
X013306Y016653D01*
X013347Y016554D01*
X013464Y016437D01*
X013617Y016374D01*
X013782Y016374D01*
X013935Y016437D01*
X013958Y016460D01*
X014613Y016460D01*
X015805Y015268D01*
X015805Y015142D01*
X015880Y014960D01*
X016020Y014820D01*
X016202Y014745D01*
X016398Y014745D01*
X016580Y014820D01*
X016720Y014960D01*
X016795Y015142D01*
X016795Y015338D01*
X016720Y015520D01*
X016580Y015660D01*
X016398Y015735D01*
X016272Y015735D01*
X014937Y017070D01*
X014816Y017120D01*
X013958Y017120D01*
X013935Y017143D01*
X013782Y017206D01*
X013617Y017206D01*
X013464Y017143D01*
X013347Y017026D01*
X013306Y016927D01*
X013265Y017026D01*
X013148Y017143D01*
X012995Y017206D01*
X012829Y017206D01*
X012676Y017143D01*
X012559Y017026D01*
X012519Y016927D01*
X012478Y017026D01*
X012361Y017143D01*
X012208Y017206D01*
X012042Y017206D01*
X011889Y017143D01*
X011772Y017026D01*
X011731Y016927D01*
X011690Y017026D01*
X011573Y017143D01*
X011420Y017206D01*
X011255Y017206D01*
X011102Y017143D01*
X010985Y017026D01*
X010926Y016885D01*
X010926Y017045D01*
X010917Y017080D01*
X010898Y017112D01*
X010872Y017138D01*
X010840Y017157D01*
X010805Y017166D01*
X010589Y017166D01*
X010589Y016829D01*
X010511Y016829D01*
X010511Y017166D01*
X010295Y017166D01*
X010260Y017157D01*
X010228Y017138D01*
X010202Y017112D01*
X010183Y017080D01*
X010174Y017045D01*
X010174Y016829D01*
X010511Y016829D01*
X010511Y016751D01*
X010589Y016751D01*
X010589Y016414D01*
X010805Y016414D01*
X010840Y016423D01*
X010872Y016442D01*
X010898Y016468D01*
X010917Y016500D01*
X010926Y016535D01*
X010926Y016695D01*
X010985Y016554D01*
X011020Y016519D01*
X011020Y015224D01*
X011070Y015103D01*
X011163Y015010D01*
X015570Y010603D01*
X015570Y005724D01*
X015620Y005603D01*
X015713Y005510D01*
X016271Y004952D01*
X016271Y004567D01*
X016377Y004462D01*
X016288Y004551D02*
X011700Y004551D01*
X011700Y004629D02*
X016271Y004629D01*
X016271Y004708D02*
X011700Y004708D01*
X011700Y004786D02*
X016271Y004786D01*
X016271Y004865D02*
X011700Y004865D01*
X011700Y004943D02*
X016271Y004943D01*
X016202Y005022D02*
X011700Y005022D01*
X011700Y005100D02*
X016123Y005100D01*
X016045Y005179D02*
X011700Y005179D01*
X011700Y005257D02*
X015966Y005257D01*
X015888Y005336D02*
X011700Y005336D01*
X011700Y005414D02*
X015809Y005414D01*
X015731Y005493D02*
X011700Y005493D01*
X011700Y005571D02*
X015652Y005571D01*
X015601Y005650D02*
X011700Y005650D01*
X011700Y005728D02*
X015570Y005728D01*
X015570Y005807D02*
X011700Y005807D01*
X011700Y005885D02*
X015570Y005885D01*
X015570Y005964D02*
X011700Y005964D01*
X011700Y006042D02*
X015570Y006042D01*
X015570Y006121D02*
X011700Y006121D01*
X011700Y006199D02*
X015570Y006199D01*
X015570Y006278D02*
X011700Y006278D01*
X011700Y006356D02*
X015570Y006356D01*
X015570Y006435D02*
X011700Y006435D01*
X011700Y006513D02*
X015570Y006513D01*
X015570Y006592D02*
X011700Y006592D01*
X011700Y006670D02*
X015570Y006670D01*
X015570Y006749D02*
X011700Y006749D01*
X011700Y006827D02*
X011903Y006827D01*
X012049Y006827D02*
X012129Y006827D01*
X012129Y006800D02*
X012130Y006800D01*
X012214Y006811D01*
X012295Y006833D01*
X012372Y006865D01*
X012445Y006907D01*
X012511Y006958D01*
X012571Y007017D01*
X012622Y007084D01*
X012664Y007156D01*
X012696Y007234D01*
X012718Y007315D01*
X012729Y007398D01*
X012729Y007400D01*
X012129Y007400D01*
X012129Y006800D01*
X012129Y006906D02*
X012049Y006906D01*
X012049Y006984D02*
X012129Y006984D01*
X012129Y007063D02*
X012049Y007063D01*
X012049Y007141D02*
X012129Y007141D01*
X012129Y007220D02*
X012049Y007220D01*
X012049Y007298D02*
X012129Y007298D01*
X012129Y007377D02*
X012049Y007377D01*
X012129Y007455D02*
X013377Y007455D01*
X013377Y007377D02*
X012726Y007377D01*
X012713Y007298D02*
X013380Y007298D01*
X013377Y007305D02*
X013481Y007055D01*
X013672Y006864D01*
X013922Y006760D01*
X014192Y006760D01*
X014442Y006864D01*
X014633Y007055D01*
X014737Y007305D01*
X014737Y007575D01*
X014633Y007825D01*
X014442Y008016D01*
X014192Y008120D01*
X013922Y008120D01*
X013672Y008016D01*
X013481Y007825D01*
X013377Y007575D01*
X013377Y007305D01*
X013412Y007220D02*
X012690Y007220D01*
X012655Y007141D02*
X013445Y007141D01*
X013477Y007063D02*
X012606Y007063D01*
X012538Y006984D02*
X013551Y006984D01*
X013630Y006906D02*
X012443Y006906D01*
X012274Y006827D02*
X013760Y006827D01*
X014354Y006827D02*
X015570Y006827D01*
X015570Y006906D02*
X014484Y006906D01*
X014563Y006984D02*
X015570Y006984D01*
X015570Y007063D02*
X014637Y007063D01*
X014669Y007141D02*
X015570Y007141D01*
X015570Y007220D02*
X014702Y007220D01*
X014734Y007298D02*
X015570Y007298D01*
X015570Y007377D02*
X014737Y007377D01*
X014737Y007455D02*
X015570Y007455D01*
X015570Y007534D02*
X014737Y007534D01*
X014722Y007612D02*
X015570Y007612D01*
X015570Y007691D02*
X014689Y007691D01*
X014657Y007769D02*
X015570Y007769D01*
X015570Y007848D02*
X014611Y007848D01*
X014533Y007926D02*
X015570Y007926D01*
X015570Y008005D02*
X014454Y008005D01*
X014282Y008083D02*
X015570Y008083D01*
X015570Y008162D02*
X011700Y008162D01*
X011700Y008240D02*
X015570Y008240D01*
X015570Y008319D02*
X011700Y008319D01*
X011700Y008397D02*
X015570Y008397D01*
X015570Y008476D02*
X014395Y008476D01*
X014453Y008500D02*
X014642Y008689D01*
X014745Y008936D01*
X014745Y009203D01*
X014642Y009450D01*
X014453Y009639D01*
X014206Y009742D01*
X013939Y009742D01*
X013692Y009639D01*
X013503Y009450D01*
X013400Y009203D01*
X013400Y008936D01*
X013503Y008689D01*
X013692Y008500D01*
X013939Y008397D01*
X014206Y008397D01*
X014453Y008500D01*
X014507Y008554D02*
X015570Y008554D01*
X015570Y008633D02*
X014586Y008633D01*
X014651Y008711D02*
X015570Y008711D01*
X015570Y008790D02*
X014684Y008790D01*
X014716Y008868D02*
X015570Y008868D01*
X015570Y008947D02*
X014745Y008947D01*
X014745Y009025D02*
X015570Y009025D01*
X015570Y009104D02*
X014745Y009104D01*
X014745Y009182D02*
X015570Y009182D01*
X015570Y009261D02*
X014721Y009261D01*
X014688Y009339D02*
X015570Y009339D01*
X015570Y009418D02*
X014656Y009418D01*
X014596Y009496D02*
X015570Y009496D01*
X015570Y009575D02*
X014518Y009575D01*
X014420Y009653D02*
X015570Y009653D01*
X015570Y009732D02*
X014231Y009732D01*
X013914Y009732D02*
X011700Y009732D01*
X011700Y009810D02*
X015570Y009810D01*
X015570Y009889D02*
X011700Y009889D01*
X011700Y009967D02*
X015570Y009967D01*
X015570Y010046D02*
X011700Y010046D01*
X011700Y010124D02*
X015570Y010124D01*
X015570Y010203D02*
X011700Y010203D01*
X011700Y010281D02*
X015570Y010281D01*
X015570Y010360D02*
X011700Y010360D01*
X011700Y010438D02*
X015570Y010438D01*
X015570Y010517D02*
X011700Y010517D01*
X011700Y010595D02*
X015570Y010595D01*
X015500Y010674D02*
X011700Y010674D01*
X011700Y010752D02*
X015421Y010752D01*
X015343Y010831D02*
X011700Y010831D01*
X011700Y010909D02*
X015264Y010909D01*
X015186Y010988D02*
X011700Y010988D01*
X011700Y011066D02*
X015107Y011066D01*
X015029Y011145D02*
X011700Y011145D01*
X011700Y011223D02*
X014950Y011223D01*
X014872Y011302D02*
X011700Y011302D01*
X011700Y011380D02*
X014793Y011380D01*
X014715Y011459D02*
X011700Y011459D01*
X011700Y011537D02*
X014636Y011537D01*
X014558Y011616D02*
X011700Y011616D01*
X011700Y011694D02*
X014479Y011694D01*
X014401Y011773D02*
X011700Y011773D01*
X011700Y011851D02*
X014322Y011851D01*
X014244Y011930D02*
X011700Y011930D01*
X011700Y012008D02*
X014165Y012008D01*
X014087Y012087D02*
X011700Y012087D01*
X011700Y012165D02*
X014008Y012165D01*
X013930Y012244D02*
X011700Y012244D01*
X011700Y012322D02*
X013851Y012322D01*
X013773Y012401D02*
X011700Y012401D01*
X011700Y012479D02*
X013694Y012479D01*
X013616Y012558D02*
X011700Y012558D01*
X011700Y012636D02*
X013537Y012636D01*
X013459Y012715D02*
X011700Y012715D01*
X011700Y012793D02*
X013380Y012793D01*
X013302Y012872D02*
X011700Y012872D01*
X011700Y012950D02*
X013223Y012950D01*
X013145Y013029D02*
X011700Y013029D01*
X011700Y013107D02*
X013066Y013107D01*
X012988Y013186D02*
X011700Y013186D01*
X011700Y013264D02*
X012909Y013264D01*
X012831Y013343D02*
X011700Y013343D01*
X011700Y013421D02*
X012752Y013421D01*
X012674Y013500D02*
X011700Y013500D01*
X011700Y013578D02*
X012595Y013578D01*
X012517Y013657D02*
X011700Y013657D01*
X011700Y013735D02*
X012438Y013735D01*
X012360Y013814D02*
X011700Y013814D01*
X011648Y013892D02*
X012281Y013892D01*
X012203Y013971D02*
X011569Y013971D01*
X011491Y014049D02*
X012124Y014049D01*
X012046Y014128D02*
X011412Y014128D01*
X011334Y014206D02*
X011967Y014206D01*
X011889Y014285D02*
X011255Y014285D01*
X011177Y014363D02*
X011810Y014363D01*
X011732Y014442D02*
X011098Y014442D01*
X011020Y014520D02*
X011653Y014520D01*
X011575Y014599D02*
X010941Y014599D01*
X010863Y014677D02*
X011496Y014677D01*
X011418Y014756D02*
X010784Y014756D01*
X010706Y014834D02*
X011339Y014834D01*
X011261Y014913D02*
X010627Y014913D01*
X010549Y014991D02*
X011182Y014991D01*
X011104Y015070D02*
X010470Y015070D01*
X010392Y015148D02*
X011052Y015148D01*
X011020Y015227D02*
X010313Y015227D01*
X010235Y015305D02*
X011020Y015305D01*
X011020Y015384D02*
X010156Y015384D01*
X010078Y015462D02*
X011020Y015462D01*
X011020Y015541D02*
X009999Y015541D01*
X009921Y015619D02*
X011020Y015619D01*
X011020Y015698D02*
X009842Y015698D01*
X009764Y015776D02*
X011020Y015776D01*
X011020Y015855D02*
X009685Y015855D01*
X009650Y015933D02*
X011020Y015933D01*
X011020Y016012D02*
X009650Y016012D01*
X009650Y016090D02*
X011020Y016090D01*
X011020Y016169D02*
X009650Y016169D01*
X009650Y016247D02*
X011020Y016247D01*
X011020Y016326D02*
X009650Y016326D01*
X009650Y016404D02*
X011020Y016404D01*
X011020Y016483D02*
X010907Y016483D01*
X010926Y016561D02*
X010982Y016561D01*
X010949Y016640D02*
X010926Y016640D01*
X010926Y016954D02*
X010955Y016954D01*
X010926Y017032D02*
X010991Y017032D01*
X011069Y017111D02*
X010899Y017111D01*
X011213Y017189D02*
X009650Y017189D01*
X009650Y017111D02*
X010201Y017111D01*
X010174Y017032D02*
X009650Y017032D01*
X009650Y016954D02*
X010174Y016954D01*
X010174Y016875D02*
X009650Y016875D01*
X009650Y016797D02*
X010511Y016797D01*
X010511Y016751D02*
X010174Y016751D01*
X010174Y016535D01*
X010183Y016500D01*
X010202Y016468D01*
X010228Y016442D01*
X010260Y016423D01*
X010295Y016414D01*
X010511Y016414D01*
X010511Y016751D01*
X010511Y016718D02*
X010589Y016718D01*
X010589Y016640D02*
X010511Y016640D01*
X010511Y016561D02*
X010589Y016561D01*
X010589Y016483D02*
X010511Y016483D01*
X010193Y016483D02*
X009650Y016483D01*
X009650Y016561D02*
X010174Y016561D01*
X010174Y016640D02*
X009650Y016640D01*
X009650Y016718D02*
X010174Y016718D01*
X010511Y016875D02*
X010589Y016875D01*
X010589Y016954D02*
X010511Y016954D01*
X010511Y017032D02*
X010589Y017032D01*
X010589Y017111D02*
X010511Y017111D01*
X009650Y017268D02*
X014570Y017268D01*
X014558Y017280D02*
X014595Y017243D01*
X014640Y017217D01*
X014691Y017203D01*
X014815Y017203D01*
X014815Y017500D01*
X014895Y017500D01*
X014895Y017203D01*
X015019Y017203D01*
X015069Y017217D01*
X015115Y017243D01*
X015152Y017280D01*
X015178Y017325D01*
X015179Y017329D01*
X015205Y017267D01*
X015256Y017216D01*
X015230Y017154D01*
X015230Y017026D01*
X015279Y016909D01*
X015369Y016819D01*
X015486Y016770D01*
X015614Y016770D01*
X015731Y016819D01*
X015821Y016909D01*
X015870Y017026D01*
X015870Y017154D01*
X015841Y017223D01*
X015886Y017267D01*
X015922Y017355D01*
X015922Y017725D01*
X015886Y017813D01*
X015818Y017880D01*
X015731Y017917D01*
X015360Y017917D01*
X015272Y017880D01*
X015205Y017813D01*
X015179Y017751D01*
X015178Y017755D01*
X015152Y017800D01*
X015115Y017837D01*
X015069Y017863D01*
X015019Y017877D01*
X014895Y017877D01*
X014895Y017580D01*
X014815Y017580D01*
X014815Y017877D01*
X014691Y017877D01*
X014640Y017863D01*
X014595Y017837D01*
X014558Y017800D01*
X014531Y017755D01*
X014518Y017704D01*
X014518Y017580D01*
X014815Y017580D01*
X014815Y017500D01*
X014518Y017500D01*
X014518Y017376D01*
X014531Y017325D01*
X014558Y017280D01*
X014526Y017346D02*
X009650Y017346D01*
X009650Y017425D02*
X014518Y017425D01*
X014518Y017582D02*
X009650Y017582D01*
X009650Y017660D02*
X014518Y017660D01*
X014527Y017739D02*
X009650Y017739D01*
X009650Y017503D02*
X014815Y017503D01*
X014815Y017425D02*
X014895Y017425D01*
X014895Y017346D02*
X014815Y017346D01*
X014815Y017268D02*
X014895Y017268D01*
X014838Y017111D02*
X015230Y017111D01*
X015230Y017032D02*
X014975Y017032D01*
X015053Y016954D02*
X015260Y016954D01*
X015312Y016875D02*
X015132Y016875D01*
X015210Y016797D02*
X015422Y016797D01*
X015289Y016718D02*
X017175Y016718D01*
X017241Y016640D02*
X015367Y016640D01*
X015446Y016561D02*
X017307Y016561D01*
X017373Y016483D02*
X015524Y016483D01*
X015603Y016404D02*
X017439Y016404D01*
X017505Y016326D02*
X015681Y016326D01*
X015760Y016247D02*
X017571Y016247D01*
X017636Y016169D02*
X015838Y016169D01*
X015917Y016090D02*
X017702Y016090D01*
X017768Y016012D02*
X015995Y016012D01*
X016074Y015933D02*
X017834Y015933D01*
X017897Y015855D02*
X016152Y015855D01*
X016231Y015776D02*
X017954Y015776D01*
X018012Y015698D02*
X016489Y015698D01*
X016621Y015619D02*
X017036Y015619D01*
X017112Y015695D02*
X016845Y015428D01*
X016845Y015280D01*
X017260Y015280D01*
X017260Y015695D01*
X017112Y015695D01*
X017260Y015619D02*
X017340Y015619D01*
X017340Y015695D02*
X017488Y015695D01*
X017755Y015428D01*
X017755Y015280D01*
X017340Y015280D01*
X017340Y015200D01*
X017755Y015200D01*
X017755Y015052D01*
X017488Y014785D01*
X017340Y014785D01*
X017340Y015200D01*
X017260Y015200D01*
X017260Y014785D01*
X017112Y014785D01*
X016845Y015052D01*
X016845Y015200D01*
X017260Y015200D01*
X017260Y015280D01*
X017340Y015280D01*
X017340Y015695D01*
X017340Y015541D02*
X017260Y015541D01*
X017260Y015462D02*
X017340Y015462D01*
X017340Y015384D02*
X017260Y015384D01*
X017260Y015305D02*
X017340Y015305D01*
X017340Y015227D02*
X018160Y015227D01*
X018160Y015305D02*
X017755Y015305D01*
X017755Y015384D02*
X018160Y015384D01*
X018160Y015462D02*
X017721Y015462D01*
X017643Y015541D02*
X018127Y015541D01*
X018069Y015619D02*
X017564Y015619D01*
X017260Y015227D02*
X016795Y015227D01*
X016795Y015305D02*
X016845Y015305D01*
X016845Y015384D02*
X016776Y015384D01*
X016744Y015462D02*
X016879Y015462D01*
X016957Y015541D02*
X016699Y015541D01*
X016795Y015148D02*
X016845Y015148D01*
X016845Y015070D02*
X016765Y015070D01*
X016733Y014991D02*
X016905Y014991D01*
X016984Y014913D02*
X016673Y014913D01*
X016594Y014834D02*
X017062Y014834D01*
X017260Y014834D02*
X017340Y014834D01*
X017340Y014913D02*
X017260Y014913D01*
X017260Y014991D02*
X017340Y014991D01*
X017340Y015070D02*
X017260Y015070D01*
X017260Y015148D02*
X017340Y015148D01*
X017616Y014913D02*
X018160Y014913D01*
X018160Y014991D02*
X017695Y014991D01*
X017755Y015070D02*
X018160Y015070D01*
X018160Y015148D02*
X017755Y015148D01*
X017538Y014834D02*
X018160Y014834D01*
X018160Y014756D02*
X016424Y014756D01*
X016176Y014756D02*
X014705Y014756D01*
X014705Y014713D02*
X014705Y015183D01*
X014112Y015183D01*
X014112Y014591D01*
X014583Y014591D01*
X014619Y014600D01*
X014651Y014619D01*
X014677Y014645D01*
X014695Y014677D01*
X018160Y014677D01*
X018160Y014599D02*
X014611Y014599D01*
X014695Y014677D02*
X014705Y014713D01*
X014705Y014834D02*
X016006Y014834D01*
X015927Y014913D02*
X014705Y014913D01*
X014705Y014991D02*
X015867Y014991D01*
X015835Y015070D02*
X014705Y015070D01*
X014705Y015148D02*
X015805Y015148D01*
X015805Y015227D02*
X014112Y015227D01*
X014112Y015263D02*
X014112Y015183D01*
X014032Y015183D01*
X013440Y015183D01*
X013440Y014713D01*
X013450Y014677D01*
X013468Y014645D01*
X013494Y014619D01*
X013526Y014600D01*
X013562Y014591D01*
X014032Y014591D01*
X014032Y015183D01*
X014032Y015263D01*
X013440Y015263D01*
X013440Y015734D01*
X013450Y015769D01*
X013468Y015801D01*
X013494Y015827D01*
X013526Y015846D01*
X013562Y015855D01*
X014032Y015855D01*
X014032Y015263D01*
X014112Y015263D01*
X014112Y015855D01*
X014583Y015855D01*
X014619Y015846D01*
X014651Y015827D01*
X014677Y015801D01*
X014695Y015769D01*
X014705Y015734D01*
X014705Y015263D01*
X014112Y015263D01*
X014112Y015305D02*
X014032Y015305D01*
X014032Y015227D02*
X012780Y015227D01*
X012702Y015305D02*
X013440Y015305D01*
X013440Y015384D02*
X012623Y015384D01*
X012545Y015462D02*
X013440Y015462D01*
X013440Y015541D02*
X012466Y015541D01*
X012455Y015619D02*
X013440Y015619D01*
X013440Y015698D02*
X012455Y015698D01*
X012455Y015776D02*
X013454Y015776D01*
X013559Y015855D02*
X012455Y015855D01*
X012455Y015933D02*
X015140Y015933D01*
X015062Y016012D02*
X012455Y016012D01*
X012455Y016090D02*
X014983Y016090D01*
X014905Y016169D02*
X012455Y016169D01*
X012455Y016247D02*
X014826Y016247D01*
X014748Y016326D02*
X012455Y016326D01*
X012455Y016404D02*
X012756Y016404D01*
X012631Y016483D02*
X012455Y016483D01*
X012480Y016561D02*
X012557Y016561D01*
X012524Y016640D02*
X012513Y016640D01*
X012508Y016954D02*
X012529Y016954D01*
X012566Y017032D02*
X012471Y017032D01*
X012393Y017111D02*
X012644Y017111D01*
X012788Y017189D02*
X012249Y017189D01*
X012001Y017189D02*
X011462Y017189D01*
X011605Y017111D02*
X011857Y017111D01*
X011778Y017032D02*
X011684Y017032D01*
X011720Y016954D02*
X011742Y016954D01*
X013036Y017189D02*
X013575Y017189D01*
X013432Y017111D02*
X013180Y017111D01*
X013259Y017032D02*
X013353Y017032D01*
X013317Y016954D02*
X013295Y016954D01*
X013300Y016640D02*
X013311Y016640D01*
X013344Y016561D02*
X013268Y016561D01*
X013193Y016483D02*
X013418Y016483D01*
X013544Y016404D02*
X013068Y016404D01*
X013855Y016404D02*
X014669Y016404D01*
X014585Y015855D02*
X015219Y015855D01*
X015297Y015776D02*
X014691Y015776D01*
X014705Y015698D02*
X015376Y015698D01*
X015454Y015619D02*
X014705Y015619D01*
X014705Y015541D02*
X015533Y015541D01*
X015611Y015462D02*
X014705Y015462D01*
X014705Y015384D02*
X015690Y015384D01*
X015768Y015305D02*
X014705Y015305D01*
X014112Y015384D02*
X014032Y015384D01*
X014032Y015462D02*
X014112Y015462D01*
X014112Y015541D02*
X014032Y015541D01*
X014032Y015619D02*
X014112Y015619D01*
X014112Y015698D02*
X014032Y015698D01*
X014032Y015776D02*
X014112Y015776D01*
X014112Y015855D02*
X014032Y015855D01*
X014032Y015148D02*
X014112Y015148D01*
X014112Y015070D02*
X014032Y015070D01*
X014032Y014991D02*
X014112Y014991D01*
X014112Y014913D02*
X014032Y014913D01*
X014032Y014834D02*
X014112Y014834D01*
X014112Y014756D02*
X014032Y014756D01*
X014032Y014677D02*
X014112Y014677D01*
X014112Y014599D02*
X014032Y014599D01*
X013722Y014285D02*
X018160Y014285D01*
X018160Y014363D02*
X013644Y014363D01*
X013565Y014442D02*
X018160Y014442D01*
X018160Y014520D02*
X013487Y014520D01*
X013534Y014599D02*
X013408Y014599D01*
X013450Y014677D02*
X013330Y014677D01*
X013251Y014756D02*
X013440Y014756D01*
X013440Y014834D02*
X013173Y014834D01*
X013094Y014913D02*
X013440Y014913D01*
X013440Y014991D02*
X013016Y014991D01*
X012937Y015070D02*
X013440Y015070D01*
X013440Y015148D02*
X012859Y015148D01*
X013801Y014206D02*
X018160Y014206D01*
X018160Y014128D02*
X013879Y014128D01*
X013958Y014049D02*
X018160Y014049D01*
X018160Y013971D02*
X014036Y013971D01*
X014115Y013892D02*
X018160Y013892D01*
X018160Y013814D02*
X014193Y013814D01*
X014272Y013735D02*
X018160Y013735D01*
X018160Y013657D02*
X014350Y013657D01*
X014429Y013578D02*
X018160Y013578D01*
X018160Y013500D02*
X014507Y013500D01*
X014586Y013421D02*
X018160Y013421D01*
X018160Y013343D02*
X014664Y013343D01*
X014743Y013264D02*
X018160Y013264D01*
X018160Y013186D02*
X014821Y013186D01*
X014900Y013107D02*
X018160Y013107D01*
X018160Y013029D02*
X014978Y013029D01*
X015057Y012950D02*
X018160Y012950D01*
X018160Y012872D02*
X015135Y012872D01*
X015214Y012793D02*
X018160Y012793D01*
X018160Y012715D02*
X015292Y012715D01*
X015371Y012636D02*
X018160Y012636D01*
X018160Y012558D02*
X015449Y012558D01*
X015528Y012479D02*
X018160Y012479D01*
X018160Y012401D02*
X015606Y012401D01*
X015685Y012322D02*
X018160Y012322D01*
X018160Y012244D02*
X015763Y012244D01*
X015842Y012165D02*
X018160Y012165D01*
X018160Y012087D02*
X015920Y012087D01*
X015999Y012008D02*
X018160Y012008D01*
X018160Y011930D02*
X016077Y011930D01*
X016156Y011851D02*
X018160Y011851D01*
X018160Y011773D02*
X016234Y011773D01*
X016313Y011694D02*
X018160Y011694D01*
X018160Y011616D02*
X016391Y011616D01*
X016470Y011537D02*
X018160Y011537D01*
X018160Y011459D02*
X016548Y011459D01*
X016627Y011380D02*
X018160Y011380D01*
X018160Y011302D02*
X016705Y011302D01*
X016784Y011223D02*
X018160Y011223D01*
X018160Y011145D02*
X016843Y011145D01*
X016876Y011066D02*
X018160Y011066D01*
X018160Y010988D02*
X016880Y010988D01*
X016880Y010909D02*
X018160Y010909D01*
X018160Y010831D02*
X016880Y010831D01*
X016880Y010752D02*
X018160Y010752D01*
X018160Y010674D02*
X016880Y010674D01*
X016880Y010595D02*
X018160Y010595D01*
X018160Y010517D02*
X016880Y010517D01*
X016880Y010438D02*
X018160Y010438D01*
X018160Y010360D02*
X016880Y010360D01*
X016880Y010281D02*
X018160Y010281D01*
X018160Y010203D02*
X016880Y010203D01*
X016880Y010124D02*
X018160Y010124D01*
X018160Y010046D02*
X016880Y010046D01*
X016880Y009967D02*
X018160Y009967D01*
X018160Y009889D02*
X016880Y009889D01*
X016880Y009810D02*
X018160Y009810D01*
X018160Y009732D02*
X016880Y009732D01*
X016880Y009653D02*
X018160Y009653D01*
X018160Y009575D02*
X016880Y009575D01*
X016880Y009496D02*
X018160Y009496D01*
X018160Y009418D02*
X016880Y009418D01*
X016880Y009339D02*
X018160Y009339D01*
X018160Y009261D02*
X016880Y009261D01*
X016880Y009182D02*
X018160Y009182D01*
X018160Y009104D02*
X016880Y009104D01*
X016880Y009025D02*
X018160Y009025D01*
X018160Y008947D02*
X016880Y008947D01*
X016880Y008868D02*
X018160Y008868D01*
X018160Y008790D02*
X016880Y008790D01*
X016880Y008711D02*
X018160Y008711D01*
X018160Y008633D02*
X016880Y008633D01*
X016880Y008554D02*
X018160Y008554D01*
X018160Y008476D02*
X016880Y008476D01*
X016880Y008397D02*
X018160Y008397D01*
X018160Y008319D02*
X016880Y008319D01*
X016880Y008240D02*
X018160Y008240D01*
X018160Y008162D02*
X016880Y008162D01*
X016880Y008083D02*
X018160Y008083D01*
X018160Y008005D02*
X016880Y008005D01*
X016880Y007926D02*
X018160Y007926D01*
X018160Y007848D02*
X016880Y007848D01*
X016880Y007769D02*
X018160Y007769D01*
X018160Y007691D02*
X016880Y007691D01*
X016880Y007612D02*
X018160Y007612D01*
X018160Y007534D02*
X017104Y007534D01*
X017227Y007455D02*
X018160Y007455D01*
X018160Y007377D02*
X017305Y007377D01*
X017360Y007298D02*
X018160Y007298D01*
X018160Y007220D02*
X017392Y007220D01*
X017425Y007141D02*
X018160Y007141D01*
X018160Y007063D02*
X017431Y007063D01*
X017431Y006984D02*
X018160Y006984D01*
X018160Y006906D02*
X017431Y006906D01*
X017403Y006827D02*
X018160Y006827D01*
X018160Y006749D02*
X017370Y006749D01*
X017331Y006670D02*
X018160Y006670D01*
X018160Y006592D02*
X017252Y006592D01*
X017166Y006513D02*
X018160Y006513D01*
X018160Y006435D02*
X016976Y006435D01*
X016726Y006435D02*
X016230Y006435D01*
X016230Y006513D02*
X016537Y006513D01*
X016450Y006592D02*
X016230Y006592D01*
X016230Y006670D02*
X016371Y006670D01*
X016332Y006749D02*
X016230Y006749D01*
X016230Y006827D02*
X016299Y006827D01*
X016271Y006906D02*
X016230Y006906D01*
X016230Y006984D02*
X016271Y006984D01*
X016266Y007063D02*
X016230Y007063D01*
X016230Y007141D02*
X016234Y007141D01*
X016230Y006356D02*
X018160Y006356D01*
X018160Y006278D02*
X016230Y006278D01*
X016230Y006199D02*
X018160Y006199D01*
X018160Y006121D02*
X016230Y006121D01*
X016230Y006042D02*
X018160Y006042D01*
X018160Y005964D02*
X016230Y005964D01*
X016272Y005885D02*
X018160Y005885D01*
X018160Y005807D02*
X016350Y005807D01*
X016429Y005728D02*
X018160Y005728D01*
X018160Y005650D02*
X016507Y005650D01*
X017377Y005571D02*
X018160Y005571D01*
X018160Y005493D02*
X017431Y005493D01*
X017431Y005414D02*
X018160Y005414D01*
X018160Y005336D02*
X017431Y005336D01*
X017431Y005257D02*
X018160Y005257D01*
X018160Y005179D02*
X017431Y005179D01*
X017431Y005100D02*
X018160Y005100D01*
X018160Y005022D02*
X017431Y005022D01*
X017431Y004943D02*
X018160Y004943D01*
X018160Y004865D02*
X017431Y004865D01*
X017431Y004786D02*
X018160Y004786D01*
X018160Y004708D02*
X017431Y004708D01*
X017431Y004629D02*
X018160Y004629D01*
X018160Y004551D02*
X017414Y004551D01*
X017336Y004472D02*
X018160Y004472D01*
X017790Y003295D02*
X016627Y003295D01*
X016817Y003216D02*
X017724Y003216D01*
X017658Y003138D02*
X016934Y003138D01*
X017013Y003059D02*
X017592Y003059D01*
X017527Y002981D02*
X017091Y002981D01*
X017128Y002902D02*
X017461Y002902D01*
X017395Y002824D02*
X017161Y002824D01*
X017193Y002745D02*
X017329Y002745D01*
X017263Y002667D02*
X017215Y002667D01*
X016345Y001725D02*
X011700Y001725D01*
X011700Y001803D02*
X016230Y001803D01*
X016325Y001704D02*
X016325Y001704D01*
X016256Y001646D02*
X011700Y001646D01*
X011700Y001568D02*
X016162Y001568D01*
X016069Y001489D02*
X011700Y001489D01*
X011700Y001411D02*
X015975Y001411D01*
X015882Y001332D02*
X011700Y001332D01*
X011700Y001254D02*
X015788Y001254D01*
X015694Y001175D02*
X011700Y001175D01*
X011700Y001097D02*
X015601Y001097D01*
X015507Y001018D02*
X011700Y001018D01*
X011700Y000940D02*
X015409Y000940D01*
X015302Y000861D02*
X011700Y000861D01*
X011700Y000783D02*
X015195Y000783D01*
X015088Y000704D02*
X011700Y000704D01*
X011700Y001882D02*
X016041Y001882D01*
X015948Y001960D02*
X011700Y001960D01*
X011700Y002039D02*
X015870Y002039D01*
X015797Y002117D02*
X011700Y002117D01*
X011700Y002196D02*
X015765Y002196D01*
X015732Y002274D02*
X011700Y002274D01*
X011700Y002353D02*
X015700Y002353D01*
X015685Y002431D02*
X011700Y002431D01*
X011419Y005740D02*
X011419Y010840D01*
X011417Y010874D01*
X011411Y010907D01*
X011402Y010939D01*
X011389Y010970D01*
X011373Y011000D01*
X011354Y011027D01*
X011331Y011052D01*
X011306Y011075D01*
X011279Y011094D01*
X011249Y011110D01*
X011218Y011123D01*
X011186Y011132D01*
X011153Y011138D01*
X011119Y011140D01*
X011085Y011138D01*
X011052Y011132D01*
X011020Y011123D01*
X010989Y011110D01*
X010959Y011094D01*
X010932Y011075D01*
X010907Y011052D01*
X010884Y011027D01*
X010865Y011000D01*
X010849Y010970D01*
X010836Y010939D01*
X010827Y010907D01*
X010821Y010874D01*
X010819Y010840D01*
X010819Y005740D01*
X010821Y005706D01*
X010827Y005673D01*
X010836Y005641D01*
X010849Y005610D01*
X010865Y005580D01*
X010884Y005553D01*
X010907Y005528D01*
X010932Y005505D01*
X010959Y005486D01*
X010989Y005470D01*
X011020Y005457D01*
X011052Y005448D01*
X011085Y005442D01*
X011119Y005440D01*
X011153Y005442D01*
X011186Y005448D01*
X011218Y005457D01*
X011249Y005470D01*
X011279Y005486D01*
X011306Y005505D01*
X011331Y005528D01*
X011354Y005553D01*
X011373Y005580D01*
X011389Y005610D01*
X011402Y005641D01*
X011411Y005673D01*
X011417Y005706D01*
X011419Y005740D01*
X011700Y006906D02*
X011734Y006906D01*
X012049Y007534D02*
X012129Y007534D01*
X012129Y007612D02*
X012049Y007612D01*
X012049Y007691D02*
X012129Y007691D01*
X012129Y007769D02*
X012049Y007769D01*
X012049Y007848D02*
X012129Y007848D01*
X012129Y007926D02*
X012049Y007926D01*
X012049Y008005D02*
X012129Y008005D01*
X012391Y008005D02*
X013660Y008005D01*
X013581Y007926D02*
X012506Y007926D01*
X012583Y007848D02*
X013503Y007848D01*
X013457Y007769D02*
X012638Y007769D01*
X012677Y007691D02*
X013425Y007691D01*
X013392Y007612D02*
X012705Y007612D01*
X012722Y007534D02*
X013377Y007534D01*
X013832Y008083D02*
X011700Y008083D01*
X011700Y008005D02*
X011786Y008005D01*
X011700Y008476D02*
X013750Y008476D01*
X013637Y008554D02*
X011700Y008554D01*
X011700Y008633D02*
X013559Y008633D01*
X013493Y008711D02*
X011700Y008711D01*
X011700Y008790D02*
X013461Y008790D01*
X013428Y008868D02*
X011700Y008868D01*
X011700Y008947D02*
X013400Y008947D01*
X013400Y009025D02*
X011700Y009025D01*
X011700Y009104D02*
X013400Y009104D01*
X013400Y009182D02*
X011700Y009182D01*
X011700Y009261D02*
X013424Y009261D01*
X013457Y009339D02*
X011700Y009339D01*
X011700Y009418D02*
X013489Y009418D01*
X013548Y009496D02*
X011700Y009496D01*
X011700Y009575D02*
X013627Y009575D01*
X013725Y009653D02*
X011700Y009653D01*
X009450Y009090D02*
X009450Y005740D01*
X009448Y005706D01*
X009442Y005673D01*
X009433Y005641D01*
X009420Y005610D01*
X009404Y005580D01*
X009385Y005553D01*
X009362Y005528D01*
X009337Y005505D01*
X009310Y005486D01*
X009280Y005470D01*
X009249Y005457D01*
X009217Y005448D01*
X009184Y005442D01*
X009150Y005440D01*
X009116Y005442D01*
X009083Y005448D01*
X009051Y005457D01*
X009020Y005470D01*
X008990Y005486D01*
X008963Y005505D01*
X008938Y005528D01*
X008915Y005553D01*
X008896Y005580D01*
X008880Y005610D01*
X008867Y005641D01*
X008858Y005673D01*
X008852Y005706D01*
X008850Y005740D01*
X008850Y009140D01*
X008855Y009173D01*
X008863Y009206D01*
X008875Y009238D01*
X008891Y009268D01*
X008909Y009296D01*
X008931Y009322D01*
X008956Y009345D01*
X008983Y009365D01*
X009012Y009382D01*
X009042Y009396D01*
X009075Y009406D01*
X009108Y009413D01*
X009141Y009416D01*
X009175Y009415D01*
X009208Y009410D01*
X009241Y009402D01*
X009273Y009390D01*
X009303Y009374D01*
X009331Y009356D01*
X009357Y009334D01*
X009380Y009309D01*
X009400Y009282D01*
X009417Y009253D01*
X009431Y009223D01*
X009441Y009190D01*
X009448Y009157D01*
X009451Y009124D01*
X009450Y009090D01*
X005550Y011840D02*
X001700Y011840D01*
X001666Y011842D01*
X001633Y011848D01*
X001601Y011857D01*
X001570Y011870D01*
X001540Y011886D01*
X001513Y011905D01*
X001488Y011928D01*
X001465Y011953D01*
X001446Y011980D01*
X001430Y012010D01*
X001417Y012041D01*
X001408Y012073D01*
X001402Y012106D01*
X001400Y012140D01*
X001402Y012174D01*
X001408Y012207D01*
X001417Y012239D01*
X001430Y012270D01*
X001446Y012300D01*
X001465Y012327D01*
X001488Y012352D01*
X001513Y012375D01*
X001540Y012394D01*
X001570Y012410D01*
X001601Y012423D01*
X001633Y012432D01*
X001666Y012438D01*
X001700Y012440D01*
X005550Y012440D01*
X005584Y012438D01*
X005617Y012432D01*
X005649Y012423D01*
X005680Y012410D01*
X005710Y012394D01*
X005737Y012375D01*
X005762Y012352D01*
X005785Y012327D01*
X005804Y012300D01*
X005820Y012270D01*
X005833Y012239D01*
X005842Y012207D01*
X005848Y012174D01*
X005850Y012140D01*
X005848Y012106D01*
X005842Y012073D01*
X005833Y012041D01*
X005820Y012010D01*
X005804Y011980D01*
X005785Y011953D01*
X005762Y011928D01*
X005737Y011905D01*
X005710Y011886D01*
X005680Y011870D01*
X005649Y011857D01*
X005617Y011848D01*
X005584Y011842D01*
X005550Y011840D01*
X013824Y017189D02*
X015245Y017189D01*
X015205Y017268D02*
X015139Y017268D01*
X014895Y017582D02*
X014815Y017582D01*
X014815Y017660D02*
X014895Y017660D01*
X014895Y017739D02*
X014815Y017739D01*
X014815Y017817D02*
X014895Y017817D01*
X015135Y017817D02*
X015209Y017817D01*
X015309Y017896D02*
X014533Y017896D01*
X014572Y017918D02*
X014572Y017918D01*
X014572Y017918D01*
X014605Y017974D02*
X015851Y017974D01*
X015782Y017896D02*
X015944Y017896D01*
X015882Y017817D02*
X016038Y017817D01*
X016131Y017739D02*
X015917Y017739D01*
X015922Y017660D02*
X016225Y017660D01*
X016318Y017582D02*
X015922Y017582D01*
X015922Y017503D02*
X016398Y017503D01*
X016476Y017425D02*
X015922Y017425D01*
X015919Y017346D02*
X016555Y017346D01*
X016633Y017268D02*
X015886Y017268D01*
X015855Y017189D02*
X016712Y017189D01*
X016790Y017111D02*
X015870Y017111D01*
X015870Y017032D02*
X016869Y017032D01*
X016947Y016954D02*
X015840Y016954D01*
X015788Y016875D02*
X017026Y016875D01*
X017104Y016797D02*
X015678Y016797D01*
X015757Y018053D02*
X014650Y018053D01*
X014690Y018131D02*
X015663Y018131D01*
X015570Y018210D02*
X014690Y018210D01*
X014690Y018288D02*
X015476Y018288D01*
X015374Y018367D02*
X014690Y018367D01*
X014690Y018445D02*
X015267Y018445D01*
X015159Y018524D02*
X014690Y018524D01*
X014575Y017817D02*
X014397Y017817D01*
D13*
X002773Y013176D03*
X002773Y011117D03*
D14*
X014072Y009070D03*
D15*
X014072Y015223D03*
D16*
X016851Y005042D03*
D17*
X016851Y007011D03*
D18*
X008151Y007440D03*
D19*
X010120Y007440D03*
X012089Y007440D03*
X014057Y007440D03*
D20*
X010550Y016790D03*
D21*
X011337Y016790D03*
X012125Y016790D03*
X012912Y016790D03*
X013700Y016790D03*
D22*
X016300Y015240D03*
D23*
X017300Y015240D03*
D24*
X015407Y017402D02*
X015407Y017678D01*
X015683Y017678D01*
X015683Y017402D01*
X015407Y017402D01*
X015407Y017519D02*
X015683Y017519D01*
X015683Y017636D02*
X015407Y017636D01*
X014717Y017678D02*
X014717Y017402D01*
X014717Y017678D02*
X014993Y017678D01*
X014993Y017402D01*
X014717Y017402D01*
X014717Y017519D02*
X014993Y017519D01*
X014993Y017636D02*
X014717Y017636D01*
D25*
X014750Y016790D02*
X016300Y015240D01*
X014750Y016790D02*
X013700Y016790D01*
X012125Y016790D02*
X012125Y015415D01*
X016550Y010990D01*
X016550Y007240D01*
X016779Y007011D01*
X016851Y007011D01*
X015900Y005790D02*
X015900Y010740D01*
X011350Y015290D01*
X011350Y016777D01*
X011337Y016790D01*
X015900Y005790D02*
X016648Y005042D01*
X016851Y005042D01*
D26*
X015550Y017090D02*
X015545Y017095D01*
X015545Y017540D01*
D27*
X015550Y017090D03*
M02*
