%
M48
M72
T01C0.0160
T02C0.0315
T03C0.0320
T04C0.0512
T05C0.0600
T06C0.1050
%
T01
X15550Y17090
T02
X13700Y16790
X12912Y16790
X12125Y16790
X11337Y16790
X10550Y16790
T03
X16300Y15240
X17300Y15240
T04
X14072Y15223
X14072Y9070
X16851Y7011
X16851Y5042
X2773Y11117
X2773Y13176
T05
X8151Y7440
X10120Y7440
X12089Y7440
X14057Y7440
T06
X2300Y2540
X16450Y2540
M30
