G75*
G70*
%OFA0B0*%
%FSLAX24Y24*%
%IPPOS*%
%LPD*%
%AMOC8*
5,1,8,0,0,1.08239X$1,22.5*
%
%ADD10C,0.0100*%
%ADD11C,0.0000*%
%ADD12C,0.0080*%
%ADD13OC8,0.0984*%
%ADD14C,0.0984*%
%ADD15R,0.0984X0.0984*%
%ADD16R,0.0800X0.0800*%
%ADD17C,0.0800*%
%ADD18R,0.1000X0.1000*%
%ADD19C,0.1000*%
%ADD20R,0.0472X0.0472*%
%ADD21C,0.0472*%
%ADD22R,0.0394X0.0433*%
%ADD23C,0.0630*%
%ADD24OC8,0.0630*%
%ADD25R,0.0062X0.0002*%
%ADD26R,0.0105X0.0002*%
%ADD27R,0.0133X0.0002*%
%ADD28R,0.0159X0.0002*%
%ADD29R,0.0179X0.0002*%
%ADD30R,0.0199X0.0002*%
%ADD31R,0.0215X0.0002*%
%ADD32R,0.0229X0.0002*%
%ADD33R,0.0246X0.0002*%
%ADD34R,0.0258X0.0002*%
%ADD35R,0.0272X0.0002*%
%ADD36R,0.0284X0.0002*%
%ADD37R,0.0296X0.0002*%
%ADD38R,0.0308X0.0002*%
%ADD39R,0.0320X0.0002*%
%ADD40R,0.0330X0.0002*%
%ADD41R,0.0340X0.0002*%
%ADD42R,0.0346X0.0002*%
%ADD43R,0.0350X0.0002*%
%ADD44R,0.0350X0.0002*%
%ADD45R,0.0354X0.0002*%
%ADD46R,0.0358X0.0002*%
%ADD47R,0.0360X0.0002*%
%ADD48R,0.0362X0.0002*%
%ADD49R,0.0366X0.0002*%
%ADD50R,0.0368X0.0002*%
%ADD51R,0.0368X0.0002*%
%ADD52R,0.0372X0.0002*%
%ADD53R,0.0374X0.0002*%
%ADD54R,0.0378X0.0002*%
%ADD55R,0.0378X0.0002*%
%ADD56R,0.0380X0.0002*%
%ADD57R,0.0382X0.0002*%
%ADD58R,0.0386X0.0002*%
%ADD59R,0.0386X0.0002*%
%ADD60R,0.0388X0.0002*%
%ADD61R,0.0390X0.0002*%
%ADD62R,0.0392X0.0002*%
%ADD63R,0.0392X0.0002*%
%ADD64R,0.0395X0.0002*%
%ADD65R,0.0397X0.0002*%
%ADD66R,0.0399X0.0002*%
%ADD67R,0.0399X0.0002*%
%ADD68R,0.0401X0.0002*%
%ADD69R,0.0403X0.0002*%
%ADD70R,0.0405X0.0002*%
%ADD71R,0.0405X0.0002*%
%ADD72R,0.0407X0.0002*%
%ADD73R,0.0409X0.0002*%
%ADD74R,0.0409X0.0002*%
%ADD75R,0.0411X0.0002*%
%ADD76R,0.0137X0.0002*%
%ADD77R,0.0213X0.0002*%
%ADD78R,0.0119X0.0002*%
%ADD79R,0.0197X0.0002*%
%ADD80R,0.0105X0.0002*%
%ADD81R,0.0189X0.0002*%
%ADD82R,0.0093X0.0002*%
%ADD83R,0.0181X0.0002*%
%ADD84R,0.0085X0.0002*%
%ADD85R,0.0175X0.0002*%
%ADD86R,0.0074X0.0002*%
%ADD87R,0.0167X0.0002*%
%ADD88R,0.0064X0.0002*%
%ADD89R,0.0163X0.0002*%
%ADD90R,0.0056X0.0002*%
%ADD91R,0.0159X0.0002*%
%ADD92R,0.0048X0.0002*%
%ADD93R,0.0155X0.0002*%
%ADD94R,0.0040X0.0002*%
%ADD95R,0.0151X0.0002*%
%ADD96R,0.0030X0.0002*%
%ADD97R,0.0149X0.0002*%
%ADD98R,0.0022X0.0002*%
%ADD99R,0.0145X0.0002*%
%ADD100R,0.0014X0.0002*%
%ADD101R,0.0143X0.0002*%
%ADD102R,0.0006X0.0002*%
%ADD103R,0.0139X0.0002*%
%ADD104R,0.0137X0.0002*%
%ADD105R,0.0133X0.0002*%
%ADD106R,0.0133X0.0002*%
%ADD107R,0.0129X0.0002*%
%ADD108R,0.0129X0.0002*%
%ADD109R,0.0127X0.0002*%
%ADD110R,0.0127X0.0002*%
%ADD111R,0.0125X0.0002*%
%ADD112R,0.0125X0.0002*%
%ADD113R,0.0123X0.0002*%
%ADD114R,0.0123X0.0002*%
%ADD115R,0.0121X0.0002*%
%ADD116R,0.0121X0.0002*%
%ADD117R,0.0119X0.0002*%
%ADD118R,0.0117X0.0002*%
%ADD119R,0.0115X0.0002*%
%ADD120R,0.0117X0.0002*%
%ADD121R,0.0115X0.0002*%
%ADD122R,0.0115X0.0002*%
%ADD123R,0.0113X0.0002*%
%ADD124R,0.0113X0.0002*%
%ADD125R,0.0113X0.0002*%
%ADD126R,0.0111X0.0002*%
%ADD127R,0.0111X0.0002*%
%ADD128R,0.0109X0.0002*%
%ADD129R,0.0109X0.0002*%
%ADD130R,0.0109X0.0002*%
%ADD131R,0.0107X0.0002*%
%ADD132R,0.0107X0.0002*%
%ADD133R,0.0107X0.0002*%
%ADD134R,0.0107X0.0002*%
%ADD135R,0.0105X0.0002*%
%ADD136R,0.0105X0.0002*%
%ADD137R,0.0105X0.0002*%
%ADD138R,0.0054X0.0002*%
%ADD139R,0.0062X0.0002*%
%ADD140R,0.0062X0.0002*%
%ADD141R,0.0085X0.0002*%
%ADD142R,0.0097X0.0002*%
%ADD143R,0.0093X0.0002*%
%ADD144R,0.0095X0.0002*%
%ADD145R,0.0020X0.0002*%
%ADD146R,0.0125X0.0002*%
%ADD147R,0.0107X0.0002*%
%ADD148R,0.0141X0.0002*%
%ADD149R,0.0133X0.0002*%
%ADD150R,0.0038X0.0002*%
%ADD151R,0.0137X0.0002*%
%ADD152R,0.0141X0.0002*%
%ADD153R,0.0157X0.0002*%
%ADD154R,0.0147X0.0002*%
%ADD155R,0.0050X0.0002*%
%ADD156R,0.0153X0.0002*%
%ADD157R,0.0173X0.0002*%
%ADD158R,0.0169X0.0002*%
%ADD159R,0.0169X0.0002*%
%ADD160R,0.0171X0.0002*%
%ADD161R,0.0185X0.0002*%
%ADD162R,0.0326X0.0002*%
%ADD163R,0.0171X0.0002*%
%ADD164R,0.0070X0.0002*%
%ADD165R,0.0131X0.0002*%
%ADD166R,0.0183X0.0002*%
%ADD167R,0.0183X0.0002*%
%ADD168R,0.0105X0.0002*%
%ADD169R,0.0107X0.0002*%
%ADD170R,0.0183X0.0002*%
%ADD171R,0.0199X0.0002*%
%ADD172R,0.0340X0.0002*%
%ADD173R,0.0181X0.0002*%
%ADD174R,0.0074X0.0002*%
%ADD175R,0.0145X0.0002*%
%ADD176R,0.0195X0.0002*%
%ADD177R,0.0195X0.0002*%
%ADD178R,0.0193X0.0002*%
%ADD179R,0.0211X0.0002*%
%ADD180R,0.0352X0.0002*%
%ADD181R,0.0193X0.0002*%
%ADD182R,0.0083X0.0002*%
%ADD183R,0.0157X0.0002*%
%ADD184R,0.0207X0.0002*%
%ADD185R,0.0205X0.0002*%
%ADD186R,0.0201X0.0002*%
%ADD187R,0.0221X0.0002*%
%ADD188R,0.0360X0.0002*%
%ADD189R,0.0203X0.0002*%
%ADD190R,0.0087X0.0002*%
%ADD191R,0.0165X0.0002*%
%ADD192R,0.0217X0.0002*%
%ADD193R,0.0217X0.0002*%
%ADD194R,0.0207X0.0002*%
%ADD195R,0.0231X0.0002*%
%ADD196R,0.0366X0.0002*%
%ADD197R,0.0091X0.0002*%
%ADD198R,0.0175X0.0002*%
%ADD199R,0.0229X0.0002*%
%ADD200R,0.0225X0.0002*%
%ADD201R,0.0213X0.0002*%
%ADD202R,0.0242X0.0002*%
%ADD203R,0.0372X0.0002*%
%ADD204R,0.0221X0.0002*%
%ADD205R,0.0097X0.0002*%
%ADD206R,0.0238X0.0002*%
%ADD207R,0.0237X0.0002*%
%ADD208R,0.0252X0.0002*%
%ADD209R,0.0378X0.0002*%
%ADD210R,0.0101X0.0002*%
%ADD211R,0.0187X0.0002*%
%ADD212R,0.0248X0.0002*%
%ADD213R,0.0246X0.0002*%
%ADD214R,0.0223X0.0002*%
%ADD215R,0.0260X0.0002*%
%ADD216R,0.0384X0.0002*%
%ADD217R,0.0238X0.0002*%
%ADD218R,0.0254X0.0002*%
%ADD219R,0.0227X0.0002*%
%ADD220R,0.0270X0.0002*%
%ADD221R,0.0246X0.0002*%
%ADD222R,0.0266X0.0002*%
%ADD223R,0.0262X0.0002*%
%ADD224R,0.0231X0.0002*%
%ADD225R,0.0280X0.0002*%
%ADD226R,0.0392X0.0002*%
%ADD227R,0.0252X0.0002*%
%ADD228R,0.0111X0.0002*%
%ADD229R,0.0205X0.0002*%
%ADD230R,0.0274X0.0002*%
%ADD231R,0.0270X0.0002*%
%ADD232R,0.0235X0.0002*%
%ADD233R,0.0288X0.0002*%
%ADD234R,0.0399X0.0002*%
%ADD235R,0.0260X0.0002*%
%ADD236R,0.0282X0.0002*%
%ADD237R,0.0278X0.0002*%
%ADD238R,0.0296X0.0002*%
%ADD239R,0.0215X0.0002*%
%ADD240R,0.0290X0.0002*%
%ADD241R,0.0286X0.0002*%
%ADD242R,0.0241X0.0002*%
%ADD243R,0.0300X0.0002*%
%ADD244R,0.0405X0.0002*%
%ADD245R,0.0272X0.0002*%
%ADD246R,0.0121X0.0002*%
%ADD247R,0.0221X0.0002*%
%ADD248R,0.0298X0.0002*%
%ADD249R,0.0292X0.0002*%
%ADD250R,0.0244X0.0002*%
%ADD251R,0.0308X0.0002*%
%ADD252R,0.0409X0.0002*%
%ADD253R,0.0123X0.0002*%
%ADD254R,0.0304X0.0002*%
%ADD255R,0.0294X0.0002*%
%ADD256R,0.0316X0.0002*%
%ADD257R,0.0411X0.0002*%
%ADD258R,0.0312X0.0002*%
%ADD259R,0.0250X0.0002*%
%ADD260R,0.0324X0.0002*%
%ADD261R,0.0415X0.0002*%
%ADD262R,0.0292X0.0002*%
%ADD263R,0.0233X0.0002*%
%ADD264R,0.0318X0.0002*%
%ADD265R,0.0302X0.0002*%
%ADD266R,0.0328X0.0002*%
%ADD267R,0.0417X0.0002*%
%ADD268R,0.0324X0.0002*%
%ADD269R,0.0256X0.0002*%
%ADD270R,0.0336X0.0002*%
%ADD271R,0.0421X0.0002*%
%ADD272R,0.0131X0.0002*%
%ADD273R,0.0330X0.0002*%
%ADD274R,0.0258X0.0002*%
%ADD275R,0.0340X0.0002*%
%ADD276R,0.0423X0.0002*%
%ADD277R,0.0135X0.0002*%
%ADD278R,0.0338X0.0002*%
%ADD279R,0.0310X0.0002*%
%ADD280R,0.0348X0.0002*%
%ADD281R,0.0425X0.0002*%
%ADD282R,0.0342X0.0002*%
%ADD283R,0.0314X0.0002*%
%ADD284R,0.0262X0.0002*%
%ADD285R,0.0429X0.0002*%
%ADD286R,0.0320X0.0002*%
%ADD287R,0.0316X0.0002*%
%ADD288R,0.0264X0.0002*%
%ADD289R,0.0360X0.0002*%
%ADD290R,0.0431X0.0002*%
%ADD291R,0.0324X0.0002*%
%ADD292R,0.0139X0.0002*%
%ADD293R,0.0256X0.0002*%
%ADD294R,0.0354X0.0002*%
%ADD295R,0.0318X0.0002*%
%ADD296R,0.0266X0.0002*%
%ADD297R,0.0364X0.0002*%
%ADD298R,0.0433X0.0002*%
%ADD299R,0.0139X0.0002*%
%ADD300R,0.0360X0.0002*%
%ADD301R,0.0322X0.0002*%
%ADD302R,0.0268X0.0002*%
%ADD303R,0.0370X0.0002*%
%ADD304R,0.0435X0.0002*%
%ADD305R,0.0330X0.0002*%
%ADD306R,0.0376X0.0002*%
%ADD307R,0.0437X0.0002*%
%ADD308R,0.0332X0.0002*%
%ADD309R,0.0141X0.0002*%
%ADD310R,0.0326X0.0002*%
%ADD311R,0.0272X0.0002*%
%ADD312R,0.0380X0.0002*%
%ADD313R,0.0439X0.0002*%
%ADD314R,0.0334X0.0002*%
%ADD315R,0.0143X0.0002*%
%ADD316R,0.0268X0.0002*%
%ADD317R,0.0376X0.0002*%
%ADD318R,0.0274X0.0002*%
%ADD319R,0.0441X0.0002*%
%ADD320R,0.0382X0.0002*%
%ADD321R,0.0276X0.0002*%
%ADD322R,0.0391X0.0002*%
%ADD323R,0.0443X0.0002*%
%ADD324R,0.0340X0.0002*%
%ADD325R,0.0274X0.0002*%
%ADD326R,0.0334X0.0002*%
%ADD327R,0.0445X0.0002*%
%ADD328R,0.0342X0.0002*%
%ADD329R,0.0278X0.0002*%
%ADD330R,0.0401X0.0002*%
%ADD331R,0.0445X0.0002*%
%ADD332R,0.0344X0.0002*%
%ADD333R,0.0395X0.0002*%
%ADD334R,0.0280X0.0002*%
%ADD335R,0.0447X0.0002*%
%ADD336R,0.0409X0.0002*%
%ADD337R,0.0449X0.0002*%
%ADD338R,0.0348X0.0002*%
%ADD339R,0.0407X0.0002*%
%ADD340R,0.0344X0.0002*%
%ADD341R,0.0415X0.0002*%
%ADD342R,0.0451X0.0002*%
%ADD343R,0.0350X0.0002*%
%ADD344R,0.0411X0.0002*%
%ADD345R,0.0346X0.0002*%
%ADD346R,0.0284X0.0002*%
%ADD347R,0.0419X0.0002*%
%ADD348R,0.0451X0.0002*%
%ADD349R,0.0352X0.0002*%
%ADD350R,0.0290X0.0002*%
%ADD351R,0.0415X0.0002*%
%ADD352R,0.0286X0.0002*%
%ADD353R,0.0423X0.0002*%
%ADD354R,0.0453X0.0002*%
%ADD355R,0.0354X0.0002*%
%ADD356R,0.0292X0.0002*%
%ADD357R,0.0419X0.0002*%
%ADD358R,0.0427X0.0002*%
%ADD359R,0.0455X0.0002*%
%ADD360R,0.0356X0.0002*%
%ADD361R,0.0288X0.0002*%
%ADD362R,0.0431X0.0002*%
%ADD363R,0.0358X0.0002*%
%ADD364R,0.0296X0.0002*%
%ADD365R,0.0290X0.0002*%
%ADD366R,0.0435X0.0002*%
%ADD367R,0.0457X0.0002*%
%ADD368R,0.0300X0.0002*%
%ADD369R,0.0356X0.0002*%
%ADD370R,0.0290X0.0002*%
%ADD371R,0.0439X0.0002*%
%ADD372R,0.0457X0.0002*%
%ADD373R,0.0362X0.0002*%
%ADD374R,0.0302X0.0002*%
%ADD375R,0.0443X0.0002*%
%ADD376R,0.0459X0.0002*%
%ADD377R,0.0304X0.0002*%
%ADD378R,0.0447X0.0002*%
%ADD379R,0.0461X0.0002*%
%ADD380R,0.0306X0.0002*%
%ADD381R,0.0360X0.0002*%
%ADD382R,0.0294X0.0002*%
%ADD383R,0.0461X0.0002*%
%ADD384R,0.0368X0.0002*%
%ADD385R,0.0447X0.0002*%
%ADD386R,0.0463X0.0002*%
%ADD387R,0.0368X0.0002*%
%ADD388R,0.0457X0.0002*%
%ADD389R,0.0455X0.0002*%
%ADD390R,0.0372X0.0002*%
%ADD391R,0.0314X0.0002*%
%ADD392R,0.0203X0.0002*%
%ADD393R,0.0298X0.0002*%
%ADD394R,0.0201X0.0002*%
%ADD395R,0.0201X0.0002*%
%ADD396R,0.0465X0.0002*%
%ADD397R,0.0121X0.0002*%
%ADD398R,0.0316X0.0002*%
%ADD399R,0.0191X0.0002*%
%ADD400R,0.0298X0.0002*%
%ADD401R,0.0189X0.0002*%
%ADD402R,0.0465X0.0002*%
%ADD403R,0.0300X0.0002*%
%ADD404R,0.0181X0.0002*%
%ADD405R,0.0467X0.0002*%
%ADD406R,0.0103X0.0002*%
%ADD407R,0.0320X0.0002*%
%ADD408R,0.0177X0.0002*%
%ADD409R,0.0171X0.0002*%
%ADD410R,0.0079X0.0002*%
%ADD411R,0.0173X0.0002*%
%ADD412R,0.0169X0.0002*%
%ADD413R,0.0467X0.0002*%
%ADD414R,0.0171X0.0002*%
%ADD415R,0.0091X0.0002*%
%ADD416R,0.0324X0.0002*%
%ADD417R,0.0173X0.0002*%
%ADD418R,0.0072X0.0002*%
%ADD419R,0.0469X0.0002*%
%ADD420R,0.0163X0.0002*%
%ADD421R,0.0066X0.0002*%
%ADD422R,0.0165X0.0002*%
%ADD423R,0.0161X0.0002*%
%ADD424R,0.0149X0.0002*%
%ADD425R,0.0163X0.0002*%
%ADD426R,0.0081X0.0002*%
%ADD427R,0.0139X0.0002*%
%ADD428R,0.0076X0.0002*%
%ADD429R,0.0157X0.0002*%
%ADD430R,0.0058X0.0002*%
%ADD431R,0.0159X0.0002*%
%ADD432R,0.0155X0.0002*%
%ADD433R,0.0137X0.0002*%
%ADD434R,0.0159X0.0002*%
%ADD435R,0.0072X0.0002*%
%ADD436R,0.0115X0.0002*%
%ADD437R,0.0195X0.0002*%
%ADD438R,0.0052X0.0002*%
%ADD439R,0.0127X0.0002*%
%ADD440R,0.0153X0.0002*%
%ADD441R,0.0155X0.0002*%
%ADD442R,0.0068X0.0002*%
%ADD443R,0.0189X0.0002*%
%ADD444R,0.0125X0.0002*%
%ADD445R,0.0151X0.0002*%
%ADD446R,0.0064X0.0002*%
%ADD447R,0.0044X0.0002*%
%ADD448R,0.0123X0.0002*%
%ADD449R,0.0103X0.0002*%
%ADD450R,0.0179X0.0002*%
%ADD451R,0.0147X0.0002*%
%ADD452R,0.0040X0.0002*%
%ADD453R,0.0119X0.0002*%
%ADD454R,0.0151X0.0002*%
%ADD455R,0.0125X0.0002*%
%ADD456R,0.0099X0.0002*%
%ADD457R,0.0175X0.0002*%
%ADD458R,0.0145X0.0002*%
%ADD459R,0.0036X0.0002*%
%ADD460R,0.0056X0.0002*%
%ADD461R,0.0095X0.0002*%
%ADD462R,0.0032X0.0002*%
%ADD463R,0.0117X0.0002*%
%ADD464R,0.0052X0.0002*%
%ADD465R,0.0028X0.0002*%
%ADD466R,0.0115X0.0002*%
%ADD467R,0.0050X0.0002*%
%ADD468R,0.0141X0.0002*%
%ADD469R,0.0024X0.0002*%
%ADD470R,0.0113X0.0002*%
%ADD471R,0.0117X0.0002*%
%ADD472R,0.0046X0.0002*%
%ADD473R,0.0163X0.0002*%
%ADD474R,0.0119X0.0002*%
%ADD475R,0.0074X0.0002*%
%ADD476R,0.0143X0.0002*%
%ADD477R,0.0137X0.0002*%
%ADD478R,0.0016X0.0002*%
%ADD479R,0.0042X0.0002*%
%ADD480R,0.0135X0.0002*%
%ADD481R,0.0012X0.0002*%
%ADD482R,0.0038X0.0002*%
%ADD483R,0.0058X0.0002*%
%ADD484R,0.0133X0.0002*%
%ADD485R,0.0010X0.0002*%
%ADD486R,0.0109X0.0002*%
%ADD487R,0.0135X0.0002*%
%ADD488R,0.0115X0.0002*%
%ADD489R,0.0135X0.0002*%
%ADD490R,0.0036X0.0002*%
%ADD491R,0.0153X0.0002*%
%ADD492R,0.0034X0.0002*%
%ADD493R,0.0034X0.0002*%
%ADD494R,0.0002X0.0002*%
%ADD495R,0.0133X0.0002*%
%ADD496R,0.0030X0.0002*%
%ADD497R,0.0149X0.0002*%
%ADD498R,0.0129X0.0002*%
%ADD499R,0.0131X0.0002*%
%ADD500R,0.0028X0.0002*%
%ADD501R,0.0024X0.0002*%
%ADD502R,0.0022X0.0002*%
%ADD503R,0.0020X0.0002*%
%ADD504R,0.0123X0.0002*%
%ADD505R,0.0127X0.0002*%
%ADD506R,0.0018X0.0002*%
%ADD507R,0.0121X0.0002*%
%ADD508R,0.0012X0.0002*%
%ADD509R,0.0127X0.0002*%
%ADD510R,0.0010X0.0002*%
%ADD511R,0.0008X0.0002*%
%ADD512R,0.0006X0.0002*%
%ADD513R,0.0119X0.0002*%
%ADD514R,0.0004X0.0002*%
%ADD515R,0.0002X0.0002*%
%ADD516R,0.0117X0.0002*%
%ADD517R,0.0004X0.0002*%
%ADD518R,0.0111X0.0002*%
%ADD519R,0.0111X0.0002*%
%ADD520R,0.0018X0.0002*%
%ADD521R,0.0109X0.0002*%
%ADD522R,0.0022X0.0002*%
%ADD523R,0.0042X0.0002*%
%ADD524R,0.0046X0.0002*%
%ADD525R,0.0056X0.0002*%
%ADD526R,0.0161X0.0002*%
%ADD527R,0.0070X0.0002*%
%ADD528R,0.0179X0.0002*%
%ADD529R,0.0109X0.0002*%
%ADD530R,0.0185X0.0002*%
%ADD531R,0.0089X0.0002*%
%ADD532R,0.0093X0.0002*%
%ADD533R,0.0099X0.0002*%
%ADD534R,0.0211X0.0002*%
%ADD535R,0.0231X0.0002*%
%ADD536R,0.0240X0.0002*%
%ADD537R,0.0149X0.0002*%
%ADD538R,0.0264X0.0002*%
%ADD539R,0.0268X0.0002*%
%ADD540R,0.0272X0.0002*%
%ADD541R,0.0167X0.0002*%
%ADD542R,0.0068X0.0002*%
%ADD543R,0.0284X0.0002*%
%ADD544R,0.0018X0.0002*%
%ADD545R,0.0185X0.0002*%
%ADD546R,0.0002X0.0002*%
%ADD547R,0.0296X0.0002*%
%ADD548R,0.0197X0.0002*%
%ADD549R,0.0197X0.0002*%
%ADD550R,0.0310X0.0002*%
%ADD551R,0.0199X0.0002*%
%ADD552R,0.0310X0.0002*%
%ADD553R,0.0312X0.0002*%
%ADD554R,0.0312X0.0002*%
%ADD555R,0.0310X0.0002*%
%ADD556R,0.0306X0.0002*%
%ADD557R,0.0199X0.0002*%
%ADD558R,0.0197X0.0002*%
%ADD559R,0.0296X0.0002*%
%ADD560R,0.0254X0.0002*%
%ADD561R,0.0225X0.0002*%
%ADD562R,0.0219X0.0002*%
%ADD563R,0.0157X0.0002*%
%ADD564R,0.0107X0.0002*%
%ADD565R,0.0117X0.0002*%
%ADD566R,0.0197X0.0002*%
%ADD567R,0.0141X0.0002*%
%ADD568R,0.0111X0.0002*%
%ADD569R,0.0119X0.0002*%
%ADD570R,0.0111X0.0002*%
%ADD571R,0.0117X0.0002*%
%ADD572R,0.0107X0.0002*%
%ADD573R,0.0117X0.0002*%
%ADD574R,0.0199X0.0002*%
%ADD575R,0.0137X0.0002*%
%ADD576R,0.0109X0.0002*%
%ADD577R,0.0121X0.0002*%
%ADD578R,0.0123X0.0002*%
%ADD579R,0.0197X0.0002*%
%ADD580R,0.0121X0.0002*%
%ADD581R,0.0197X0.0002*%
%ADD582R,0.0121X0.0002*%
%ADD583R,0.0125X0.0002*%
%ADD584R,0.0119X0.0002*%
%ADD585R,0.0127X0.0002*%
%ADD586R,0.0119X0.0002*%
%ADD587R,0.0123X0.0002*%
%ADD588R,0.0193X0.0002*%
%ADD589R,0.0187X0.0002*%
%ADD590R,0.0131X0.0002*%
%ADD591R,0.0125X0.0002*%
%ADD592R,0.0123X0.0002*%
%ADD593R,0.0177X0.0002*%
%ADD594R,0.0125X0.0002*%
%ADD595R,0.0131X0.0002*%
%ADD596R,0.0127X0.0002*%
%ADD597R,0.0163X0.0002*%
%ADD598R,0.0135X0.0002*%
%ADD599R,0.0129X0.0002*%
%ADD600R,0.0157X0.0002*%
%ADD601R,0.0129X0.0002*%
%ADD602R,0.0135X0.0002*%
%ADD603R,0.0143X0.0002*%
%ADD604R,0.0139X0.0002*%
%ADD605R,0.0135X0.0002*%
%ADD606R,0.0115X0.0002*%
%ADD607R,0.0139X0.0002*%
%ADD608R,0.0133X0.0002*%
%ADD609R,0.0127X0.0002*%
%ADD610R,0.0141X0.0002*%
%ADD611R,0.0135X0.0002*%
%ADD612R,0.0129X0.0002*%
%ADD613R,0.0137X0.0002*%
%ADD614R,0.0147X0.0002*%
%ADD615R,0.0145X0.0002*%
%ADD616R,0.0131X0.0002*%
%ADD617R,0.0141X0.0002*%
%ADD618R,0.0153X0.0002*%
%ADD619R,0.0151X0.0002*%
%ADD620R,0.0143X0.0002*%
%ADD621R,0.0137X0.0002*%
%ADD622R,0.0155X0.0002*%
%ADD623R,0.0159X0.0002*%
%ADD624R,0.0161X0.0002*%
%ADD625R,0.0143X0.0002*%
%ADD626R,0.0147X0.0002*%
%ADD627R,0.0165X0.0002*%
%ADD628R,0.0167X0.0002*%
%ADD629R,0.0167X0.0002*%
%ADD630R,0.0153X0.0002*%
%ADD631R,0.0175X0.0002*%
%ADD632R,0.0149X0.0002*%
%ADD633R,0.0179X0.0002*%
%ADD634R,0.0153X0.0002*%
%ADD635R,0.0151X0.0002*%
%ADD636R,0.0153X0.0002*%
%ADD637R,0.0155X0.0002*%
%ADD638R,0.0183X0.0002*%
%ADD639R,0.0191X0.0002*%
%ADD640R,0.0161X0.0002*%
%ADD641R,0.0195X0.0002*%
%ADD642R,0.0199X0.0002*%
%ADD643R,0.0161X0.0002*%
%ADD644R,0.0163X0.0002*%
%ADD645R,0.0203X0.0002*%
%ADD646R,0.0207X0.0002*%
%ADD647R,0.0167X0.0002*%
%ADD648R,0.0173X0.0002*%
%ADD649R,0.0316X0.0002*%
%ADD650R,0.0171X0.0002*%
%ADD651R,0.0441X0.0002*%
%ADD652R,0.0177X0.0002*%
%ADD653R,0.0322X0.0002*%
%ADD654R,0.0173X0.0002*%
%ADD655R,0.0229X0.0002*%
%ADD656R,0.0171X0.0002*%
%ADD657R,0.0316X0.0002*%
%ADD658R,0.0175X0.0002*%
%ADD659R,0.0441X0.0002*%
%ADD660R,0.0185X0.0002*%
%ADD661R,0.0320X0.0002*%
%ADD662R,0.0147X0.0002*%
%ADD663R,0.0240X0.0002*%
%ADD664R,0.0179X0.0002*%
%ADD665R,0.0264X0.0002*%
%ADD666R,0.0199X0.0002*%
%ADD667R,0.0201X0.0002*%
%ADD668R,0.0439X0.0002*%
%ADD669R,0.0205X0.0002*%
%ADD670R,0.0211X0.0002*%
%ADD671R,0.0201X0.0002*%
%ADD672R,0.0165X0.0002*%
%ADD673R,0.0286X0.0002*%
%ADD674R,0.0449X0.0002*%
%ADD675R,0.0457X0.0002*%
%ADD676R,0.0437X0.0002*%
%ADD677R,0.0473X0.0002*%
%ADD678R,0.0314X0.0002*%
%ADD679R,0.0455X0.0002*%
%ADD680R,0.0702X0.0002*%
%ADD681R,0.0700X0.0002*%
%ADD682R,0.0698X0.0002*%
%ADD683R,0.0445X0.0002*%
%ADD684R,0.0435X0.0002*%
%ADD685R,0.0463X0.0002*%
%ADD686R,0.0308X0.0002*%
%ADD687R,0.0447X0.0002*%
%ADD688R,0.0694X0.0002*%
%ADD689R,0.0435X0.0002*%
%ADD690R,0.0433X0.0002*%
%ADD691R,0.0459X0.0002*%
%ADD692R,0.0306X0.0002*%
%ADD693R,0.0443X0.0002*%
%ADD694R,0.0694X0.0002*%
%ADD695R,0.0431X0.0002*%
%ADD696R,0.0690X0.0002*%
%ADD697R,0.0427X0.0002*%
%ADD698R,0.0686X0.0002*%
%ADD699R,0.0423X0.0002*%
%ADD700R,0.0429X0.0002*%
%ADD701R,0.0431X0.0002*%
%ADD702R,0.0449X0.0002*%
%ADD703R,0.0298X0.0002*%
%ADD704R,0.0686X0.0002*%
%ADD705R,0.0419X0.0002*%
%ADD706R,0.0425X0.0002*%
%ADD707R,0.0429X0.0002*%
%ADD708R,0.0445X0.0002*%
%ADD709R,0.0296X0.0002*%
%ADD710R,0.0427X0.0002*%
%ADD711R,0.0682X0.0002*%
%ADD712R,0.0421X0.0002*%
%ADD713R,0.0441X0.0002*%
%ADD714R,0.0678X0.0002*%
%ADD715R,0.0676X0.0002*%
%ADD716R,0.0407X0.0002*%
%ADD717R,0.0413X0.0002*%
%ADD718R,0.0425X0.0002*%
%ADD719R,0.0433X0.0002*%
%ADD720R,0.0290X0.0002*%
%ADD721R,0.0415X0.0002*%
%ADD722R,0.0336X0.0002*%
%ADD723R,0.0336X0.0002*%
%ADD724R,0.0403X0.0002*%
%ADD725R,0.0423X0.0002*%
%ADD726R,0.0429X0.0002*%
%ADD727R,0.0286X0.0002*%
%ADD728R,0.0411X0.0002*%
%ADD729R,0.0332X0.0002*%
%ADD730R,0.0399X0.0002*%
%ADD731R,0.0328X0.0002*%
%ADD732R,0.0394X0.0002*%
%ADD733R,0.0390X0.0002*%
%ADD734R,0.0397X0.0002*%
%ADD735R,0.0419X0.0002*%
%ADD736R,0.0417X0.0002*%
%ADD737R,0.0278X0.0002*%
%ADD738R,0.0395X0.0002*%
%ADD739R,0.0324X0.0002*%
%ADD740R,0.0386X0.0002*%
%ADD741R,0.0417X0.0002*%
%ADD742R,0.0413X0.0002*%
%ADD743R,0.0276X0.0002*%
%ADD744R,0.0391X0.0002*%
%ADD745R,0.0382X0.0002*%
%ADD746R,0.0316X0.0002*%
%ADD747R,0.0413X0.0002*%
%ADD748R,0.0372X0.0002*%
%ADD749R,0.0396X0.0002*%
%ADD750R,0.0268X0.0002*%
%ADD751R,0.0376X0.0002*%
%ADD752R,0.0372X0.0002*%
%ADD753R,0.0264X0.0002*%
%ADD754R,0.0370X0.0002*%
%ADD755R,0.0304X0.0002*%
%ADD756R,0.0304X0.0002*%
%ADD757R,0.0380X0.0002*%
%ADD758R,0.0352X0.0002*%
%ADD759R,0.0356X0.0002*%
%ADD760R,0.0403X0.0002*%
%ADD761R,0.0376X0.0002*%
%ADD762R,0.0256X0.0002*%
%ADD763R,0.0354X0.0002*%
%ADD764R,0.0294X0.0002*%
%ADD765R,0.0292X0.0002*%
%ADD766R,0.0346X0.0002*%
%ADD767R,0.0350X0.0002*%
%ADD768R,0.0401X0.0002*%
%ADD769R,0.0252X0.0002*%
%ADD770R,0.0350X0.0002*%
%ADD771R,0.0288X0.0002*%
%ADD772R,0.0346X0.0002*%
%ADD773R,0.0364X0.0002*%
%ADD774R,0.0334X0.0002*%
%ADD775R,0.0280X0.0002*%
%ADD776R,0.0328X0.0002*%
%ADD777R,0.0334X0.0002*%
%ADD778R,0.0242X0.0002*%
%ADD779R,0.0330X0.0002*%
%ADD780R,0.0274X0.0002*%
%ADD781R,0.0276X0.0002*%
%ADD782R,0.0324X0.0002*%
%ADD783R,0.0326X0.0002*%
%ADD784R,0.0388X0.0002*%
%ADD785R,0.0237X0.0002*%
%ADD786R,0.0324X0.0002*%
%ADD787R,0.0270X0.0002*%
%ADD788R,0.0270X0.0002*%
%ADD789R,0.0264X0.0002*%
%ADD790R,0.0304X0.0002*%
%ADD791R,0.0380X0.0002*%
%ADD792R,0.0326X0.0002*%
%ADD793R,0.0225X0.0002*%
%ADD794R,0.0254X0.0002*%
%ADD795R,0.0300X0.0002*%
%ADD796R,0.0376X0.0002*%
%ADD797R,0.0221X0.0002*%
%ADD798R,0.0298X0.0002*%
%ADD799R,0.0250X0.0002*%
%ADD800R,0.0248X0.0002*%
%ADD801R,0.0244X0.0002*%
%ADD802R,0.0274X0.0002*%
%ADD803R,0.0362X0.0002*%
%ADD804R,0.0296X0.0002*%
%ADD805R,0.0205X0.0002*%
%ADD806R,0.0229X0.0002*%
%ADD807R,0.0231X0.0002*%
%ADD808R,0.0266X0.0002*%
%ADD809R,0.0358X0.0002*%
%ADD810R,0.0223X0.0002*%
%ADD811R,0.0215X0.0002*%
%ADD812R,0.0209X0.0002*%
%ADD813R,0.0240X0.0002*%
%ADD814R,0.0244X0.0002*%
%ADD815R,0.0340X0.0002*%
%ADD816R,0.0262X0.0002*%
%ADD817R,0.0238X0.0002*%
%ADD818R,0.0229X0.0002*%
%ADD819R,0.0231X0.0002*%
%ADD820R,0.0334X0.0002*%
%ADD821R,0.0173X0.0002*%
%ADD822R,0.0229X0.0002*%
%ADD823R,0.0219X0.0002*%
%ADD824R,0.0223X0.0002*%
%ADD825R,0.0183X0.0002*%
%ADD826R,0.0215X0.0002*%
%ADD827R,0.0195X0.0002*%
%ADD828R,0.0203X0.0002*%
%ADD829R,0.0171X0.0002*%
%ADD830R,0.0187X0.0002*%
%ADD831R,0.0169X0.0002*%
%ADD832R,0.0143X0.0002*%
%ADD833R,0.0155X0.0002*%
%ADD834R,0.0097X0.0002*%
%ADD835R,0.0099X0.0002*%
%ADD836R,0.0095X0.0002*%
%ADD837R,0.0078X0.0002*%
%ADD838R,0.0081X0.0002*%
%ADD839R,0.0072X0.0002*%
%ADD840R,0.0020X0.0002*%
%ADD841R,0.0050X0.0002*%
%ADD842R,0.0060X0.0002*%
%ADD843R,0.0066X0.0002*%
%ADD844R,0.0079X0.0002*%
%ADD845R,0.0089X0.0002*%
%ADD846R,0.0091X0.0002*%
%ADD847R,0.0095X0.0002*%
%ADD848R,0.0099X0.0002*%
%ADD849R,0.0103X0.0002*%
%ADD850R,0.0101X0.0002*%
%ADD851R,0.0087X0.0002*%
%ADD852R,0.0074X0.0002*%
%ADD853R,0.0062X0.0002*%
%ADD854R,0.0054X0.0002*%
%ADD855R,0.0044X0.0002*%
%ADD856R,0.0030X0.0002*%
%ADD857C,0.0300*%
%ADD858C,0.0140*%
%ADD859C,0.0800*%
%ADD860C,0.0280*%
D10*
X003600Y000390D02*
X015150Y000390D01*
X018450Y003690D02*
X018450Y015590D01*
X015150Y018890D02*
X014550Y018890D01*
X014527Y018888D01*
X014504Y018883D01*
X014482Y018874D01*
X014462Y018861D01*
X014444Y018846D01*
X014429Y018828D01*
X014416Y018808D01*
X014407Y018786D01*
X014402Y018763D01*
X014400Y018740D01*
X014400Y018240D01*
X014398Y018217D01*
X014393Y018194D01*
X014384Y018172D01*
X014371Y018152D01*
X014356Y018134D01*
X014338Y018119D01*
X014318Y018106D01*
X014296Y018097D01*
X014273Y018092D01*
X014250Y018090D01*
X008300Y018090D01*
X008277Y018092D01*
X008254Y018097D01*
X008232Y018106D01*
X008212Y018119D01*
X008194Y018134D01*
X008179Y018152D01*
X008166Y018172D01*
X008157Y018194D01*
X008152Y018217D01*
X008150Y018240D01*
X008150Y018690D01*
X008148Y018713D01*
X008143Y018736D01*
X008134Y018758D01*
X008121Y018778D01*
X008106Y018796D01*
X008088Y018811D01*
X008068Y018824D01*
X008046Y018833D01*
X008023Y018838D01*
X008000Y018840D01*
X003450Y018840D01*
X000150Y015490D02*
X000150Y003840D01*
X015150Y018890D02*
X015623Y018543D01*
X016080Y018176D01*
X016521Y017790D01*
X016944Y017384D01*
X017350Y016961D01*
X017736Y016520D01*
X018103Y016063D01*
X018450Y015590D01*
X003600Y000390D02*
X003106Y000752D01*
X002627Y001136D01*
X002167Y001540D01*
X001724Y001964D01*
X001300Y002407D01*
X000896Y002867D01*
X000512Y003346D01*
X000150Y003840D01*
X015150Y000390D02*
X015623Y000737D01*
X016080Y001104D01*
X016521Y001490D01*
X016944Y001896D01*
X017350Y002319D01*
X017736Y002760D01*
X018103Y003217D01*
X018450Y003690D01*
X003450Y018840D02*
X002976Y018487D01*
X002518Y018114D01*
X002077Y017721D01*
X001653Y017309D01*
X001248Y016879D01*
X000862Y016432D01*
X000495Y015969D01*
X000150Y015490D01*
D11*
X001775Y002540D02*
X001777Y002585D01*
X001783Y002630D01*
X001792Y002674D01*
X001806Y002717D01*
X001823Y002759D01*
X001843Y002799D01*
X001867Y002838D01*
X001895Y002874D01*
X001925Y002907D01*
X001958Y002938D01*
X001993Y002966D01*
X002031Y002991D01*
X002071Y003012D01*
X002112Y003030D01*
X002155Y003045D01*
X002199Y003055D01*
X002244Y003062D01*
X002289Y003065D01*
X002334Y003064D01*
X002379Y003059D01*
X002423Y003050D01*
X002467Y003038D01*
X002509Y003022D01*
X002549Y003002D01*
X002588Y002979D01*
X002625Y002952D01*
X002659Y002923D01*
X002691Y002891D01*
X002719Y002856D01*
X002745Y002819D01*
X002767Y002779D01*
X002786Y002738D01*
X002801Y002696D01*
X002813Y002652D01*
X002821Y002608D01*
X002825Y002563D01*
X002825Y002517D01*
X002821Y002472D01*
X002813Y002428D01*
X002801Y002384D01*
X002786Y002342D01*
X002767Y002301D01*
X002745Y002261D01*
X002719Y002224D01*
X002691Y002189D01*
X002659Y002157D01*
X002625Y002128D01*
X002588Y002101D01*
X002549Y002078D01*
X002509Y002058D01*
X002467Y002042D01*
X002423Y002030D01*
X002379Y002021D01*
X002334Y002016D01*
X002289Y002015D01*
X002244Y002018D01*
X002199Y002025D01*
X002155Y002035D01*
X002112Y002050D01*
X002071Y002068D01*
X002031Y002089D01*
X001993Y002114D01*
X001958Y002142D01*
X001925Y002173D01*
X001895Y002206D01*
X001867Y002242D01*
X001843Y002281D01*
X001823Y002321D01*
X001806Y002363D01*
X001792Y002406D01*
X001783Y002450D01*
X001777Y002495D01*
X001775Y002540D01*
X015925Y002540D02*
X015927Y002585D01*
X015933Y002630D01*
X015942Y002674D01*
X015956Y002717D01*
X015973Y002759D01*
X015993Y002799D01*
X016017Y002838D01*
X016045Y002874D01*
X016075Y002907D01*
X016108Y002938D01*
X016143Y002966D01*
X016181Y002991D01*
X016221Y003012D01*
X016262Y003030D01*
X016305Y003045D01*
X016349Y003055D01*
X016394Y003062D01*
X016439Y003065D01*
X016484Y003064D01*
X016529Y003059D01*
X016573Y003050D01*
X016617Y003038D01*
X016659Y003022D01*
X016699Y003002D01*
X016738Y002979D01*
X016775Y002952D01*
X016809Y002923D01*
X016841Y002891D01*
X016869Y002856D01*
X016895Y002819D01*
X016917Y002779D01*
X016936Y002738D01*
X016951Y002696D01*
X016963Y002652D01*
X016971Y002608D01*
X016975Y002563D01*
X016975Y002517D01*
X016971Y002472D01*
X016963Y002428D01*
X016951Y002384D01*
X016936Y002342D01*
X016917Y002301D01*
X016895Y002261D01*
X016869Y002224D01*
X016841Y002189D01*
X016809Y002157D01*
X016775Y002128D01*
X016738Y002101D01*
X016699Y002078D01*
X016659Y002058D01*
X016617Y002042D01*
X016573Y002030D01*
X016529Y002021D01*
X016484Y002016D01*
X016439Y002015D01*
X016394Y002018D01*
X016349Y002025D01*
X016305Y002035D01*
X016262Y002050D01*
X016221Y002068D01*
X016181Y002089D01*
X016143Y002114D01*
X016108Y002142D01*
X016075Y002173D01*
X016045Y002206D01*
X016017Y002242D01*
X015993Y002281D01*
X015973Y002321D01*
X015956Y002363D01*
X015942Y002406D01*
X015933Y002450D01*
X015927Y002495D01*
X015925Y002540D01*
D12*
X015685Y002510D02*
X011700Y002510D01*
X011700Y002588D02*
X015685Y002588D01*
X015685Y002667D02*
X011700Y002667D01*
X011700Y002745D02*
X015707Y002745D01*
X015685Y002692D02*
X015685Y002388D01*
X015801Y002107D01*
X016017Y001891D01*
X016298Y001775D01*
X016396Y001775D01*
X016325Y001704D01*
X015446Y000967D01*
X015446Y000967D01*
X015055Y000680D01*
X011700Y000680D01*
X011700Y006931D01*
X011732Y006907D01*
X011805Y006865D01*
X011882Y006833D01*
X011963Y006811D01*
X012047Y006800D01*
X012049Y006800D01*
X012049Y007400D01*
X012129Y007400D01*
X012129Y007480D01*
X012729Y007480D01*
X012729Y007482D01*
X012718Y007565D01*
X012696Y007646D01*
X012664Y007724D01*
X012622Y007796D01*
X012571Y007863D01*
X012511Y007922D01*
X012445Y007973D01*
X012372Y008015D01*
X012295Y008047D01*
X012214Y008069D01*
X012130Y008080D01*
X012129Y008080D01*
X012129Y007480D01*
X012049Y007480D01*
X012049Y008080D01*
X012047Y008080D01*
X011963Y008069D01*
X011882Y008047D01*
X011805Y008015D01*
X011732Y007973D01*
X011700Y007949D01*
X011700Y013840D01*
X009650Y015890D01*
X009650Y017800D01*
X014368Y017800D01*
X014532Y017895D01*
X014469Y017831D01*
X014469Y017249D01*
X014574Y017143D01*
X014595Y017143D01*
X014595Y017040D01*
X014038Y017040D01*
X013935Y017143D01*
X013782Y017206D01*
X013617Y017206D01*
X013464Y017143D01*
X013347Y017026D01*
X013306Y016927D01*
X013265Y017026D01*
X013148Y017143D01*
X012995Y017206D01*
X012829Y017206D01*
X012676Y017143D01*
X012559Y017026D01*
X012519Y016927D01*
X012478Y017026D01*
X012361Y017143D01*
X012208Y017206D01*
X012042Y017206D01*
X011889Y017143D01*
X011772Y017026D01*
X011731Y016927D01*
X011690Y017026D01*
X011573Y017143D01*
X011420Y017206D01*
X011255Y017206D01*
X011102Y017143D01*
X010985Y017026D01*
X010926Y016885D01*
X010926Y017045D01*
X010917Y017080D01*
X010898Y017112D01*
X010872Y017138D01*
X010840Y017157D01*
X010805Y017166D01*
X010589Y017166D01*
X010589Y016829D01*
X010511Y016829D01*
X010511Y017166D01*
X010295Y017166D01*
X010260Y017157D01*
X010228Y017138D01*
X010202Y017112D01*
X010183Y017080D01*
X010174Y017045D01*
X010174Y016829D01*
X010511Y016829D01*
X010511Y016751D01*
X010589Y016751D01*
X010589Y016414D01*
X010805Y016414D01*
X010840Y016423D01*
X010872Y016442D01*
X010898Y016468D01*
X010917Y016500D01*
X010926Y016535D01*
X010926Y016695D01*
X010985Y016554D01*
X011102Y016437D01*
X011255Y016374D01*
X011420Y016374D01*
X011573Y016437D01*
X011690Y016554D01*
X011731Y016653D01*
X011772Y016554D01*
X011889Y016437D01*
X012042Y016374D01*
X012208Y016374D01*
X012224Y016380D01*
X012220Y016377D01*
X012170Y016256D01*
X012170Y008931D01*
X012220Y008810D01*
X012313Y008717D01*
X013400Y007630D01*
X013377Y007575D01*
X013377Y007305D01*
X013481Y007055D01*
X013672Y006864D01*
X013922Y006760D01*
X014192Y006760D01*
X014442Y006864D01*
X014633Y007055D01*
X014737Y007305D01*
X014737Y007575D01*
X014633Y007825D01*
X014442Y008016D01*
X014192Y008120D01*
X013922Y008120D01*
X013867Y008097D01*
X012830Y009134D01*
X012830Y009845D01*
X012913Y009762D01*
X013421Y009254D01*
X013400Y009203D01*
X013400Y008936D01*
X013503Y008689D01*
X013692Y008500D01*
X013939Y008397D01*
X014206Y008397D01*
X014453Y008500D01*
X014642Y008689D01*
X014745Y008936D01*
X014745Y009203D01*
X014642Y009450D01*
X014453Y009639D01*
X014206Y009742D01*
X013939Y009742D01*
X013888Y009721D01*
X013430Y010179D01*
X013430Y015803D01*
X013887Y016260D01*
X013979Y016353D01*
X014030Y016474D01*
X014030Y016531D01*
X014038Y016540D01*
X014750Y016540D01*
X014842Y016578D01*
X014912Y016648D01*
X015057Y016794D01*
X015095Y016886D01*
X015095Y017143D01*
X015117Y017143D01*
X015200Y017227D01*
X015243Y017184D01*
X015230Y017154D01*
X015230Y017026D01*
X015279Y016909D01*
X015369Y016819D01*
X015486Y016770D01*
X015614Y016770D01*
X015731Y016819D01*
X015821Y016909D01*
X015870Y017026D01*
X015870Y017154D01*
X015860Y017178D01*
X015931Y017249D01*
X015931Y017831D01*
X015826Y017937D01*
X015283Y017937D01*
X015200Y017853D01*
X015117Y017937D01*
X014583Y017937D01*
X014690Y018122D01*
X014690Y018600D01*
X015055Y018600D01*
X015446Y018313D01*
X016325Y017576D01*
X017136Y016765D01*
X017873Y015886D01*
X018160Y015495D01*
X018160Y003785D01*
X017873Y003394D01*
X017215Y002609D01*
X017215Y002692D01*
X017099Y002973D01*
X016883Y003189D01*
X016602Y003305D01*
X016298Y003305D01*
X016017Y003189D01*
X015801Y002973D01*
X015685Y002692D01*
X015739Y002824D02*
X011700Y002824D01*
X011700Y002902D02*
X015772Y002902D01*
X015809Y002981D02*
X011700Y002981D01*
X011700Y003059D02*
X015887Y003059D01*
X015966Y003138D02*
X011700Y003138D01*
X011700Y003216D02*
X016083Y003216D01*
X016273Y003295D02*
X011700Y003295D01*
X011700Y003373D02*
X017856Y003373D01*
X017916Y003452D02*
X011700Y003452D01*
X011700Y003530D02*
X017973Y003530D01*
X018031Y003609D02*
X011700Y003609D01*
X011700Y003687D02*
X018088Y003687D01*
X018146Y003766D02*
X011700Y003766D01*
X011700Y003844D02*
X018160Y003844D01*
X018160Y003923D02*
X011700Y003923D01*
X011700Y004001D02*
X018160Y004001D01*
X018160Y004080D02*
X011700Y004080D01*
X011700Y004158D02*
X018160Y004158D01*
X018160Y004237D02*
X011700Y004237D01*
X011700Y004315D02*
X018160Y004315D01*
X018160Y004394D02*
X011700Y004394D01*
X011700Y004472D02*
X016367Y004472D01*
X016377Y004462D02*
X017326Y004462D01*
X017431Y004567D01*
X017431Y005517D01*
X017326Y005622D01*
X016377Y005622D01*
X016271Y005517D01*
X016271Y004567D01*
X016377Y004462D01*
X016288Y004551D02*
X011700Y004551D01*
X011700Y004629D02*
X016271Y004629D01*
X016271Y004708D02*
X011700Y004708D01*
X011700Y004786D02*
X016271Y004786D01*
X016271Y004865D02*
X011700Y004865D01*
X011700Y004943D02*
X016271Y004943D01*
X016271Y005022D02*
X011700Y005022D01*
X011700Y005100D02*
X016271Y005100D01*
X016271Y005179D02*
X011700Y005179D01*
X011700Y005257D02*
X016271Y005257D01*
X016271Y005336D02*
X011700Y005336D01*
X011700Y005414D02*
X016271Y005414D01*
X016271Y005493D02*
X011700Y005493D01*
X011700Y005571D02*
X016326Y005571D01*
X016726Y006435D02*
X011700Y006435D01*
X011700Y006513D02*
X016537Y006513D01*
X016523Y006519D02*
X016359Y006682D01*
X016271Y006895D01*
X016271Y007126D01*
X016359Y007339D01*
X016523Y007502D01*
X016736Y007591D01*
X016967Y007591D01*
X017180Y007502D01*
X017343Y007339D01*
X017431Y007126D01*
X017431Y006895D01*
X017343Y006682D01*
X017180Y006519D01*
X016967Y006431D01*
X016736Y006431D01*
X016523Y006519D01*
X016450Y006592D02*
X011700Y006592D01*
X011700Y006670D02*
X016371Y006670D01*
X016332Y006749D02*
X011700Y006749D01*
X011700Y006827D02*
X011903Y006827D01*
X012049Y006827D02*
X012129Y006827D01*
X012129Y006800D02*
X012130Y006800D01*
X012214Y006811D01*
X012295Y006833D01*
X012372Y006865D01*
X012445Y006907D01*
X012511Y006958D01*
X012571Y007017D01*
X012622Y007084D01*
X012664Y007156D01*
X012696Y007234D01*
X012718Y007315D01*
X012729Y007398D01*
X012729Y007400D01*
X012129Y007400D01*
X012129Y006800D01*
X012129Y006906D02*
X012049Y006906D01*
X012049Y006984D02*
X012129Y006984D01*
X012129Y007063D02*
X012049Y007063D01*
X012049Y007141D02*
X012129Y007141D01*
X012129Y007220D02*
X012049Y007220D01*
X012049Y007298D02*
X012129Y007298D01*
X012129Y007377D02*
X012049Y007377D01*
X012129Y007455D02*
X013377Y007455D01*
X013377Y007377D02*
X012726Y007377D01*
X012713Y007298D02*
X013380Y007298D01*
X013412Y007220D02*
X012690Y007220D01*
X012655Y007141D02*
X013445Y007141D01*
X013477Y007063D02*
X012606Y007063D01*
X012538Y006984D02*
X013551Y006984D01*
X013630Y006906D02*
X012443Y006906D01*
X012274Y006827D02*
X013760Y006827D01*
X014354Y006827D02*
X016299Y006827D01*
X016271Y006906D02*
X014484Y006906D01*
X014563Y006984D02*
X016271Y006984D01*
X016271Y007063D02*
X014637Y007063D01*
X014669Y007141D02*
X016277Y007141D01*
X016310Y007220D02*
X014702Y007220D01*
X014734Y007298D02*
X016342Y007298D01*
X016397Y007377D02*
X014737Y007377D01*
X014737Y007455D02*
X016475Y007455D01*
X016598Y007534D02*
X014737Y007534D01*
X014722Y007612D02*
X018160Y007612D01*
X018160Y007534D02*
X017104Y007534D01*
X017227Y007455D02*
X018160Y007455D01*
X018160Y007377D02*
X017305Y007377D01*
X017360Y007298D02*
X018160Y007298D01*
X018160Y007220D02*
X017392Y007220D01*
X017425Y007141D02*
X018160Y007141D01*
X018160Y007063D02*
X017431Y007063D01*
X017431Y006984D02*
X018160Y006984D01*
X018160Y006906D02*
X017431Y006906D01*
X017403Y006827D02*
X018160Y006827D01*
X018160Y006749D02*
X017370Y006749D01*
X017331Y006670D02*
X018160Y006670D01*
X018160Y006592D02*
X017252Y006592D01*
X017166Y006513D02*
X018160Y006513D01*
X018160Y006435D02*
X016976Y006435D01*
X017377Y005571D02*
X018160Y005571D01*
X018160Y005493D02*
X017431Y005493D01*
X017431Y005414D02*
X018160Y005414D01*
X018160Y005336D02*
X017431Y005336D01*
X017431Y005257D02*
X018160Y005257D01*
X018160Y005179D02*
X017431Y005179D01*
X017431Y005100D02*
X018160Y005100D01*
X018160Y005022D02*
X017431Y005022D01*
X017431Y004943D02*
X018160Y004943D01*
X018160Y004865D02*
X017431Y004865D01*
X017431Y004786D02*
X018160Y004786D01*
X018160Y004708D02*
X017431Y004708D01*
X017431Y004629D02*
X018160Y004629D01*
X018160Y004551D02*
X017414Y004551D01*
X017336Y004472D02*
X018160Y004472D01*
X018160Y005650D02*
X011700Y005650D01*
X011700Y005728D02*
X018160Y005728D01*
X018160Y005807D02*
X011700Y005807D01*
X011700Y005885D02*
X018160Y005885D01*
X018160Y005964D02*
X011700Y005964D01*
X011700Y006042D02*
X018160Y006042D01*
X018160Y006121D02*
X011700Y006121D01*
X011700Y006199D02*
X018160Y006199D01*
X018160Y006278D02*
X011700Y006278D01*
X011700Y006356D02*
X018160Y006356D01*
X018160Y007691D02*
X014689Y007691D01*
X014657Y007769D02*
X018160Y007769D01*
X018160Y007848D02*
X014611Y007848D01*
X014533Y007926D02*
X018160Y007926D01*
X018160Y008005D02*
X014454Y008005D01*
X014282Y008083D02*
X018160Y008083D01*
X018160Y008162D02*
X013802Y008162D01*
X013724Y008240D02*
X018160Y008240D01*
X018160Y008319D02*
X013645Y008319D01*
X013567Y008397D02*
X018160Y008397D01*
X018160Y008476D02*
X014395Y008476D01*
X014507Y008554D02*
X018160Y008554D01*
X018160Y008633D02*
X014586Y008633D01*
X014651Y008711D02*
X018160Y008711D01*
X018160Y008790D02*
X014684Y008790D01*
X014716Y008868D02*
X018160Y008868D01*
X018160Y008947D02*
X014745Y008947D01*
X014745Y009025D02*
X018160Y009025D01*
X018160Y009104D02*
X014745Y009104D01*
X014745Y009182D02*
X018160Y009182D01*
X018160Y009261D02*
X014721Y009261D01*
X014688Y009339D02*
X018160Y009339D01*
X018160Y009418D02*
X014656Y009418D01*
X014596Y009496D02*
X018160Y009496D01*
X018160Y009575D02*
X014518Y009575D01*
X014420Y009653D02*
X018160Y009653D01*
X018160Y009732D02*
X014231Y009732D01*
X013914Y009732D02*
X013877Y009732D01*
X013799Y009810D02*
X018160Y009810D01*
X018160Y009889D02*
X013720Y009889D01*
X013642Y009967D02*
X018160Y009967D01*
X018160Y010046D02*
X013563Y010046D01*
X013485Y010124D02*
X018160Y010124D01*
X018160Y010203D02*
X013430Y010203D01*
X013430Y010281D02*
X018160Y010281D01*
X018160Y010360D02*
X013430Y010360D01*
X013430Y010438D02*
X018160Y010438D01*
X018160Y010517D02*
X013430Y010517D01*
X013430Y010595D02*
X018160Y010595D01*
X018160Y010674D02*
X013430Y010674D01*
X013430Y010752D02*
X018160Y010752D01*
X018160Y010831D02*
X013430Y010831D01*
X013430Y010909D02*
X018160Y010909D01*
X018160Y010988D02*
X013430Y010988D01*
X013430Y011066D02*
X018160Y011066D01*
X018160Y011145D02*
X013430Y011145D01*
X013430Y011223D02*
X018160Y011223D01*
X018160Y011302D02*
X013430Y011302D01*
X013430Y011380D02*
X018160Y011380D01*
X018160Y011459D02*
X013430Y011459D01*
X013430Y011537D02*
X018160Y011537D01*
X018160Y011616D02*
X013430Y011616D01*
X013430Y011694D02*
X018160Y011694D01*
X018160Y011773D02*
X013430Y011773D01*
X013430Y011851D02*
X018160Y011851D01*
X018160Y011930D02*
X013430Y011930D01*
X013430Y012008D02*
X018160Y012008D01*
X018160Y012087D02*
X013430Y012087D01*
X013430Y012165D02*
X018160Y012165D01*
X018160Y012244D02*
X013430Y012244D01*
X013430Y012322D02*
X018160Y012322D01*
X018160Y012401D02*
X013430Y012401D01*
X013430Y012479D02*
X018160Y012479D01*
X018160Y012558D02*
X013430Y012558D01*
X013430Y012636D02*
X018160Y012636D01*
X018160Y012715D02*
X013430Y012715D01*
X013430Y012793D02*
X018160Y012793D01*
X018160Y012872D02*
X013430Y012872D01*
X013430Y012950D02*
X018160Y012950D01*
X018160Y013029D02*
X013430Y013029D01*
X013430Y013107D02*
X018160Y013107D01*
X018160Y013186D02*
X013430Y013186D01*
X013430Y013264D02*
X018160Y013264D01*
X018160Y013343D02*
X013430Y013343D01*
X013430Y013421D02*
X018160Y013421D01*
X018160Y013500D02*
X013430Y013500D01*
X013430Y013578D02*
X018160Y013578D01*
X018160Y013657D02*
X013430Y013657D01*
X013430Y013735D02*
X018160Y013735D01*
X018160Y013814D02*
X013430Y013814D01*
X013430Y013892D02*
X018160Y013892D01*
X018160Y013971D02*
X013430Y013971D01*
X013430Y014049D02*
X018160Y014049D01*
X018160Y014128D02*
X013430Y014128D01*
X013430Y014206D02*
X018160Y014206D01*
X018160Y014285D02*
X013430Y014285D01*
X013430Y014363D02*
X018160Y014363D01*
X018160Y014442D02*
X013430Y014442D01*
X013430Y014520D02*
X018160Y014520D01*
X018160Y014599D02*
X014611Y014599D01*
X014619Y014600D02*
X014651Y014619D01*
X014677Y014645D01*
X014695Y014677D01*
X018160Y014677D01*
X018160Y014756D02*
X016424Y014756D01*
X016398Y014745D02*
X016580Y014820D01*
X016720Y014960D01*
X016795Y015142D01*
X016795Y015338D01*
X016720Y015520D01*
X016580Y015660D01*
X016398Y015735D01*
X016202Y015735D01*
X016020Y015660D01*
X015880Y015520D01*
X015805Y015338D01*
X015805Y015142D01*
X015880Y014960D01*
X016020Y014820D01*
X016202Y014745D01*
X016398Y014745D01*
X016594Y014834D02*
X017062Y014834D01*
X017112Y014785D02*
X017260Y014785D01*
X017260Y015200D01*
X017340Y015200D01*
X017340Y015280D01*
X017755Y015280D01*
X017755Y015428D01*
X017488Y015695D01*
X017340Y015695D01*
X017340Y015280D01*
X017260Y015280D01*
X017260Y015695D01*
X017112Y015695D01*
X016845Y015428D01*
X016845Y015280D01*
X017260Y015280D01*
X017260Y015200D01*
X016845Y015200D01*
X016845Y015052D01*
X017112Y014785D01*
X017260Y014834D02*
X017340Y014834D01*
X017340Y014785D02*
X017488Y014785D01*
X017755Y015052D01*
X017755Y015200D01*
X017340Y015200D01*
X017340Y014785D01*
X017340Y014913D02*
X017260Y014913D01*
X017260Y014991D02*
X017340Y014991D01*
X017340Y015070D02*
X017260Y015070D01*
X017260Y015148D02*
X017340Y015148D01*
X017340Y015227D02*
X018160Y015227D01*
X018160Y015305D02*
X017755Y015305D01*
X017755Y015384D02*
X018160Y015384D01*
X018160Y015462D02*
X017721Y015462D01*
X017643Y015541D02*
X018127Y015541D01*
X018069Y015619D02*
X017564Y015619D01*
X017340Y015619D02*
X017260Y015619D01*
X017260Y015541D02*
X017340Y015541D01*
X017340Y015462D02*
X017260Y015462D01*
X017260Y015384D02*
X017340Y015384D01*
X017340Y015305D02*
X017260Y015305D01*
X017260Y015227D02*
X016795Y015227D01*
X016795Y015305D02*
X016845Y015305D01*
X016845Y015384D02*
X016776Y015384D01*
X016744Y015462D02*
X016879Y015462D01*
X016957Y015541D02*
X016699Y015541D01*
X016621Y015619D02*
X017036Y015619D01*
X016845Y015148D02*
X016795Y015148D01*
X016765Y015070D02*
X016845Y015070D01*
X016905Y014991D02*
X016733Y014991D01*
X016673Y014913D02*
X016984Y014913D01*
X017538Y014834D02*
X018160Y014834D01*
X018160Y014913D02*
X017616Y014913D01*
X017695Y014991D02*
X018160Y014991D01*
X018160Y015070D02*
X017755Y015070D01*
X017755Y015148D02*
X018160Y015148D01*
X018012Y015698D02*
X016489Y015698D01*
X016111Y015698D02*
X014705Y015698D01*
X014705Y015734D02*
X014695Y015769D01*
X014677Y015801D01*
X014651Y015827D01*
X014619Y015846D01*
X014583Y015855D01*
X014112Y015855D01*
X014112Y015263D01*
X014032Y015263D01*
X014032Y015183D01*
X013440Y015183D01*
X013440Y014713D01*
X013450Y014677D01*
X013468Y014645D01*
X013494Y014619D01*
X013526Y014600D01*
X013562Y014591D01*
X014032Y014591D01*
X014032Y015183D01*
X014112Y015183D01*
X014112Y014591D01*
X014583Y014591D01*
X014619Y014600D01*
X014695Y014677D02*
X014705Y014713D01*
X014705Y015183D01*
X014112Y015183D01*
X014112Y015263D01*
X014705Y015263D01*
X014705Y015734D01*
X014691Y015776D02*
X017954Y015776D01*
X017897Y015855D02*
X014585Y015855D01*
X014705Y015619D02*
X015979Y015619D01*
X015901Y015541D02*
X014705Y015541D01*
X014705Y015462D02*
X015856Y015462D01*
X015824Y015384D02*
X014705Y015384D01*
X014705Y015305D02*
X015805Y015305D01*
X015805Y015227D02*
X014112Y015227D01*
X014112Y015305D02*
X014032Y015305D01*
X014032Y015263D02*
X014032Y015855D01*
X013562Y015855D01*
X013526Y015846D01*
X013494Y015827D01*
X013468Y015801D01*
X013450Y015769D01*
X013440Y015734D01*
X013440Y015263D01*
X014032Y015263D01*
X014032Y015227D02*
X013430Y015227D01*
X013430Y015305D02*
X013440Y015305D01*
X013430Y015384D02*
X013440Y015384D01*
X013430Y015462D02*
X013440Y015462D01*
X013430Y015541D02*
X013440Y015541D01*
X013430Y015619D02*
X013440Y015619D01*
X013430Y015698D02*
X013440Y015698D01*
X013430Y015776D02*
X013454Y015776D01*
X013481Y015855D02*
X013559Y015855D01*
X013560Y015933D02*
X017834Y015933D01*
X017768Y016012D02*
X013638Y016012D01*
X013717Y016090D02*
X017702Y016090D01*
X017636Y016169D02*
X013795Y016169D01*
X013874Y016247D02*
X017571Y016247D01*
X017505Y016326D02*
X013952Y016326D01*
X014001Y016404D02*
X017439Y016404D01*
X017373Y016483D02*
X014030Y016483D01*
X014032Y015855D02*
X014112Y015855D01*
X014112Y015776D02*
X014032Y015776D01*
X014032Y015698D02*
X014112Y015698D01*
X014112Y015619D02*
X014032Y015619D01*
X014032Y015541D02*
X014112Y015541D01*
X014112Y015462D02*
X014032Y015462D01*
X014032Y015384D02*
X014112Y015384D01*
X014112Y015148D02*
X014032Y015148D01*
X014032Y015070D02*
X014112Y015070D01*
X014112Y014991D02*
X014032Y014991D01*
X014032Y014913D02*
X014112Y014913D01*
X014112Y014834D02*
X014032Y014834D01*
X014032Y014756D02*
X014112Y014756D01*
X014112Y014677D02*
X014032Y014677D01*
X014032Y014599D02*
X014112Y014599D01*
X013534Y014599D02*
X013430Y014599D01*
X013430Y014677D02*
X013450Y014677D01*
X013440Y014756D02*
X013430Y014756D01*
X013430Y014834D02*
X013440Y014834D01*
X013430Y014913D02*
X013440Y014913D01*
X013430Y014991D02*
X013440Y014991D01*
X013430Y015070D02*
X013440Y015070D01*
X013430Y015148D02*
X013440Y015148D01*
X014705Y015148D02*
X015805Y015148D01*
X015835Y015070D02*
X014705Y015070D01*
X014705Y014991D02*
X015867Y014991D01*
X015927Y014913D02*
X014705Y014913D01*
X014705Y014834D02*
X016006Y014834D01*
X016176Y014756D02*
X014705Y014756D01*
X014801Y016561D02*
X017307Y016561D01*
X017241Y016640D02*
X014903Y016640D01*
X014982Y016718D02*
X017175Y016718D01*
X017104Y016797D02*
X015678Y016797D01*
X015788Y016875D02*
X017026Y016875D01*
X016947Y016954D02*
X015840Y016954D01*
X015870Y017032D02*
X016869Y017032D01*
X016790Y017111D02*
X015870Y017111D01*
X015872Y017189D02*
X016712Y017189D01*
X016633Y017268D02*
X015931Y017268D01*
X015931Y017346D02*
X016555Y017346D01*
X016476Y017425D02*
X015931Y017425D01*
X015931Y017503D02*
X016398Y017503D01*
X016318Y017582D02*
X015931Y017582D01*
X015931Y017660D02*
X016225Y017660D01*
X016131Y017739D02*
X015931Y017739D01*
X015931Y017817D02*
X016038Y017817D01*
X015944Y017896D02*
X015867Y017896D01*
X015851Y017974D02*
X014605Y017974D01*
X014650Y018053D02*
X015757Y018053D01*
X015663Y018131D02*
X014690Y018131D01*
X014690Y018210D02*
X015570Y018210D01*
X015476Y018288D02*
X014690Y018288D01*
X014690Y018367D02*
X015374Y018367D01*
X015267Y018445D02*
X014690Y018445D01*
X014690Y018524D02*
X015159Y018524D01*
X015158Y017896D02*
X015242Y017896D01*
X015238Y017189D02*
X015162Y017189D01*
X015095Y017111D02*
X015230Y017111D01*
X015230Y017032D02*
X015095Y017032D01*
X015095Y016954D02*
X015260Y016954D01*
X015312Y016875D02*
X015091Y016875D01*
X015058Y016797D02*
X015422Y016797D01*
X014595Y017111D02*
X013968Y017111D01*
X013824Y017189D02*
X014528Y017189D01*
X014469Y017268D02*
X009650Y017268D01*
X009650Y017346D02*
X014469Y017346D01*
X014469Y017425D02*
X009650Y017425D01*
X009650Y017503D02*
X014469Y017503D01*
X014469Y017582D02*
X009650Y017582D01*
X009650Y017660D02*
X014469Y017660D01*
X014469Y017739D02*
X009650Y017739D01*
X009650Y017189D02*
X011213Y017189D01*
X011069Y017111D02*
X010899Y017111D01*
X010926Y017032D02*
X010991Y017032D01*
X010955Y016954D02*
X010926Y016954D01*
X010926Y016640D02*
X010949Y016640D01*
X010926Y016561D02*
X010982Y016561D01*
X011056Y016483D02*
X010907Y016483D01*
X011182Y016404D02*
X009650Y016404D01*
X009650Y016326D02*
X012199Y016326D01*
X012170Y016247D02*
X009650Y016247D01*
X009650Y016169D02*
X012170Y016169D01*
X012170Y016090D02*
X009650Y016090D01*
X009650Y016012D02*
X012170Y016012D01*
X012170Y015933D02*
X009650Y015933D01*
X009685Y015855D02*
X012170Y015855D01*
X012170Y015776D02*
X009764Y015776D01*
X009842Y015698D02*
X012170Y015698D01*
X012170Y015619D02*
X009921Y015619D01*
X009999Y015541D02*
X012170Y015541D01*
X012170Y015462D02*
X010078Y015462D01*
X010156Y015384D02*
X012170Y015384D01*
X012170Y015305D02*
X010235Y015305D01*
X010313Y015227D02*
X012170Y015227D01*
X012170Y015148D02*
X010392Y015148D01*
X010470Y015070D02*
X012170Y015070D01*
X012170Y014991D02*
X010549Y014991D01*
X010627Y014913D02*
X012170Y014913D01*
X012170Y014834D02*
X010706Y014834D01*
X010784Y014756D02*
X012170Y014756D01*
X012170Y014677D02*
X010863Y014677D01*
X010941Y014599D02*
X012170Y014599D01*
X012170Y014520D02*
X011020Y014520D01*
X011098Y014442D02*
X012170Y014442D01*
X012170Y014363D02*
X011177Y014363D01*
X011255Y014285D02*
X012170Y014285D01*
X012170Y014206D02*
X011334Y014206D01*
X011412Y014128D02*
X012170Y014128D01*
X012170Y014049D02*
X011491Y014049D01*
X011569Y013971D02*
X012170Y013971D01*
X012170Y013892D02*
X011648Y013892D01*
X011700Y013814D02*
X012170Y013814D01*
X012170Y013735D02*
X011700Y013735D01*
X011700Y013657D02*
X012170Y013657D01*
X012170Y013578D02*
X011700Y013578D01*
X011700Y013500D02*
X012170Y013500D01*
X012170Y013421D02*
X011700Y013421D01*
X011700Y013343D02*
X012170Y013343D01*
X012170Y013264D02*
X011700Y013264D01*
X011700Y013186D02*
X012170Y013186D01*
X012170Y013107D02*
X011700Y013107D01*
X011700Y013029D02*
X012170Y013029D01*
X012170Y012950D02*
X011700Y012950D01*
X011700Y012872D02*
X012170Y012872D01*
X012170Y012793D02*
X011700Y012793D01*
X011700Y012715D02*
X012170Y012715D01*
X012170Y012636D02*
X011700Y012636D01*
X011700Y012558D02*
X012170Y012558D01*
X012170Y012479D02*
X011700Y012479D01*
X011700Y012401D02*
X012170Y012401D01*
X012170Y012322D02*
X011700Y012322D01*
X011700Y012244D02*
X012170Y012244D01*
X012170Y012165D02*
X011700Y012165D01*
X011700Y012087D02*
X012170Y012087D01*
X012170Y012008D02*
X011700Y012008D01*
X011700Y011930D02*
X012170Y011930D01*
X012170Y011851D02*
X011700Y011851D01*
X011700Y011773D02*
X012170Y011773D01*
X012170Y011694D02*
X011700Y011694D01*
X011700Y011616D02*
X012170Y011616D01*
X012170Y011537D02*
X011700Y011537D01*
X011700Y011459D02*
X012170Y011459D01*
X012170Y011380D02*
X011700Y011380D01*
X011700Y011302D02*
X012170Y011302D01*
X012170Y011223D02*
X011700Y011223D01*
X011700Y011145D02*
X012170Y011145D01*
X012170Y011066D02*
X011700Y011066D01*
X011700Y010988D02*
X012170Y010988D01*
X012170Y010909D02*
X011700Y010909D01*
X011700Y010831D02*
X012170Y010831D01*
X012170Y010752D02*
X011700Y010752D01*
X011700Y010674D02*
X012170Y010674D01*
X012170Y010595D02*
X011700Y010595D01*
X011700Y010517D02*
X012170Y010517D01*
X012170Y010438D02*
X011700Y010438D01*
X011700Y010360D02*
X012170Y010360D01*
X012170Y010281D02*
X011700Y010281D01*
X011700Y010203D02*
X012170Y010203D01*
X012170Y010124D02*
X011700Y010124D01*
X011700Y010046D02*
X012170Y010046D01*
X012170Y009967D02*
X011700Y009967D01*
X011700Y009889D02*
X012170Y009889D01*
X012170Y009810D02*
X011700Y009810D01*
X011700Y009732D02*
X012170Y009732D01*
X012170Y009653D02*
X011700Y009653D01*
X011700Y009575D02*
X012170Y009575D01*
X012170Y009496D02*
X011700Y009496D01*
X011700Y009418D02*
X012170Y009418D01*
X012170Y009339D02*
X011700Y009339D01*
X011700Y009261D02*
X012170Y009261D01*
X012170Y009182D02*
X011700Y009182D01*
X011700Y009104D02*
X012170Y009104D01*
X012170Y009025D02*
X011700Y009025D01*
X011700Y008947D02*
X012170Y008947D01*
X012196Y008868D02*
X011700Y008868D01*
X011700Y008790D02*
X012241Y008790D01*
X012319Y008711D02*
X011700Y008711D01*
X011700Y008633D02*
X012398Y008633D01*
X012476Y008554D02*
X011700Y008554D01*
X011700Y008476D02*
X012555Y008476D01*
X012633Y008397D02*
X011700Y008397D01*
X011700Y008319D02*
X012712Y008319D01*
X012790Y008240D02*
X011700Y008240D01*
X011700Y008162D02*
X012869Y008162D01*
X012947Y008083D02*
X011700Y008083D01*
X011700Y008005D02*
X011786Y008005D01*
X012049Y008005D02*
X012129Y008005D01*
X012129Y007926D02*
X012049Y007926D01*
X012049Y007848D02*
X012129Y007848D01*
X012129Y007769D02*
X012049Y007769D01*
X012049Y007691D02*
X012129Y007691D01*
X012129Y007612D02*
X012049Y007612D01*
X012049Y007534D02*
X012129Y007534D01*
X012391Y008005D02*
X013026Y008005D01*
X013104Y007926D02*
X012506Y007926D01*
X012583Y007848D02*
X013183Y007848D01*
X013261Y007769D02*
X012638Y007769D01*
X012677Y007691D02*
X013340Y007691D01*
X013392Y007612D02*
X012705Y007612D01*
X012722Y007534D02*
X013377Y007534D01*
X013488Y008476D02*
X013750Y008476D01*
X013637Y008554D02*
X013410Y008554D01*
X013331Y008633D02*
X013559Y008633D01*
X013493Y008711D02*
X013253Y008711D01*
X013174Y008790D02*
X013461Y008790D01*
X013428Y008868D02*
X013096Y008868D01*
X013017Y008947D02*
X013400Y008947D01*
X013400Y009025D02*
X012939Y009025D01*
X012860Y009104D02*
X013400Y009104D01*
X013400Y009182D02*
X012830Y009182D01*
X012830Y009261D02*
X013415Y009261D01*
X013336Y009339D02*
X012830Y009339D01*
X012830Y009418D02*
X013258Y009418D01*
X013179Y009496D02*
X012830Y009496D01*
X012830Y009575D02*
X013101Y009575D01*
X013022Y009653D02*
X012830Y009653D01*
X012830Y009732D02*
X012944Y009732D01*
X012865Y009810D02*
X012830Y009810D01*
X011419Y010840D02*
X011419Y005740D01*
X011417Y005706D01*
X011411Y005673D01*
X011402Y005641D01*
X011389Y005610D01*
X011373Y005580D01*
X011354Y005553D01*
X011331Y005528D01*
X011306Y005505D01*
X011279Y005486D01*
X011249Y005470D01*
X011218Y005457D01*
X011186Y005448D01*
X011153Y005442D01*
X011119Y005440D01*
X011085Y005442D01*
X011052Y005448D01*
X011020Y005457D01*
X010989Y005470D01*
X010959Y005486D01*
X010932Y005505D01*
X010907Y005528D01*
X010884Y005553D01*
X010865Y005580D01*
X010849Y005610D01*
X010836Y005641D01*
X010827Y005673D01*
X010821Y005706D01*
X010819Y005740D01*
X010819Y010840D01*
X010821Y010874D01*
X010827Y010907D01*
X010836Y010939D01*
X010849Y010970D01*
X010865Y011000D01*
X010884Y011027D01*
X010907Y011052D01*
X010932Y011075D01*
X010959Y011094D01*
X010989Y011110D01*
X011020Y011123D01*
X011052Y011132D01*
X011085Y011138D01*
X011119Y011140D01*
X011153Y011138D01*
X011186Y011132D01*
X011218Y011123D01*
X011249Y011110D01*
X011279Y011094D01*
X011306Y011075D01*
X011331Y011052D01*
X011354Y011027D01*
X011373Y011000D01*
X011389Y010970D01*
X011402Y010939D01*
X011411Y010907D01*
X011417Y010874D01*
X011419Y010840D01*
X009450Y009090D02*
X009450Y005740D01*
X009448Y005706D01*
X009442Y005673D01*
X009433Y005641D01*
X009420Y005610D01*
X009404Y005580D01*
X009385Y005553D01*
X009362Y005528D01*
X009337Y005505D01*
X009310Y005486D01*
X009280Y005470D01*
X009249Y005457D01*
X009217Y005448D01*
X009184Y005442D01*
X009150Y005440D01*
X009116Y005442D01*
X009083Y005448D01*
X009051Y005457D01*
X009020Y005470D01*
X008990Y005486D01*
X008963Y005505D01*
X008938Y005528D01*
X008915Y005553D01*
X008896Y005580D01*
X008880Y005610D01*
X008867Y005641D01*
X008858Y005673D01*
X008852Y005706D01*
X008850Y005740D01*
X008850Y009140D01*
X008855Y009173D01*
X008863Y009206D01*
X008875Y009238D01*
X008891Y009268D01*
X008909Y009296D01*
X008931Y009322D01*
X008956Y009345D01*
X008983Y009365D01*
X009012Y009382D01*
X009042Y009396D01*
X009075Y009406D01*
X009108Y009413D01*
X009141Y009416D01*
X009175Y009415D01*
X009208Y009410D01*
X009241Y009402D01*
X009273Y009390D01*
X009303Y009374D01*
X009331Y009356D01*
X009357Y009334D01*
X009380Y009309D01*
X009400Y009282D01*
X009417Y009253D01*
X009431Y009223D01*
X009441Y009190D01*
X009448Y009157D01*
X009451Y009124D01*
X009450Y009090D01*
X011700Y006906D02*
X011734Y006906D01*
X011700Y002431D02*
X015685Y002431D01*
X015700Y002353D02*
X011700Y002353D01*
X011700Y002274D02*
X015732Y002274D01*
X015765Y002196D02*
X011700Y002196D01*
X011700Y002117D02*
X015797Y002117D01*
X015870Y002039D02*
X011700Y002039D01*
X011700Y001960D02*
X015948Y001960D01*
X016041Y001882D02*
X011700Y001882D01*
X011700Y001803D02*
X016230Y001803D01*
X016325Y001704D02*
X016325Y001704D01*
X016345Y001725D02*
X011700Y001725D01*
X011700Y001646D02*
X016256Y001646D01*
X016162Y001568D02*
X011700Y001568D01*
X011700Y001489D02*
X016069Y001489D01*
X015975Y001411D02*
X011700Y001411D01*
X011700Y001332D02*
X015882Y001332D01*
X015788Y001254D02*
X011700Y001254D01*
X011700Y001175D02*
X015694Y001175D01*
X015601Y001097D02*
X011700Y001097D01*
X011700Y001018D02*
X015507Y001018D01*
X015409Y000940D02*
X011700Y000940D01*
X011700Y000861D02*
X015302Y000861D01*
X015195Y000783D02*
X011700Y000783D01*
X011700Y000704D02*
X015088Y000704D01*
X017215Y002667D02*
X017263Y002667D01*
X017329Y002745D02*
X017193Y002745D01*
X017161Y002824D02*
X017395Y002824D01*
X017461Y002902D02*
X017128Y002902D01*
X017091Y002981D02*
X017527Y002981D01*
X017592Y003059D02*
X017013Y003059D01*
X016934Y003138D02*
X017658Y003138D01*
X017724Y003216D02*
X016817Y003216D01*
X016627Y003295D02*
X017790Y003295D01*
X005550Y011840D02*
X001700Y011840D01*
X001666Y011842D01*
X001633Y011848D01*
X001601Y011857D01*
X001570Y011870D01*
X001540Y011886D01*
X001513Y011905D01*
X001488Y011928D01*
X001465Y011953D01*
X001446Y011980D01*
X001430Y012010D01*
X001417Y012041D01*
X001408Y012073D01*
X001402Y012106D01*
X001400Y012140D01*
X001402Y012174D01*
X001408Y012207D01*
X001417Y012239D01*
X001430Y012270D01*
X001446Y012300D01*
X001465Y012327D01*
X001488Y012352D01*
X001513Y012375D01*
X001540Y012394D01*
X001570Y012410D01*
X001601Y012423D01*
X001633Y012432D01*
X001666Y012438D01*
X001700Y012440D01*
X005550Y012440D01*
X005584Y012438D01*
X005617Y012432D01*
X005649Y012423D01*
X005680Y012410D01*
X005710Y012394D01*
X005737Y012375D01*
X005762Y012352D01*
X005785Y012327D01*
X005804Y012300D01*
X005820Y012270D01*
X005833Y012239D01*
X005842Y012207D01*
X005848Y012174D01*
X005850Y012140D01*
X005848Y012106D01*
X005842Y012073D01*
X005833Y012041D01*
X005820Y012010D01*
X005804Y011980D01*
X005785Y011953D01*
X005762Y011928D01*
X005737Y011905D01*
X005710Y011886D01*
X005680Y011870D01*
X005649Y011857D01*
X005617Y011848D01*
X005584Y011842D01*
X005550Y011840D01*
X009650Y016483D02*
X010193Y016483D01*
X010202Y016468D02*
X010228Y016442D01*
X010260Y016423D01*
X010295Y016414D01*
X010511Y016414D01*
X010511Y016751D01*
X010174Y016751D01*
X010174Y016535D01*
X010183Y016500D01*
X010202Y016468D01*
X010174Y016561D02*
X009650Y016561D01*
X009650Y016640D02*
X010174Y016640D01*
X010174Y016718D02*
X009650Y016718D01*
X009650Y016797D02*
X010511Y016797D01*
X010511Y016875D02*
X010589Y016875D01*
X010589Y016954D02*
X010511Y016954D01*
X010511Y017032D02*
X010589Y017032D01*
X010589Y017111D02*
X010511Y017111D01*
X010201Y017111D02*
X009650Y017111D01*
X009650Y017032D02*
X010174Y017032D01*
X010174Y016954D02*
X009650Y016954D01*
X009650Y016875D02*
X010174Y016875D01*
X010511Y016718D02*
X010589Y016718D01*
X010589Y016640D02*
X010511Y016640D01*
X010511Y016561D02*
X010589Y016561D01*
X010589Y016483D02*
X010511Y016483D01*
X011462Y017189D02*
X012001Y017189D01*
X011857Y017111D02*
X011605Y017111D01*
X011684Y017032D02*
X011778Y017032D01*
X011742Y016954D02*
X011720Y016954D01*
X011726Y016640D02*
X011737Y016640D01*
X011769Y016561D02*
X011693Y016561D01*
X011619Y016483D02*
X011844Y016483D01*
X011969Y016404D02*
X011493Y016404D01*
X012249Y017189D02*
X012788Y017189D01*
X012644Y017111D02*
X012393Y017111D01*
X012471Y017032D02*
X012566Y017032D01*
X012529Y016954D02*
X012508Y016954D01*
X013036Y017189D02*
X013575Y017189D01*
X013432Y017111D02*
X013180Y017111D01*
X013259Y017032D02*
X013353Y017032D01*
X013317Y016954D02*
X013295Y016954D01*
X014397Y017817D02*
X014469Y017817D01*
D13*
X002773Y013176D03*
X002773Y011117D03*
D14*
X014072Y009070D03*
D15*
X014072Y015223D03*
D16*
X016851Y005042D03*
D17*
X016851Y007011D03*
D18*
X008151Y007440D03*
D19*
X010120Y007440D03*
X012089Y007440D03*
X014057Y007440D03*
D20*
X010550Y016790D03*
D21*
X011337Y016790D03*
X012125Y016790D03*
X012912Y016790D03*
X013700Y016790D03*
D22*
X014845Y017540D03*
X015555Y017540D03*
D23*
X016300Y015240D03*
D24*
X017300Y015240D03*
D25*
X003218Y016672D03*
D26*
X003217Y016674D03*
X003459Y016888D03*
X003459Y016890D03*
X003461Y016896D03*
X003461Y016898D03*
X006623Y016962D03*
D27*
X007400Y017387D03*
X007794Y017387D03*
X004717Y017387D03*
X003422Y017387D03*
X003215Y016676D03*
D28*
X003214Y016678D03*
X003075Y017053D03*
X004915Y017530D03*
X005080Y017053D03*
X005943Y017417D03*
X006098Y016946D03*
X006970Y017075D03*
D29*
X005963Y017429D03*
X003212Y016680D03*
D30*
X003212Y016682D03*
X004858Y017224D03*
X004895Y017244D03*
X004913Y017254D03*
X004945Y017272D03*
X004985Y017294D03*
X005003Y017304D03*
X005017Y017312D03*
X005040Y017324D03*
X005058Y017334D03*
X005072Y017342D03*
X005090Y017353D03*
X007137Y016964D03*
D31*
X003210Y016684D03*
D32*
X003209Y016686D03*
X005419Y017294D03*
X007122Y017497D03*
X007122Y016976D03*
D33*
X003209Y016688D03*
D34*
X003207Y016690D03*
X003235Y017512D03*
X005439Y017284D03*
X005598Y017200D03*
X007108Y016992D03*
X007108Y017481D03*
X007597Y017512D03*
X007597Y016962D03*
D35*
X003206Y016692D03*
D36*
X003206Y016694D03*
X005464Y017272D03*
X006094Y016976D03*
X007095Y017010D03*
X007095Y017463D03*
D37*
X003204Y016696D03*
D38*
X003204Y016698D03*
X003220Y016984D03*
X003234Y017497D03*
X005494Y017256D03*
X005499Y017254D03*
X005541Y017230D03*
X006094Y016984D03*
D39*
X003202Y016700D03*
D40*
X003201Y016702D03*
D41*
X003200Y016704D03*
D42*
X003201Y016706D03*
X005558Y017514D03*
X006083Y017008D03*
D43*
X003203Y016708D03*
D44*
X003205Y016710D03*
X007597Y016988D03*
D45*
X003207Y016712D03*
D46*
X003209Y016714D03*
X003195Y017026D03*
X006117Y017489D03*
D47*
X003210Y016716D03*
D48*
X003213Y016718D03*
X003233Y017479D03*
D49*
X003233Y017477D03*
X003215Y016721D03*
D50*
X003216Y016723D03*
D51*
X003218Y016725D03*
D52*
X003220Y016727D03*
X005545Y017503D03*
D53*
X003221Y016729D03*
D54*
X003223Y016731D03*
D55*
X003225Y016733D03*
X004914Y017475D03*
D56*
X003226Y016735D03*
D57*
X003227Y016737D03*
D58*
X003229Y016739D03*
X004916Y017000D03*
X004914Y017471D03*
X005538Y017495D03*
X006117Y017479D03*
X007597Y017471D03*
X007597Y017002D03*
D59*
X003231Y016741D03*
D60*
X003232Y016743D03*
X005476Y016964D03*
D61*
X003233Y016745D03*
D62*
X003234Y016747D03*
X004913Y017469D03*
X006116Y017477D03*
D63*
X005535Y017491D03*
X003236Y016749D03*
D64*
X003237Y016751D03*
D65*
X003238Y016753D03*
X004915Y017004D03*
D66*
X003239Y016755D03*
D67*
X003241Y016757D03*
D68*
X003242Y016759D03*
X004913Y017465D03*
X005482Y016970D03*
X006116Y017473D03*
X007596Y017465D03*
X007596Y017008D03*
D69*
X003243Y016761D03*
D70*
X003244Y016763D03*
D71*
X003246Y016765D03*
D72*
X003247Y016767D03*
D73*
X003248Y016769D03*
D74*
X003250Y016771D03*
X004913Y017461D03*
X005527Y017477D03*
D75*
X005526Y017475D03*
X003251Y016773D03*
D76*
X003114Y016775D03*
X003050Y017073D03*
X003050Y017401D03*
X003412Y016807D03*
X005105Y017075D03*
X006623Y017032D03*
X006945Y017099D03*
X006945Y017375D03*
D77*
X007017Y017423D03*
X007017Y017051D03*
X005407Y017300D03*
X003350Y016775D03*
D78*
X003433Y016833D03*
X003105Y016777D03*
X003447Y017344D03*
X003236Y017534D03*
X003739Y017630D03*
X003739Y017683D03*
X004689Y017342D03*
X004687Y017135D03*
X004687Y017133D03*
X004689Y017131D03*
X005146Y017149D03*
X005146Y017151D03*
X005341Y017351D03*
X005696Y017069D03*
X005897Y017117D03*
X005885Y017334D03*
X005889Y017342D03*
X005889Y017344D03*
X006624Y017051D03*
X006624Y016970D03*
X006918Y017143D03*
X006916Y017147D03*
X006916Y017149D03*
X006914Y017320D03*
X006916Y017324D03*
X006916Y017326D03*
X006918Y017328D03*
X006920Y017334D03*
X007370Y017336D03*
X007372Y017342D03*
X007368Y017141D03*
X007370Y017135D03*
X007372Y017133D03*
X007372Y017131D03*
X007819Y017129D03*
X007821Y017133D03*
X007821Y017135D03*
X007823Y017139D03*
X007825Y017143D03*
X007823Y017334D03*
X007823Y017336D03*
X007819Y017344D03*
X008059Y017393D03*
X008369Y017359D03*
X008369Y017353D03*
X008679Y017393D03*
X008681Y017391D03*
D79*
X005087Y017351D03*
X005043Y017326D03*
X005033Y017320D03*
X005024Y017316D03*
X005010Y017308D03*
X004988Y017296D03*
X004974Y017288D03*
X004970Y017286D03*
X004960Y017280D03*
X004956Y017278D03*
X004952Y017276D03*
X004942Y017270D03*
X004938Y017268D03*
X004928Y017262D03*
X004924Y017260D03*
X004910Y017252D03*
X004898Y017246D03*
X004888Y017240D03*
X004880Y017236D03*
X004874Y017232D03*
X004865Y017228D03*
X003360Y016777D03*
D80*
X003461Y016900D03*
X003100Y016779D03*
D81*
X003366Y016779D03*
D82*
X003094Y016781D03*
D83*
X003372Y016781D03*
X005099Y017363D03*
X007146Y017516D03*
D84*
X005147Y017208D03*
X004825Y017173D03*
X003332Y017045D03*
X003090Y016783D03*
D85*
X003377Y016783D03*
X008200Y017522D03*
D86*
X003085Y016785D03*
D87*
X003081Y017049D03*
X003381Y016785D03*
X005068Y017425D03*
X005374Y017318D03*
X005953Y017423D03*
X007443Y017425D03*
X007751Y017425D03*
X007751Y017049D03*
X007443Y017049D03*
D88*
X003082Y016787D03*
D89*
X003385Y016787D03*
D90*
X003078Y016789D03*
D91*
X003389Y016789D03*
X003391Y017419D03*
X004750Y017419D03*
X005076Y017419D03*
X007433Y017419D03*
X007761Y017419D03*
D92*
X003350Y017059D03*
X003074Y016791D03*
D93*
X003069Y017057D03*
X003391Y016791D03*
X003395Y017415D03*
X004744Y017415D03*
X004844Y017204D03*
X004744Y017059D03*
X005941Y017415D03*
X007431Y017417D03*
X007763Y017417D03*
X007763Y017057D03*
X007431Y017057D03*
X008200Y017526D03*
X008538Y017526D03*
D94*
X003070Y016793D03*
D95*
X003395Y016793D03*
X004742Y017061D03*
X005676Y017157D03*
X006964Y017393D03*
X008369Y017393D03*
X008649Y017431D03*
D96*
X003067Y016795D03*
D97*
X003398Y016795D03*
X005091Y017405D03*
D98*
X003063Y016797D03*
D99*
X003400Y016797D03*
X004731Y017403D03*
X005928Y017403D03*
X006957Y017387D03*
X007164Y017524D03*
X008084Y017427D03*
X008654Y017427D03*
D100*
X006249Y017101D03*
X006249Y017099D03*
X004806Y017143D03*
X003059Y016799D03*
D101*
X003057Y017067D03*
X003403Y016799D03*
X003405Y016801D03*
X003411Y017401D03*
X005933Y017069D03*
X006624Y017020D03*
X006624Y017018D03*
X006624Y017016D03*
X006624Y017012D03*
X006624Y017010D03*
X006624Y017008D03*
X006624Y017004D03*
X006624Y017002D03*
X006624Y017000D03*
X006952Y017091D03*
X007413Y017073D03*
X007413Y017401D03*
D102*
X003371Y017081D03*
X003055Y016801D03*
D103*
X003407Y016803D03*
X003055Y017405D03*
X007409Y017397D03*
D104*
X003410Y016805D03*
X003052Y017403D03*
D105*
X003042Y017081D03*
X003414Y016809D03*
X003424Y017385D03*
X004715Y017385D03*
X004715Y017089D03*
X005113Y017085D03*
X005351Y017336D03*
X005687Y017057D03*
X005920Y017083D03*
X005912Y017383D03*
X006115Y017534D03*
X006313Y017393D03*
X006315Y017391D03*
X006939Y017367D03*
X006941Y017369D03*
X006939Y017107D03*
X006941Y017105D03*
X007792Y017085D03*
X008074Y017417D03*
X008664Y017417D03*
X008666Y017415D03*
D106*
X007402Y017389D03*
X003416Y016811D03*
D107*
X003418Y016813D03*
X003428Y017379D03*
X003738Y017652D03*
X003738Y017660D03*
X004711Y017379D03*
X005349Y017338D03*
X007394Y017379D03*
X008070Y017411D03*
D108*
X007802Y017375D03*
X007804Y017101D03*
X007802Y017099D03*
X007392Y017099D03*
X007390Y017101D03*
X007392Y017375D03*
X006935Y017361D03*
X006933Y017359D03*
X006933Y017115D03*
X006935Y017113D03*
X006319Y017385D03*
X005906Y017375D03*
X005902Y017369D03*
X005912Y017093D03*
X005914Y017091D03*
X005689Y017059D03*
X005691Y017143D03*
X005351Y017417D03*
X005123Y017101D03*
X005121Y017097D03*
X004709Y017097D03*
X004709Y017377D03*
X003738Y017650D03*
X003738Y017654D03*
X003738Y017658D03*
X003430Y017377D03*
X003430Y017375D03*
X003042Y017391D03*
X003036Y017089D03*
X003420Y016815D03*
D109*
X003421Y016817D03*
X003435Y017369D03*
X003037Y017385D03*
X004703Y017369D03*
X004703Y017105D03*
X004705Y017101D03*
X005122Y017099D03*
X005128Y017109D03*
X005130Y017113D03*
X005350Y017415D03*
X005694Y017139D03*
X005909Y017097D03*
X006624Y017045D03*
X006624Y016978D03*
X006624Y016976D03*
X006930Y017121D03*
X006932Y017117D03*
X006930Y017353D03*
X008067Y017407D03*
X008067Y017409D03*
X008671Y017409D03*
D110*
X006932Y017357D03*
X005348Y017340D03*
X004705Y017373D03*
X003437Y017365D03*
X003035Y017381D03*
X003423Y016819D03*
D111*
X003424Y016821D03*
X003438Y017363D03*
X003034Y017379D03*
X005898Y017363D03*
X007810Y017363D03*
X008674Y017403D03*
D112*
X008672Y017407D03*
X007812Y017359D03*
X007808Y017367D03*
X007812Y017115D03*
X007808Y017109D03*
X007808Y017107D03*
X006929Y017123D03*
X006927Y017125D03*
X006925Y017129D03*
X006925Y017344D03*
X006929Y017351D03*
X006325Y017377D03*
X005898Y017361D03*
X005896Y017359D03*
X005904Y017105D03*
X005906Y017101D03*
X005908Y017099D03*
X005347Y017342D03*
X005135Y017123D03*
X005131Y017115D03*
X004702Y017107D03*
X004700Y017109D03*
X004698Y017113D03*
X004698Y017361D03*
X004702Y017367D03*
X003436Y017367D03*
X003036Y017383D03*
X003032Y017377D03*
X003032Y017093D03*
X003034Y017091D03*
X003426Y016823D03*
D113*
X003427Y016825D03*
X003441Y017359D03*
X003439Y017361D03*
X004697Y017359D03*
X004695Y017117D03*
X004697Y017115D03*
X005132Y017117D03*
X005134Y017121D03*
X005136Y017125D03*
X005138Y017129D03*
X005138Y017131D03*
X005696Y017135D03*
X005893Y017353D03*
X006326Y017375D03*
X006624Y017049D03*
X006922Y017135D03*
X006924Y017131D03*
X006924Y017342D03*
X007380Y017359D03*
X007380Y017117D03*
X007380Y017115D03*
X007811Y017113D03*
X007813Y017117D03*
X007815Y017121D03*
X007815Y017353D03*
X007811Y017361D03*
D114*
X008369Y017365D03*
X003429Y016827D03*
X003029Y017373D03*
D115*
X003446Y017346D03*
X003430Y016829D03*
X004690Y017346D03*
X007818Y017346D03*
X008060Y017395D03*
X008678Y017395D03*
D116*
X008062Y017399D03*
X007820Y017342D03*
X007820Y017131D03*
X007818Y017125D03*
X007373Y017129D03*
X007373Y017344D03*
X006921Y017336D03*
X006919Y017141D03*
X006919Y017139D03*
X005900Y017113D03*
X005898Y017115D03*
X005695Y017067D03*
X005145Y017147D03*
X005143Y017143D03*
X005143Y017141D03*
X005141Y017139D03*
X005139Y017133D03*
X004914Y016940D03*
X004835Y017189D03*
X004694Y017121D03*
X004692Y017123D03*
X004692Y017125D03*
X004690Y017129D03*
X004690Y017344D03*
X004692Y017351D03*
X004694Y017353D03*
X003738Y017679D03*
X003444Y017353D03*
X003444Y017351D03*
X003448Y017342D03*
X003026Y017367D03*
X003432Y016831D03*
D117*
X003435Y016835D03*
X003449Y017340D03*
X003739Y017632D03*
X003739Y017681D03*
X004687Y017340D03*
X005887Y017340D03*
X006332Y017365D03*
X007368Y017332D03*
X007372Y017340D03*
X007821Y017340D03*
X008369Y017357D03*
X008681Y017389D03*
D118*
X008682Y017387D03*
X007367Y017330D03*
X006337Y017355D03*
X006333Y017363D03*
X005884Y017330D03*
X005340Y017355D03*
X005343Y017403D03*
X003738Y017628D03*
X003450Y017338D03*
X003016Y017346D03*
X003012Y017338D03*
X003436Y016837D03*
D119*
X003437Y016839D03*
X003460Y017310D03*
X003460Y017312D03*
X003456Y017324D03*
X003739Y017626D03*
X003739Y017687D03*
X003011Y017336D03*
X003011Y017334D03*
X003011Y017129D03*
X003013Y017125D03*
X003015Y017123D03*
X003015Y017121D03*
X003017Y017117D03*
X004671Y017189D03*
X004673Y017179D03*
X004675Y017171D03*
X004675Y017167D03*
X004677Y017165D03*
X004677Y017163D03*
X004679Y017157D03*
X004679Y017155D03*
X004681Y017151D03*
X004671Y017284D03*
X004673Y017294D03*
X004673Y017296D03*
X004675Y017302D03*
X004675Y017304D03*
X004677Y017308D03*
X004677Y017310D03*
X004677Y017312D03*
X004679Y017316D03*
X004679Y017318D03*
X005156Y017189D03*
X005156Y017187D03*
X005154Y017181D03*
X005154Y017179D03*
X005152Y017171D03*
X005339Y017359D03*
X005339Y017391D03*
X005339Y017393D03*
X005341Y017399D03*
X005702Y017121D03*
X005885Y017143D03*
X005887Y017139D03*
X005889Y017135D03*
X005889Y017133D03*
X005891Y017129D03*
X005879Y017316D03*
X005879Y017318D03*
X005881Y017324D03*
X005883Y017328D03*
X006100Y016940D03*
X006338Y017353D03*
X006624Y016968D03*
X006907Y017171D03*
X006907Y017173D03*
X006905Y017179D03*
X006905Y017181D03*
X006903Y017187D03*
X006903Y017189D03*
X006903Y017284D03*
X006903Y017286D03*
X006905Y017292D03*
X006905Y017294D03*
X006905Y017296D03*
X006907Y017300D03*
X006907Y017302D03*
X006907Y017304D03*
X007356Y017292D03*
X007358Y017300D03*
X007358Y017302D03*
X007360Y017308D03*
X007360Y017310D03*
X007362Y017312D03*
X007362Y017316D03*
X007364Y017320D03*
X007366Y017326D03*
X007356Y017183D03*
X007356Y017181D03*
X007358Y017175D03*
X007358Y017173D03*
X007358Y017171D03*
X007360Y017167D03*
X007360Y017165D03*
X007360Y017163D03*
X007362Y017159D03*
X007362Y017157D03*
X007366Y017147D03*
X007831Y017159D03*
X007831Y017163D03*
X007833Y017165D03*
X007833Y017167D03*
X007835Y017175D03*
X007837Y017187D03*
X007837Y017286D03*
X007835Y017296D03*
X007833Y017304D03*
X007833Y017308D03*
X007831Y017310D03*
X007831Y017312D03*
X008053Y017377D03*
X008369Y017344D03*
X008369Y017342D03*
X008687Y017375D03*
D120*
X008682Y017385D03*
X008370Y017351D03*
X007826Y017328D03*
X007826Y017326D03*
X007826Y017147D03*
X007824Y017141D03*
X007597Y016940D03*
X007369Y017139D03*
X007367Y017143D03*
X007365Y017149D03*
X007365Y017151D03*
X007363Y017155D03*
X007363Y017318D03*
X007365Y017324D03*
X007367Y017328D03*
X007369Y017334D03*
X007597Y017534D03*
X006913Y017318D03*
X006913Y017316D03*
X006913Y017157D03*
X006913Y017155D03*
X006915Y017151D03*
X006623Y017053D03*
X006335Y017359D03*
X006335Y017361D03*
X005886Y017336D03*
X005882Y017326D03*
X005890Y017131D03*
X005340Y017353D03*
X005343Y017401D03*
X005153Y017175D03*
X005153Y017173D03*
X004833Y017187D03*
X004678Y017159D03*
X004680Y017320D03*
X004686Y017336D03*
X004314Y017065D03*
X003455Y017326D03*
X003455Y017328D03*
X003453Y017334D03*
X003450Y017336D03*
X003018Y017351D03*
X003014Y017344D03*
X003014Y017342D03*
X003018Y017115D03*
X003438Y016841D03*
D121*
X003439Y016843D03*
X003013Y017340D03*
X005339Y017357D03*
X006336Y017357D03*
X006340Y017349D03*
X008369Y017349D03*
X008687Y017373D03*
D122*
X008369Y017346D03*
X008053Y017379D03*
X008051Y017371D03*
X005339Y017395D03*
X003739Y017685D03*
X003454Y017330D03*
X003009Y017330D03*
X003441Y016845D03*
D123*
X003442Y016847D03*
X003442Y016849D03*
X003465Y017288D03*
X003463Y017300D03*
X003463Y017302D03*
X003461Y017304D03*
X003461Y017308D03*
X003008Y017326D03*
X003008Y017328D03*
X003006Y017324D03*
X003006Y017320D03*
X003004Y017316D03*
X003006Y017141D03*
X003008Y017135D03*
X003010Y017133D03*
X003010Y017131D03*
X004308Y017075D03*
X004674Y017173D03*
X004674Y017175D03*
X004672Y017181D03*
X004672Y017183D03*
X004672Y017187D03*
X004670Y017192D03*
X004670Y017196D03*
X004670Y017198D03*
X004670Y017200D03*
X004668Y017206D03*
X004668Y017208D03*
X004668Y017212D03*
X004668Y017214D03*
X004668Y017216D03*
X004668Y017220D03*
X004668Y017222D03*
X004668Y017224D03*
X004668Y017228D03*
X004668Y017246D03*
X004668Y017248D03*
X004668Y017252D03*
X004668Y017254D03*
X004668Y017256D03*
X004668Y017260D03*
X004668Y017262D03*
X004668Y017264D03*
X004668Y017268D03*
X004670Y017272D03*
X004670Y017276D03*
X004670Y017278D03*
X004670Y017280D03*
X004672Y017286D03*
X004672Y017288D03*
X004672Y017292D03*
X004674Y017300D03*
X005157Y017196D03*
X005157Y017192D03*
X005155Y017183D03*
X005159Y017204D03*
X005338Y017361D03*
X005338Y017367D03*
X005338Y017383D03*
X005338Y017385D03*
X005703Y017117D03*
X005703Y017115D03*
X005703Y017113D03*
X005703Y017109D03*
X005703Y017107D03*
X005703Y017105D03*
X005703Y017101D03*
X005703Y017099D03*
X005703Y017097D03*
X005703Y017093D03*
X005703Y017091D03*
X005703Y017089D03*
X005701Y017085D03*
X005701Y017083D03*
X005882Y017151D03*
X005884Y017147D03*
X005886Y017141D03*
X005876Y017304D03*
X005876Y017308D03*
X005878Y017310D03*
X005878Y017312D03*
X005880Y017320D03*
X006339Y017351D03*
X006341Y017344D03*
X006900Y017270D03*
X006900Y017268D03*
X006900Y017264D03*
X006900Y017262D03*
X006900Y017260D03*
X006900Y017256D03*
X006900Y017254D03*
X006902Y017276D03*
X006902Y017278D03*
X006902Y017280D03*
X006904Y017288D03*
X006900Y017220D03*
X006900Y017216D03*
X006900Y017214D03*
X006900Y017212D03*
X006900Y017208D03*
X006900Y017206D03*
X006900Y017204D03*
X006902Y017200D03*
X006902Y017198D03*
X006902Y017196D03*
X006902Y017192D03*
X006904Y017183D03*
X006906Y017175D03*
X007351Y017216D03*
X007351Y017220D03*
X007351Y017222D03*
X007351Y017224D03*
X007351Y017228D03*
X007351Y017230D03*
X007351Y017232D03*
X007351Y017236D03*
X007351Y017238D03*
X007351Y017240D03*
X007351Y017244D03*
X007351Y017246D03*
X007351Y017248D03*
X007351Y017252D03*
X007351Y017254D03*
X007351Y017256D03*
X007353Y017268D03*
X007353Y017270D03*
X007353Y017272D03*
X007353Y017276D03*
X007353Y017278D03*
X007355Y017280D03*
X007355Y017284D03*
X007355Y017286D03*
X007355Y017288D03*
X007357Y017294D03*
X007357Y017296D03*
X007359Y017304D03*
X007353Y017208D03*
X007353Y017206D03*
X007353Y017204D03*
X007353Y017200D03*
X007353Y017198D03*
X007353Y017196D03*
X007355Y017192D03*
X007355Y017189D03*
X007355Y017187D03*
X007357Y017179D03*
X007834Y017173D03*
X007834Y017171D03*
X007836Y017179D03*
X007836Y017181D03*
X007836Y017183D03*
X007838Y017189D03*
X007838Y017192D03*
X007838Y017196D03*
X007838Y017198D03*
X007840Y017204D03*
X007840Y017206D03*
X007840Y017208D03*
X007840Y017212D03*
X007840Y017214D03*
X007840Y017216D03*
X007840Y017256D03*
X007840Y017260D03*
X007840Y017262D03*
X007840Y017264D03*
X007840Y017268D03*
X007840Y017270D03*
X007840Y017272D03*
X007838Y017276D03*
X007838Y017278D03*
X007838Y017280D03*
X007838Y017284D03*
X007836Y017288D03*
X007836Y017292D03*
X007836Y017294D03*
X007834Y017300D03*
X007834Y017302D03*
X008050Y017367D03*
X008050Y017369D03*
X008052Y017375D03*
X008688Y017369D03*
X008688Y017367D03*
X008690Y017361D03*
X008690Y017359D03*
D124*
X008370Y017340D03*
X008052Y017373D03*
X008050Y017365D03*
X008048Y017357D03*
X006343Y017340D03*
X005338Y017365D03*
X005338Y017381D03*
X005338Y017389D03*
X003738Y017624D03*
X003010Y017332D03*
X003444Y016851D03*
D125*
X003444Y016853D03*
X005338Y017363D03*
X005338Y017387D03*
X006341Y017346D03*
X008370Y017338D03*
X008688Y017371D03*
D126*
X008691Y017353D03*
X008691Y017351D03*
X008369Y017336D03*
X008369Y017334D03*
X008369Y017328D03*
X008369Y017326D03*
X008369Y017324D03*
X008049Y017359D03*
X008049Y017361D03*
X008047Y017353D03*
X008047Y017351D03*
X007841Y017254D03*
X007841Y017252D03*
X007841Y017248D03*
X007841Y017246D03*
X007841Y017244D03*
X007841Y017240D03*
X007841Y017238D03*
X007841Y017236D03*
X007841Y017232D03*
X007841Y017230D03*
X007841Y017228D03*
X007841Y017224D03*
X007841Y017222D03*
X007841Y017220D03*
X007839Y017200D03*
X007352Y017212D03*
X007352Y017214D03*
X007352Y017260D03*
X007352Y017262D03*
X007352Y017264D03*
X006901Y017272D03*
X006899Y017252D03*
X006899Y017248D03*
X006899Y017246D03*
X006899Y017244D03*
X006899Y017240D03*
X006899Y017238D03*
X006899Y017236D03*
X006899Y017232D03*
X006899Y017230D03*
X006899Y017228D03*
X006899Y017224D03*
X006899Y017222D03*
X006624Y017057D03*
X006342Y017342D03*
X006201Y017041D03*
X005883Y017149D03*
X005881Y017155D03*
X005879Y017159D03*
X005871Y017280D03*
X005873Y017292D03*
X005873Y017294D03*
X005873Y017296D03*
X005875Y017300D03*
X005875Y017302D03*
X005337Y017369D03*
X005337Y017375D03*
X005337Y017377D03*
X005158Y017200D03*
X005158Y017198D03*
X004669Y017204D03*
X004669Y017270D03*
X004307Y017077D03*
X004309Y017073D03*
X003739Y017622D03*
X003464Y017296D03*
X003464Y017294D03*
X003464Y017292D03*
X003466Y017286D03*
X003466Y017284D03*
X003466Y017280D03*
X003466Y017278D03*
X003468Y017270D03*
X003468Y017268D03*
X003449Y016863D03*
X003447Y016857D03*
X003445Y016855D03*
X003007Y017139D03*
X003003Y017149D03*
X003001Y017155D03*
X002997Y017288D03*
X002999Y017296D03*
X002999Y017300D03*
X003001Y017302D03*
X003001Y017304D03*
X003001Y017308D03*
X003003Y017310D03*
X003003Y017312D03*
D127*
X003447Y016859D03*
X003739Y017689D03*
X005337Y017373D03*
X008047Y017349D03*
X008369Y017332D03*
X008689Y017365D03*
X008691Y017357D03*
X008691Y017349D03*
D128*
X008692Y017346D03*
X008692Y017338D03*
X008046Y017338D03*
X008046Y017330D03*
X003453Y016869D03*
X003448Y016861D03*
D129*
X003450Y016865D03*
X003453Y016871D03*
X003469Y017236D03*
X003469Y017238D03*
X003469Y017240D03*
X003469Y017244D03*
X003469Y017246D03*
X003469Y017248D03*
X003469Y017252D03*
X003469Y017254D03*
X003469Y017256D03*
X003469Y017260D03*
X003469Y017262D03*
X003469Y017264D03*
X003467Y017272D03*
X003467Y017276D03*
X003738Y017691D03*
X004304Y017085D03*
X004304Y017083D03*
X004306Y017081D03*
X004831Y017183D03*
X005868Y017230D03*
X005868Y017232D03*
X005868Y017236D03*
X005868Y017238D03*
X005868Y017240D03*
X005868Y017244D03*
X005868Y017246D03*
X005868Y017248D03*
X005868Y017252D03*
X005868Y017254D03*
X005868Y017256D03*
X005870Y017268D03*
X005870Y017270D03*
X005870Y017272D03*
X005870Y017276D03*
X005870Y017278D03*
X005872Y017284D03*
X005872Y017286D03*
X005872Y017288D03*
X005870Y017204D03*
X005872Y017192D03*
X005872Y017189D03*
X005872Y017187D03*
X005874Y017181D03*
X005874Y017179D03*
X005880Y017157D03*
X006353Y017280D03*
X006353Y017284D03*
X006351Y017304D03*
X006349Y017316D03*
X006349Y017318D03*
X006349Y017320D03*
X006623Y016964D03*
X008046Y017324D03*
X008046Y017326D03*
X008046Y017328D03*
X008046Y017334D03*
X008046Y017336D03*
X008046Y017342D03*
X008046Y017344D03*
X008370Y017320D03*
X008370Y017318D03*
X008692Y017334D03*
X008692Y017336D03*
X008692Y017342D03*
X008692Y017344D03*
X003002Y017151D03*
X003000Y017157D03*
X003000Y017159D03*
X002998Y017165D03*
X002998Y017167D03*
X002996Y017175D03*
X002994Y017187D03*
X002992Y017204D03*
X002992Y017206D03*
X002992Y017244D03*
X002992Y017246D03*
X002992Y017248D03*
X002992Y017252D03*
X002992Y017254D03*
X002992Y017256D03*
X002994Y017264D03*
X002994Y017268D03*
X002994Y017270D03*
X002994Y017272D03*
X002994Y017276D03*
X002996Y017278D03*
X002996Y017280D03*
X002996Y017284D03*
X002996Y017286D03*
X002998Y017292D03*
X002998Y017294D03*
D130*
X003455Y016875D03*
X003450Y016867D03*
X008046Y017332D03*
X008046Y017340D03*
X008692Y017340D03*
X008692Y017332D03*
D131*
X008693Y017328D03*
X008693Y017326D03*
X008693Y017324D03*
X008693Y017320D03*
X008693Y017318D03*
X008693Y017316D03*
X008693Y017312D03*
X008693Y017310D03*
X008693Y017308D03*
X008693Y017304D03*
X008693Y017302D03*
X008693Y017300D03*
X008693Y017296D03*
X008693Y017294D03*
X008693Y017292D03*
X008693Y017288D03*
X008693Y017286D03*
X008693Y017284D03*
X008693Y017280D03*
X008693Y017278D03*
X008693Y017276D03*
X008693Y017272D03*
X008693Y017270D03*
X008693Y017268D03*
X008693Y017264D03*
X008693Y017262D03*
X008693Y017260D03*
X008693Y017256D03*
X008693Y017254D03*
X008693Y017252D03*
X008693Y017248D03*
X008693Y017246D03*
X008693Y017244D03*
X008693Y017240D03*
X008693Y017238D03*
X008693Y017236D03*
X008693Y017232D03*
X008693Y017230D03*
X008693Y017228D03*
X008693Y017224D03*
X008693Y017222D03*
X008693Y017220D03*
X008693Y017216D03*
X008693Y017214D03*
X008693Y017212D03*
X008693Y017208D03*
X008693Y017206D03*
X008693Y017204D03*
X008693Y017200D03*
X008693Y017198D03*
X008693Y017196D03*
X008693Y017192D03*
X008693Y017189D03*
X008693Y017187D03*
X008693Y017183D03*
X008693Y017181D03*
X008693Y017179D03*
X008693Y017175D03*
X008693Y017173D03*
X008693Y017171D03*
X008693Y017167D03*
X008693Y017165D03*
X008693Y017163D03*
X008693Y017159D03*
X008693Y017157D03*
X008693Y017155D03*
X008693Y017151D03*
X008693Y017149D03*
X008693Y017147D03*
X008693Y017143D03*
X008693Y017141D03*
X008693Y017139D03*
X008693Y017135D03*
X008693Y017133D03*
X008693Y017131D03*
X008693Y017129D03*
X008693Y017125D03*
X008693Y017123D03*
X008693Y017121D03*
X008693Y017117D03*
X008693Y017115D03*
X008693Y017113D03*
X008693Y017109D03*
X008693Y017107D03*
X008693Y017105D03*
X008693Y017101D03*
X008693Y017099D03*
X008693Y017097D03*
X008693Y017093D03*
X008693Y017091D03*
X008693Y017089D03*
X008693Y017085D03*
X008693Y017083D03*
X008693Y017081D03*
X008693Y017077D03*
X008693Y017075D03*
X008693Y017073D03*
X008693Y017069D03*
X008693Y017067D03*
X008693Y017065D03*
X008693Y017061D03*
X008693Y017059D03*
X008693Y017057D03*
X008693Y017053D03*
X008693Y017051D03*
X008693Y017049D03*
X008693Y017045D03*
X008693Y017043D03*
X008693Y017041D03*
X008693Y017037D03*
X008693Y017035D03*
X008693Y017032D03*
X008693Y017028D03*
X008693Y017026D03*
X008693Y017024D03*
X008693Y017020D03*
X008693Y017018D03*
X008693Y017016D03*
X008693Y017012D03*
X008693Y017010D03*
X008693Y017008D03*
X008693Y017004D03*
X008693Y017002D03*
X008693Y017000D03*
X008693Y016996D03*
X008693Y016994D03*
X008693Y016992D03*
X008693Y016988D03*
X008693Y016986D03*
X008693Y016984D03*
X008693Y016980D03*
X008693Y016978D03*
X008693Y016976D03*
X008693Y016972D03*
X008693Y016970D03*
X008693Y016968D03*
X008693Y016964D03*
X008693Y016962D03*
X008693Y016960D03*
X008693Y016956D03*
X008693Y016954D03*
X008693Y016952D03*
X008693Y016948D03*
X008369Y016948D03*
X008369Y016952D03*
X008369Y016954D03*
X008369Y016956D03*
X008369Y016960D03*
X008369Y016962D03*
X008369Y016964D03*
X008369Y016968D03*
X008369Y016970D03*
X008369Y016972D03*
X008369Y016976D03*
X008369Y016978D03*
X008369Y016980D03*
X008369Y016984D03*
X008369Y016986D03*
X008369Y016988D03*
X008369Y016992D03*
X008369Y016994D03*
X008369Y016996D03*
X008369Y017000D03*
X008369Y017002D03*
X008369Y017004D03*
X008369Y017008D03*
X008369Y017010D03*
X008369Y017012D03*
X008369Y017016D03*
X008369Y017018D03*
X008369Y017020D03*
X008369Y017024D03*
X008369Y017026D03*
X008369Y017028D03*
X008369Y017032D03*
X008369Y017035D03*
X008369Y017037D03*
X008369Y017041D03*
X008369Y017043D03*
X008369Y017045D03*
X008369Y017049D03*
X008369Y017051D03*
X008369Y017053D03*
X008369Y017057D03*
X008369Y017059D03*
X008369Y017061D03*
X008369Y017065D03*
X008369Y017067D03*
X008369Y017069D03*
X008369Y017073D03*
X008369Y017075D03*
X008369Y017077D03*
X008369Y017081D03*
X008369Y017083D03*
X008369Y017085D03*
X008369Y017089D03*
X008369Y017091D03*
X008369Y017093D03*
X008369Y017097D03*
X008369Y017099D03*
X008369Y017101D03*
X008369Y017105D03*
X008369Y017107D03*
X008369Y017109D03*
X008369Y017113D03*
X008369Y017115D03*
X008369Y017117D03*
X008369Y017121D03*
X008369Y017123D03*
X008369Y017125D03*
X008369Y017129D03*
X008369Y017131D03*
X008369Y017133D03*
X008369Y017135D03*
X008369Y017139D03*
X008369Y017141D03*
X008369Y017143D03*
X008369Y017147D03*
X008369Y017149D03*
X008369Y017151D03*
X008369Y017155D03*
X008369Y017157D03*
X008369Y017159D03*
X008369Y017163D03*
X008369Y017165D03*
X008369Y017167D03*
X008369Y017171D03*
X008369Y017173D03*
X008369Y017175D03*
X008369Y017179D03*
X008369Y017181D03*
X008369Y017183D03*
X008369Y017187D03*
X008369Y017189D03*
X008369Y017192D03*
X008369Y017196D03*
X008369Y017198D03*
X008369Y017200D03*
X008369Y017204D03*
X008369Y017206D03*
X008369Y017208D03*
X008369Y017212D03*
X008369Y017214D03*
X008369Y017216D03*
X008369Y017220D03*
X008369Y017222D03*
X008369Y017224D03*
X008369Y017228D03*
X008369Y017230D03*
X008369Y017232D03*
X008369Y017236D03*
X008369Y017238D03*
X008369Y017240D03*
X008369Y017244D03*
X008369Y017246D03*
X008369Y017248D03*
X008369Y017252D03*
X008369Y017254D03*
X008369Y017256D03*
X008369Y017260D03*
X008369Y017262D03*
X008369Y017264D03*
X008369Y017268D03*
X008369Y017270D03*
X008369Y017272D03*
X008369Y017276D03*
X008369Y017278D03*
X008369Y017280D03*
X008369Y017284D03*
X008369Y017286D03*
X008369Y017288D03*
X008369Y017292D03*
X008369Y017294D03*
X008369Y017296D03*
X008369Y017300D03*
X008369Y017302D03*
X008369Y017304D03*
X008369Y017308D03*
X008369Y017310D03*
X008369Y017312D03*
X008369Y017316D03*
X008045Y017316D03*
X008045Y017318D03*
X008045Y017320D03*
X008045Y017312D03*
X008045Y017310D03*
X008045Y017308D03*
X008045Y017304D03*
X008045Y017302D03*
X008045Y017300D03*
X008045Y017296D03*
X008045Y017294D03*
X008045Y017292D03*
X008045Y017288D03*
X008045Y017286D03*
X008045Y017284D03*
X008045Y017280D03*
X008045Y017278D03*
X008045Y017276D03*
X008045Y017272D03*
X008045Y017270D03*
X008045Y017268D03*
X008045Y017264D03*
X008045Y017262D03*
X008045Y017260D03*
X008045Y017256D03*
X008045Y017254D03*
X008045Y017252D03*
X008045Y017248D03*
X008045Y017246D03*
X008045Y017244D03*
X008045Y017240D03*
X008045Y017238D03*
X008045Y017236D03*
X008045Y017232D03*
X008045Y017230D03*
X008045Y017228D03*
X008045Y017224D03*
X008045Y017222D03*
X008045Y017220D03*
X008045Y017216D03*
X008045Y017214D03*
X008045Y017212D03*
X008045Y017208D03*
X008045Y017206D03*
X008045Y017204D03*
X008045Y017200D03*
X008045Y017198D03*
X008045Y017196D03*
X008045Y017192D03*
X008045Y017189D03*
X008045Y017187D03*
X008045Y017183D03*
X008045Y017181D03*
X008045Y017179D03*
X008045Y017175D03*
X008045Y017173D03*
X008045Y017171D03*
X008045Y017167D03*
X008045Y017165D03*
X008045Y017163D03*
X008045Y017159D03*
X008045Y017157D03*
X008045Y017155D03*
X008045Y017151D03*
X008045Y017149D03*
X008045Y017147D03*
X008045Y017143D03*
X008045Y017141D03*
X008045Y017139D03*
X008045Y017135D03*
X008045Y017133D03*
X008045Y017131D03*
X008045Y017129D03*
X008045Y017125D03*
X008045Y017123D03*
X008045Y017121D03*
X008045Y017117D03*
X008045Y017115D03*
X008045Y017113D03*
X008045Y017109D03*
X008045Y017107D03*
X008045Y017105D03*
X008045Y017101D03*
X008045Y017099D03*
X008045Y017097D03*
X008045Y017093D03*
X008045Y017091D03*
X008045Y017089D03*
X008045Y017085D03*
X008045Y017083D03*
X008045Y017081D03*
X008045Y017077D03*
X008045Y017075D03*
X008045Y017073D03*
X008045Y017069D03*
X008045Y017067D03*
X008045Y017065D03*
X008045Y017061D03*
X008045Y017059D03*
X008045Y017057D03*
X008045Y017053D03*
X008045Y017051D03*
X008045Y017049D03*
X008045Y017045D03*
X008045Y017043D03*
X008045Y017041D03*
X008045Y017037D03*
X008045Y017035D03*
X008045Y017032D03*
X008045Y017028D03*
X008045Y017026D03*
X008045Y017024D03*
X008045Y017020D03*
X008045Y017018D03*
X008045Y017016D03*
X008045Y017012D03*
X008045Y017010D03*
X008045Y017008D03*
X008045Y017004D03*
X008045Y017002D03*
X008045Y017000D03*
X008045Y016996D03*
X008045Y016994D03*
X008045Y016992D03*
X008045Y016988D03*
X008045Y016986D03*
X008045Y016984D03*
X008045Y016980D03*
X008045Y016978D03*
X008045Y016976D03*
X008045Y016972D03*
X008045Y016970D03*
X008045Y016968D03*
X008045Y016964D03*
X008045Y016962D03*
X008045Y016960D03*
X008045Y016956D03*
X008045Y016954D03*
X008045Y016952D03*
X008045Y016948D03*
X006624Y017059D03*
X006354Y017059D03*
X006354Y017061D03*
X006354Y017065D03*
X006354Y017067D03*
X006354Y017069D03*
X006354Y017073D03*
X006354Y017075D03*
X006354Y017077D03*
X006354Y017081D03*
X006354Y017083D03*
X006354Y017085D03*
X006354Y017089D03*
X006354Y017091D03*
X006354Y017093D03*
X006354Y017097D03*
X006354Y017099D03*
X006354Y017101D03*
X006354Y017105D03*
X006354Y017107D03*
X006354Y017109D03*
X006354Y017113D03*
X006354Y017115D03*
X006354Y017117D03*
X006354Y017121D03*
X006354Y017123D03*
X006354Y017125D03*
X006354Y017129D03*
X006354Y017131D03*
X006354Y017133D03*
X006354Y017135D03*
X006354Y017139D03*
X006354Y017141D03*
X006354Y017143D03*
X006354Y017147D03*
X006354Y017149D03*
X006354Y017151D03*
X006354Y017155D03*
X006354Y017157D03*
X006354Y017159D03*
X006354Y017163D03*
X006354Y017165D03*
X006354Y017167D03*
X006354Y017171D03*
X006354Y017173D03*
X006354Y017175D03*
X006354Y017179D03*
X006354Y017181D03*
X006354Y017183D03*
X006354Y017187D03*
X006354Y017189D03*
X006354Y017192D03*
X006354Y017196D03*
X006354Y017198D03*
X006354Y017200D03*
X006354Y017204D03*
X006354Y017206D03*
X006354Y017208D03*
X006354Y017212D03*
X006354Y017214D03*
X006354Y017216D03*
X006354Y017220D03*
X006354Y017222D03*
X006354Y017224D03*
X006354Y017228D03*
X006354Y017230D03*
X006354Y017232D03*
X006354Y017236D03*
X006354Y017238D03*
X006354Y017240D03*
X006354Y017244D03*
X006354Y017246D03*
X006354Y017248D03*
X006354Y017252D03*
X006354Y017254D03*
X006354Y017256D03*
X006354Y017260D03*
X006354Y017262D03*
X006354Y017264D03*
X006354Y017268D03*
X006354Y017270D03*
X006354Y017272D03*
X006354Y017276D03*
X006354Y017278D03*
X006352Y017286D03*
X006352Y017288D03*
X006352Y017292D03*
X006352Y017294D03*
X006352Y017296D03*
X006352Y017300D03*
X006352Y017302D03*
X006350Y017308D03*
X006350Y017310D03*
X006350Y017312D03*
X006354Y017057D03*
X006354Y017053D03*
X006354Y017051D03*
X006354Y017049D03*
X006354Y017045D03*
X006354Y017043D03*
X006354Y017041D03*
X006354Y017037D03*
X006354Y017035D03*
X006354Y017032D03*
X006354Y017028D03*
X006354Y017026D03*
X006354Y017024D03*
X006354Y017020D03*
X006354Y017018D03*
X006354Y017016D03*
X006354Y017012D03*
X006354Y017010D03*
X006354Y017008D03*
X006354Y017004D03*
X006354Y017002D03*
X006354Y017000D03*
X006354Y016996D03*
X006354Y016994D03*
X006354Y016992D03*
X006354Y016988D03*
X006354Y016986D03*
X006354Y016984D03*
X006354Y016980D03*
X006354Y016978D03*
X006354Y016976D03*
X006354Y016972D03*
X006354Y016970D03*
X006354Y016968D03*
X006354Y016964D03*
X006354Y016962D03*
X006354Y016960D03*
X006354Y016956D03*
X006354Y016954D03*
X006354Y016952D03*
X006354Y016948D03*
X005873Y017183D03*
X005871Y017196D03*
X005871Y017198D03*
X005871Y017200D03*
X005869Y017206D03*
X005869Y017208D03*
X005869Y017212D03*
X005869Y017214D03*
X005869Y017216D03*
X005869Y017220D03*
X005869Y017222D03*
X005869Y017224D03*
X005869Y017228D03*
X005869Y017260D03*
X005869Y017262D03*
X005869Y017264D03*
X004299Y017264D03*
X004299Y017262D03*
X004299Y017260D03*
X004299Y017256D03*
X004299Y017254D03*
X004299Y017252D03*
X004299Y017248D03*
X004299Y017246D03*
X004299Y017244D03*
X004299Y017240D03*
X004299Y017238D03*
X004299Y017236D03*
X004299Y017232D03*
X004299Y017230D03*
X004299Y017228D03*
X004299Y017224D03*
X004299Y017222D03*
X004299Y017220D03*
X004299Y017216D03*
X004299Y017214D03*
X004299Y017212D03*
X004299Y017208D03*
X004299Y017206D03*
X004299Y017204D03*
X004299Y017200D03*
X004299Y017198D03*
X004299Y017196D03*
X004299Y017192D03*
X004299Y017189D03*
X004299Y017187D03*
X004299Y017183D03*
X004299Y017181D03*
X004299Y017179D03*
X004299Y017175D03*
X004299Y017173D03*
X004299Y017171D03*
X004299Y017167D03*
X004299Y017165D03*
X004299Y017163D03*
X004299Y017159D03*
X004299Y017157D03*
X004299Y017155D03*
X004299Y017151D03*
X004299Y017149D03*
X004299Y017147D03*
X004299Y017143D03*
X004299Y017141D03*
X004299Y017139D03*
X004299Y017135D03*
X004299Y017133D03*
X004299Y017131D03*
X004299Y017129D03*
X004299Y017125D03*
X004299Y017123D03*
X004299Y017121D03*
X004299Y017117D03*
X004299Y017115D03*
X004301Y017113D03*
X004301Y017109D03*
X004301Y017107D03*
X004301Y017105D03*
X004301Y017101D03*
X004301Y017099D03*
X004301Y017097D03*
X004303Y017093D03*
X004303Y017091D03*
X004303Y017089D03*
X004299Y017268D03*
X004299Y017270D03*
X004299Y017272D03*
X004299Y017276D03*
X004299Y017278D03*
X004299Y017280D03*
X004299Y017284D03*
X004299Y017286D03*
X004299Y017288D03*
X004299Y017292D03*
X004299Y017294D03*
X004299Y017296D03*
X004299Y017300D03*
X004299Y017302D03*
X004299Y017304D03*
X004299Y017308D03*
X004299Y017310D03*
X004299Y017312D03*
X004299Y017316D03*
X004299Y017318D03*
X004299Y017320D03*
X004299Y017324D03*
X004299Y017326D03*
X004299Y017328D03*
X004299Y017334D03*
X004299Y017336D03*
X004299Y017342D03*
X004299Y017344D03*
X004299Y017351D03*
X004299Y017353D03*
X004299Y017359D03*
X004299Y017361D03*
X004299Y017367D03*
X004299Y017369D03*
X004299Y017375D03*
X004299Y017377D03*
X004299Y017383D03*
X004299Y017385D03*
X004299Y017391D03*
X004299Y017393D03*
X004299Y017399D03*
X004299Y017401D03*
X004299Y017407D03*
X004299Y017409D03*
X004299Y017415D03*
X004299Y017417D03*
X004299Y017423D03*
X004299Y017530D03*
X004299Y017534D03*
X004299Y017538D03*
X004299Y017542D03*
X004299Y017546D03*
X004299Y017550D03*
X004299Y017554D03*
X004299Y017558D03*
X004299Y017562D03*
X004299Y017566D03*
X004299Y017570D03*
X004299Y017574D03*
X004299Y017578D03*
X004299Y017582D03*
X004299Y017586D03*
X004299Y017590D03*
X004299Y017594D03*
X004299Y017598D03*
X004299Y017602D03*
X004299Y017606D03*
X004299Y017610D03*
X004299Y017614D03*
X004299Y017618D03*
X004299Y017622D03*
X004299Y017626D03*
X004299Y017630D03*
X004299Y017634D03*
X004299Y017638D03*
X004299Y017642D03*
X004299Y017646D03*
X004299Y017650D03*
X004299Y017654D03*
X004299Y017658D03*
X004299Y017662D03*
X004299Y017667D03*
X004299Y017671D03*
X003739Y017618D03*
X003739Y017526D03*
X003739Y017522D03*
X003739Y017520D03*
X003739Y017514D03*
X003739Y017512D03*
X003739Y017505D03*
X003739Y017503D03*
X003739Y017497D03*
X003739Y017495D03*
X003739Y017489D03*
X003739Y017487D03*
X003739Y017481D03*
X003739Y017479D03*
X003739Y017473D03*
X003739Y017471D03*
X003739Y017465D03*
X003739Y017463D03*
X003739Y017457D03*
X003739Y017455D03*
X003739Y017449D03*
X003739Y017447D03*
X003739Y017441D03*
X003739Y017439D03*
X003739Y017433D03*
X003739Y017431D03*
X003739Y017425D03*
X003739Y017423D03*
X003739Y017417D03*
X003739Y017415D03*
X003739Y017409D03*
X003739Y017407D03*
X003739Y017401D03*
X003739Y017399D03*
X003739Y017393D03*
X003739Y017391D03*
X003739Y017385D03*
X003739Y017383D03*
X003739Y017377D03*
X003739Y017375D03*
X003739Y017369D03*
X003739Y017367D03*
X003739Y017361D03*
X003739Y017359D03*
X003739Y017353D03*
X003739Y017351D03*
X003739Y017344D03*
X003739Y017342D03*
X003739Y017336D03*
X003739Y017334D03*
X003739Y017328D03*
X003739Y017326D03*
X003739Y017324D03*
X003739Y017320D03*
X003739Y017318D03*
X003739Y017316D03*
X003739Y017312D03*
X003739Y017310D03*
X003739Y017308D03*
X003739Y017304D03*
X003739Y017302D03*
X003739Y017300D03*
X003739Y017296D03*
X003739Y017294D03*
X003739Y017292D03*
X003739Y017288D03*
X003739Y017286D03*
X003739Y017284D03*
X003739Y017280D03*
X003739Y017278D03*
X003739Y017276D03*
X003739Y017272D03*
X003739Y017270D03*
X003739Y017268D03*
X003739Y017264D03*
X003739Y017262D03*
X003739Y017260D03*
X003739Y017256D03*
X003739Y017254D03*
X003739Y017252D03*
X003739Y017248D03*
X003739Y017246D03*
X003739Y017244D03*
X003739Y017240D03*
X003739Y017238D03*
X003739Y017236D03*
X003739Y017232D03*
X003739Y017230D03*
X003739Y017228D03*
X003739Y017224D03*
X003739Y017222D03*
X003739Y017220D03*
X003739Y017216D03*
X003739Y017214D03*
X003739Y017212D03*
X003739Y017208D03*
X003739Y017206D03*
X003739Y017204D03*
X003739Y017200D03*
X003739Y017198D03*
X003739Y017196D03*
X003739Y017192D03*
X003739Y017189D03*
X003739Y017187D03*
X003739Y017183D03*
X003739Y017181D03*
X003739Y017179D03*
X003739Y017175D03*
X003739Y017173D03*
X003739Y017171D03*
X003739Y017167D03*
X003739Y017165D03*
X003739Y017163D03*
X003739Y017159D03*
X003739Y017157D03*
X003739Y017155D03*
X003739Y017151D03*
X003739Y017149D03*
X003739Y017147D03*
X003739Y017143D03*
X003739Y017141D03*
X003739Y017139D03*
X003739Y017135D03*
X003739Y017133D03*
X003739Y017131D03*
X003739Y017129D03*
X003739Y017125D03*
X003739Y017123D03*
X003739Y017121D03*
X003739Y017117D03*
X003739Y017115D03*
X003739Y017113D03*
X003739Y017109D03*
X003739Y017107D03*
X003739Y017105D03*
X003739Y017101D03*
X003739Y017099D03*
X003739Y017097D03*
X003739Y017093D03*
X003739Y017091D03*
X003739Y017089D03*
X003739Y017085D03*
X003739Y017083D03*
X003739Y017081D03*
X003739Y017077D03*
X003739Y017075D03*
X003739Y017073D03*
X003739Y017069D03*
X003739Y017067D03*
X003739Y017065D03*
X003739Y017061D03*
X003739Y017059D03*
X003739Y017057D03*
X003739Y017053D03*
X003739Y017051D03*
X003739Y017049D03*
X003739Y017045D03*
X003739Y017043D03*
X003739Y017041D03*
X003739Y017037D03*
X003739Y017035D03*
X003739Y017032D03*
X003739Y017028D03*
X003739Y017026D03*
X003739Y017024D03*
X003739Y017020D03*
X003739Y017018D03*
X003739Y017016D03*
X003739Y017012D03*
X003739Y017010D03*
X003739Y017008D03*
X003739Y017004D03*
X003739Y017002D03*
X003739Y017000D03*
X003739Y016996D03*
X003739Y016994D03*
X003739Y016992D03*
X003739Y016988D03*
X003739Y016986D03*
X003739Y016984D03*
X003739Y016980D03*
X003739Y016978D03*
X003739Y016976D03*
X003739Y016972D03*
X003739Y016970D03*
X003739Y016968D03*
X003739Y016964D03*
X003739Y016962D03*
X003739Y016960D03*
X003739Y016956D03*
X003739Y016954D03*
X003739Y016952D03*
X003739Y016948D03*
X003470Y016968D03*
X003470Y016970D03*
X003470Y016972D03*
X003470Y016976D03*
X003470Y016978D03*
X003470Y016980D03*
X003470Y016984D03*
X003470Y016986D03*
X003470Y016988D03*
X003470Y016992D03*
X003470Y016994D03*
X003470Y016996D03*
X003470Y017000D03*
X003470Y017002D03*
X003470Y017004D03*
X003470Y017008D03*
X003470Y017010D03*
X003470Y017012D03*
X003470Y017016D03*
X003470Y017018D03*
X003470Y017020D03*
X003470Y017024D03*
X003470Y017026D03*
X003470Y017028D03*
X003470Y017032D03*
X003470Y017035D03*
X003470Y017037D03*
X003470Y017041D03*
X003470Y017043D03*
X003470Y017045D03*
X003470Y017049D03*
X003470Y017051D03*
X003470Y017053D03*
X003470Y017057D03*
X003470Y017059D03*
X003470Y017061D03*
X003470Y017065D03*
X003470Y017067D03*
X003470Y017069D03*
X003470Y017073D03*
X003470Y017075D03*
X003470Y017077D03*
X003470Y017081D03*
X003470Y017083D03*
X003470Y017085D03*
X003470Y017089D03*
X003470Y017091D03*
X003470Y017093D03*
X003470Y017097D03*
X003470Y017099D03*
X003470Y017101D03*
X003470Y017105D03*
X003470Y017107D03*
X003470Y017109D03*
X003470Y017113D03*
X003470Y017115D03*
X003470Y017117D03*
X003470Y017121D03*
X003470Y017123D03*
X003470Y017125D03*
X003470Y017129D03*
X003470Y017131D03*
X003470Y017133D03*
X003470Y017135D03*
X003470Y017139D03*
X003470Y017141D03*
X003470Y017143D03*
X003470Y017147D03*
X003470Y017149D03*
X003470Y017151D03*
X003470Y017155D03*
X003470Y017157D03*
X003470Y017159D03*
X003470Y017163D03*
X003470Y017165D03*
X003470Y017167D03*
X003470Y017171D03*
X003470Y017173D03*
X003470Y017175D03*
X003470Y017179D03*
X003470Y017181D03*
X003470Y017183D03*
X003470Y017187D03*
X003470Y017189D03*
X003470Y017192D03*
X003470Y017196D03*
X003470Y017198D03*
X003470Y017200D03*
X003470Y017204D03*
X003470Y017206D03*
X003470Y017208D03*
X003470Y017212D03*
X003470Y017214D03*
X003470Y017216D03*
X003470Y017220D03*
X003470Y017222D03*
X003470Y017224D03*
X003470Y017228D03*
X003470Y017230D03*
X003470Y017232D03*
X003468Y016948D03*
X003468Y016946D03*
X003468Y016944D03*
X003468Y016940D03*
X003454Y016873D03*
X002999Y017163D03*
X002997Y017171D03*
X002997Y017173D03*
X002995Y017179D03*
X002995Y017181D03*
X002995Y017183D03*
X002993Y017189D03*
X002993Y017192D03*
X002993Y017196D03*
X002993Y017198D03*
X002993Y017200D03*
X002993Y017260D03*
X002993Y017262D03*
D132*
X003460Y016894D03*
X003458Y016886D03*
X003456Y016878D03*
X004039Y017330D03*
X004039Y017338D03*
X004039Y017346D03*
X004039Y017355D03*
X004039Y017363D03*
X004039Y017371D03*
X004039Y017379D03*
X004039Y017387D03*
X004039Y017395D03*
X004039Y017403D03*
X004039Y017411D03*
X004039Y017419D03*
X004039Y017427D03*
X004039Y017435D03*
X004039Y017443D03*
X004039Y017451D03*
X004039Y017459D03*
X004039Y017467D03*
X004039Y017475D03*
X004039Y017483D03*
X004039Y017491D03*
X004039Y017499D03*
X004039Y017508D03*
X004039Y017516D03*
X004039Y017524D03*
X004039Y017532D03*
X004039Y017540D03*
X004039Y017548D03*
X004039Y017556D03*
X004039Y017564D03*
X004039Y017572D03*
X004039Y017580D03*
X004039Y017588D03*
X004039Y017596D03*
X004039Y017604D03*
X004039Y017612D03*
X004039Y017620D03*
X004039Y017628D03*
X004039Y017636D03*
X004039Y017644D03*
X004039Y017652D03*
X004039Y017660D03*
X004039Y017669D03*
X004039Y017677D03*
X004039Y017685D03*
X004039Y017693D03*
X004039Y017701D03*
X004039Y017709D03*
X004039Y017717D03*
X004039Y017725D03*
X004039Y017733D03*
X004039Y017741D03*
X004039Y017749D03*
X004039Y017757D03*
X004039Y017765D03*
X004039Y017773D03*
X004039Y017781D03*
X004039Y017789D03*
D133*
X004039Y017791D03*
X004039Y017785D03*
X004039Y017783D03*
X004039Y017777D03*
X004039Y017775D03*
X004039Y017769D03*
X004039Y017767D03*
X004039Y017761D03*
X004039Y017759D03*
X004039Y017753D03*
X004039Y017751D03*
X004039Y017745D03*
X004039Y017743D03*
X004039Y017737D03*
X004039Y017735D03*
X004039Y017729D03*
X004039Y017727D03*
X004039Y017723D03*
X004039Y017719D03*
X004039Y017715D03*
X004039Y017711D03*
X004039Y017707D03*
X004039Y017703D03*
X004039Y017699D03*
X004039Y017695D03*
X004039Y017691D03*
X004039Y017687D03*
X004039Y017683D03*
X004039Y017679D03*
X004039Y017675D03*
X004039Y017671D03*
X004039Y017667D03*
X004039Y017662D03*
X004039Y017658D03*
X004039Y017654D03*
X004039Y017650D03*
X004039Y017646D03*
X004039Y017642D03*
X004039Y017638D03*
X004039Y017634D03*
X004039Y017630D03*
X004039Y017626D03*
X004039Y017622D03*
X004039Y017618D03*
X004039Y017614D03*
X004039Y017610D03*
X004039Y017606D03*
X004039Y017602D03*
X004039Y017598D03*
X004039Y017594D03*
X004039Y017590D03*
X004039Y017586D03*
X004039Y017582D03*
X004039Y017578D03*
X004039Y017574D03*
X004039Y017570D03*
X004039Y017566D03*
X004039Y017562D03*
X004039Y017558D03*
X004039Y017554D03*
X004039Y017550D03*
X004039Y017546D03*
X004039Y017542D03*
X004039Y017538D03*
X004039Y017534D03*
X004039Y017530D03*
X004039Y017526D03*
X004039Y017522D03*
X004039Y017520D03*
X004039Y017514D03*
X004039Y017512D03*
X004039Y017505D03*
X004039Y017503D03*
X004039Y017497D03*
X004039Y017495D03*
X004039Y017489D03*
X004039Y017487D03*
X004039Y017481D03*
X004039Y017479D03*
X004039Y017473D03*
X004039Y017471D03*
X004039Y017465D03*
X004039Y017463D03*
X004039Y017457D03*
X004039Y017455D03*
X004039Y017449D03*
X004039Y017447D03*
X004039Y017441D03*
X004039Y017439D03*
X004039Y017433D03*
X004039Y017431D03*
X004039Y017425D03*
X004039Y017423D03*
X004039Y017417D03*
X004039Y017415D03*
X004039Y017409D03*
X004039Y017407D03*
X004039Y017401D03*
X004039Y017399D03*
X004039Y017393D03*
X004039Y017391D03*
X004039Y017385D03*
X004039Y017383D03*
X004039Y017377D03*
X004039Y017375D03*
X004039Y017369D03*
X004039Y017367D03*
X004039Y017361D03*
X004039Y017359D03*
X004039Y017353D03*
X004039Y017351D03*
X004039Y017344D03*
X004039Y017342D03*
X004039Y017336D03*
X004039Y017334D03*
X004039Y017328D03*
X004039Y017326D03*
X004039Y017324D03*
X004039Y017320D03*
X004039Y017318D03*
X004039Y017316D03*
X004039Y017312D03*
X004039Y017310D03*
X004039Y017308D03*
X004039Y017304D03*
X004039Y017302D03*
X004039Y017300D03*
X004039Y017296D03*
X004039Y017294D03*
X004039Y017292D03*
X004039Y017288D03*
X004039Y017286D03*
X004039Y017284D03*
X004039Y017280D03*
X004039Y017278D03*
X004039Y017276D03*
X004039Y017272D03*
X004039Y017270D03*
X004039Y017268D03*
X004039Y017264D03*
X004039Y017262D03*
X004039Y017260D03*
X004039Y017256D03*
X004039Y017254D03*
X004039Y017252D03*
X004039Y017248D03*
X004039Y017246D03*
X004039Y017244D03*
X004039Y017240D03*
X004039Y017238D03*
X004039Y017236D03*
X004039Y017232D03*
X004039Y017230D03*
X004039Y017228D03*
X004039Y017224D03*
X004039Y017222D03*
X004039Y017220D03*
X004039Y017216D03*
X004039Y017214D03*
X004039Y017212D03*
X004039Y017208D03*
X004039Y017206D03*
X004039Y017204D03*
X004039Y017200D03*
X004039Y017198D03*
X004039Y017196D03*
X004039Y017192D03*
X004039Y017189D03*
X004039Y017187D03*
X004039Y017183D03*
X004039Y017181D03*
X004039Y017179D03*
X004039Y017175D03*
X004039Y017173D03*
X004039Y017171D03*
X004039Y017167D03*
X004039Y017165D03*
X004039Y017163D03*
X004039Y017159D03*
X004039Y017157D03*
X004039Y017155D03*
X004039Y017151D03*
X004039Y017149D03*
X004039Y017147D03*
X004039Y017143D03*
X004039Y017141D03*
X004039Y017139D03*
X004039Y017135D03*
X004039Y017133D03*
X004039Y017131D03*
X004039Y017129D03*
X004039Y017125D03*
X004039Y017123D03*
X004039Y017121D03*
X004039Y017117D03*
X004039Y017115D03*
X004039Y017113D03*
X004039Y017109D03*
X004039Y017107D03*
X004039Y017105D03*
X004039Y017101D03*
X004039Y017099D03*
X004039Y017097D03*
X004039Y017093D03*
X004039Y017091D03*
X004039Y017089D03*
X004039Y017085D03*
X004039Y017083D03*
X004039Y017081D03*
X004039Y017077D03*
X004039Y017075D03*
X004039Y017073D03*
X004039Y017069D03*
X004039Y017067D03*
X004039Y017065D03*
X004039Y017061D03*
X004039Y017059D03*
X004039Y017057D03*
X004039Y017053D03*
X004039Y017051D03*
X004039Y017049D03*
X004039Y017045D03*
X004039Y017043D03*
X004039Y017041D03*
X004039Y017037D03*
X004039Y017035D03*
X004039Y017032D03*
X004039Y017028D03*
X004039Y017026D03*
X004039Y017024D03*
X004039Y017020D03*
X004039Y017018D03*
X004039Y017016D03*
X004039Y017012D03*
X004039Y017010D03*
X004039Y017008D03*
X004039Y017004D03*
X004039Y017002D03*
X004039Y017000D03*
X004039Y016996D03*
X004039Y016994D03*
X004039Y016992D03*
X004039Y016988D03*
X004039Y016986D03*
X004039Y016984D03*
X004039Y016980D03*
X004039Y016978D03*
X004039Y016976D03*
X004039Y016972D03*
X004039Y016970D03*
X004039Y016968D03*
X004039Y016964D03*
X004039Y016962D03*
X004039Y016960D03*
X004039Y016956D03*
X004039Y016954D03*
X004039Y016952D03*
X004039Y016948D03*
X003456Y016882D03*
X003456Y016880D03*
X003230Y016940D03*
X002991Y017208D03*
X002991Y017212D03*
X002991Y017214D03*
X002991Y017216D03*
X002991Y017220D03*
X002991Y017222D03*
X002991Y017224D03*
X002991Y017228D03*
X002991Y017230D03*
X002991Y017232D03*
X002991Y017236D03*
X002991Y017238D03*
X002991Y017240D03*
X005875Y017175D03*
D134*
X006116Y017536D03*
X004039Y017536D03*
X004039Y017544D03*
X004039Y017552D03*
X004039Y017560D03*
X004039Y017568D03*
X004039Y017576D03*
X004039Y017584D03*
X004039Y017592D03*
X004039Y017600D03*
X004039Y017608D03*
X004039Y017616D03*
X004039Y017624D03*
X004039Y017632D03*
X004039Y017640D03*
X004039Y017648D03*
X004039Y017656D03*
X004039Y017665D03*
X004039Y017673D03*
X004039Y017681D03*
X004039Y017689D03*
X004039Y017697D03*
X004039Y017705D03*
X004039Y017713D03*
X004039Y017721D03*
X004039Y017731D03*
X004039Y017739D03*
X004039Y017747D03*
X004039Y017755D03*
X004039Y017763D03*
X004039Y017771D03*
X004039Y017779D03*
X004039Y017787D03*
X004039Y017528D03*
X004039Y017518D03*
X004039Y017510D03*
X004039Y017501D03*
X004039Y017493D03*
X004039Y017485D03*
X004039Y017477D03*
X004039Y017469D03*
X004039Y017461D03*
X004039Y017453D03*
X004039Y017445D03*
X004039Y017437D03*
X004039Y017429D03*
X004039Y017421D03*
X004039Y017413D03*
X004039Y017405D03*
X004039Y017397D03*
X004039Y017389D03*
X004039Y017381D03*
X004039Y017373D03*
X004039Y017365D03*
X004039Y017357D03*
X004039Y017349D03*
X004039Y017340D03*
X004039Y017332D03*
X003460Y016892D03*
X003458Y016884D03*
D135*
X003463Y016902D03*
X003463Y016910D03*
X003465Y016918D03*
X003467Y016926D03*
X003467Y016934D03*
D136*
X003467Y016936D03*
X003467Y016938D03*
X003467Y016930D03*
X003467Y016928D03*
X003465Y016922D03*
X003465Y016920D03*
X003465Y016914D03*
X003465Y016912D03*
X003463Y016906D03*
X003463Y016904D03*
X003469Y016952D03*
X003469Y016954D03*
X003469Y016956D03*
X003469Y016960D03*
X003469Y016962D03*
X003469Y016964D03*
D137*
X003467Y016932D03*
X003467Y016924D03*
X003465Y016916D03*
X003463Y016908D03*
D138*
X003232Y016936D03*
X008200Y017538D03*
D139*
X006624Y016946D03*
X006225Y017061D03*
X006100Y016936D03*
X004913Y016936D03*
X004818Y017163D03*
X003343Y017053D03*
X003236Y017538D03*
D140*
X007596Y017538D03*
X007596Y016936D03*
D141*
X006214Y017049D03*
X003231Y016938D03*
D142*
X004914Y016938D03*
X006208Y017045D03*
D143*
X006099Y016938D03*
D144*
X007596Y016938D03*
D145*
X006623Y016940D03*
X003364Y017073D03*
D146*
X003229Y016942D03*
X005129Y017111D03*
X005133Y017119D03*
X005695Y017137D03*
X005906Y017103D03*
X006623Y017047D03*
X007810Y017111D03*
D147*
X008045Y017111D03*
X008045Y017119D03*
X008045Y017127D03*
X008045Y017137D03*
X008045Y017145D03*
X008045Y017153D03*
X008045Y017161D03*
X008045Y017169D03*
X008045Y017177D03*
X008045Y017185D03*
X008045Y017194D03*
X008045Y017202D03*
X008045Y017210D03*
X008045Y017218D03*
X008045Y017226D03*
X008045Y017234D03*
X008045Y017242D03*
X008045Y017250D03*
X008045Y017258D03*
X008045Y017266D03*
X008045Y017274D03*
X008045Y017282D03*
X008045Y017290D03*
X008045Y017298D03*
X008045Y017306D03*
X008045Y017314D03*
X008045Y017322D03*
X008045Y017103D03*
X008045Y017095D03*
X008045Y017087D03*
X008045Y017079D03*
X008045Y017071D03*
X008045Y017063D03*
X008045Y017055D03*
X008045Y017047D03*
X008045Y017039D03*
X008045Y017030D03*
X008045Y017022D03*
X008045Y017014D03*
X008045Y017006D03*
X008045Y016998D03*
X008045Y016990D03*
X008045Y016982D03*
X008045Y016974D03*
X008045Y016966D03*
X008045Y016958D03*
X008045Y016950D03*
X008369Y016950D03*
X008369Y016958D03*
X008369Y016966D03*
X008369Y016974D03*
X008369Y016982D03*
X008369Y016990D03*
X008369Y016998D03*
X008369Y017006D03*
X008369Y017014D03*
X008369Y017022D03*
X008369Y017030D03*
X008369Y017039D03*
X008369Y017047D03*
X008369Y017055D03*
X008369Y017063D03*
X008369Y017071D03*
X008369Y017079D03*
X008369Y017087D03*
X008369Y017095D03*
X008369Y017103D03*
X008369Y017111D03*
X008369Y017119D03*
X008369Y017127D03*
X008369Y017137D03*
X008369Y017145D03*
X008369Y017153D03*
X008369Y017161D03*
X008369Y017169D03*
X008369Y017177D03*
X008369Y017185D03*
X008369Y017194D03*
X008369Y017202D03*
X008369Y017210D03*
X008369Y017218D03*
X008369Y017226D03*
X008369Y017234D03*
X008369Y017242D03*
X008369Y017250D03*
X008369Y017258D03*
X008369Y017266D03*
X008369Y017274D03*
X008369Y017282D03*
X008369Y017290D03*
X008369Y017298D03*
X008369Y017306D03*
X008369Y017314D03*
X008693Y017314D03*
X008693Y017306D03*
X008693Y017298D03*
X008693Y017290D03*
X008693Y017282D03*
X008693Y017274D03*
X008693Y017266D03*
X008693Y017258D03*
X008693Y017250D03*
X008693Y017242D03*
X008693Y017234D03*
X008693Y017226D03*
X008693Y017218D03*
X008693Y017210D03*
X008693Y017202D03*
X008693Y017194D03*
X008693Y017185D03*
X008693Y017177D03*
X008693Y017169D03*
X008693Y017161D03*
X008693Y017153D03*
X008693Y017145D03*
X008693Y017137D03*
X008693Y017127D03*
X008693Y017119D03*
X008693Y017111D03*
X008693Y017103D03*
X008693Y017095D03*
X008693Y017087D03*
X008693Y017079D03*
X008693Y017071D03*
X008693Y017063D03*
X008693Y017055D03*
X008693Y017047D03*
X008693Y017039D03*
X008693Y017030D03*
X008693Y017022D03*
X008693Y017014D03*
X008693Y017006D03*
X008693Y016998D03*
X008693Y016990D03*
X008693Y016982D03*
X008693Y016974D03*
X008693Y016966D03*
X008693Y016958D03*
X008693Y016950D03*
X008693Y017322D03*
X006354Y017274D03*
X006354Y017266D03*
X006354Y017258D03*
X006354Y017250D03*
X006354Y017242D03*
X006354Y017234D03*
X006354Y017226D03*
X006354Y017218D03*
X006354Y017210D03*
X006354Y017202D03*
X006354Y017194D03*
X006354Y017185D03*
X006354Y017177D03*
X006354Y017169D03*
X006354Y017161D03*
X006354Y017153D03*
X006354Y017145D03*
X006354Y017137D03*
X006354Y017127D03*
X006354Y017119D03*
X006354Y017111D03*
X006354Y017103D03*
X006354Y017095D03*
X006354Y017087D03*
X006354Y017079D03*
X006354Y017071D03*
X006354Y017063D03*
X006354Y017055D03*
X006354Y017047D03*
X006354Y017039D03*
X006354Y017030D03*
X006354Y017022D03*
X006354Y017014D03*
X006354Y017006D03*
X006354Y016998D03*
X006354Y016990D03*
X006354Y016982D03*
X006354Y016974D03*
X006354Y016966D03*
X006354Y016958D03*
X006354Y016950D03*
X006352Y017290D03*
X006352Y017298D03*
X005869Y017258D03*
X005869Y017226D03*
X005869Y017218D03*
X005869Y017210D03*
X005871Y017202D03*
X005871Y017194D03*
X005873Y017185D03*
X004301Y017111D03*
X004301Y017103D03*
X004299Y017119D03*
X004299Y017127D03*
X004299Y017137D03*
X004299Y017145D03*
X004299Y017153D03*
X004299Y017161D03*
X004299Y017169D03*
X004299Y017177D03*
X004299Y017185D03*
X004299Y017194D03*
X004299Y017202D03*
X004299Y017210D03*
X004299Y017218D03*
X004299Y017226D03*
X004299Y017234D03*
X004299Y017242D03*
X004299Y017250D03*
X004299Y017258D03*
X004299Y017266D03*
X004299Y017274D03*
X004299Y017282D03*
X004299Y017290D03*
X004299Y017298D03*
X004299Y017306D03*
X004299Y017314D03*
X004299Y017322D03*
X003739Y017322D03*
X003739Y017314D03*
X003739Y017306D03*
X003739Y017298D03*
X003739Y017290D03*
X003739Y017282D03*
X003739Y017274D03*
X003739Y017266D03*
X003739Y017258D03*
X003739Y017250D03*
X003739Y017242D03*
X003739Y017234D03*
X003739Y017226D03*
X003739Y017218D03*
X003739Y017210D03*
X003739Y017202D03*
X003739Y017194D03*
X003739Y017185D03*
X003739Y017177D03*
X003739Y017169D03*
X003739Y017161D03*
X003739Y017153D03*
X003739Y017145D03*
X003739Y017137D03*
X003739Y017127D03*
X003739Y017119D03*
X003739Y017111D03*
X003739Y017103D03*
X003739Y017095D03*
X003739Y017087D03*
X003739Y017079D03*
X003739Y017071D03*
X003739Y017063D03*
X003739Y017055D03*
X003739Y017047D03*
X003739Y017039D03*
X003739Y017030D03*
X003739Y017022D03*
X003739Y017014D03*
X003739Y017006D03*
X003739Y016998D03*
X003739Y016990D03*
X003739Y016982D03*
X003739Y016974D03*
X003739Y016966D03*
X003739Y016958D03*
X003739Y016950D03*
X003470Y016966D03*
X003470Y016974D03*
X003470Y016982D03*
X003470Y016990D03*
X003470Y016998D03*
X003470Y017006D03*
X003470Y017014D03*
X003470Y017022D03*
X003470Y017030D03*
X003470Y017039D03*
X003470Y017047D03*
X003470Y017055D03*
X003470Y017063D03*
X003470Y017071D03*
X003470Y017079D03*
X003470Y017087D03*
X003470Y017095D03*
X003470Y017103D03*
X003470Y017111D03*
X003470Y017119D03*
X003470Y017127D03*
X003470Y017137D03*
X003470Y017145D03*
X003470Y017153D03*
X003470Y017161D03*
X003470Y017169D03*
X003470Y017177D03*
X003470Y017185D03*
X003470Y017194D03*
X003470Y017202D03*
X003470Y017210D03*
X003470Y017218D03*
X003470Y017226D03*
X003470Y017234D03*
X003468Y016942D03*
X002995Y017185D03*
X002993Y017194D03*
X002993Y017202D03*
X002993Y017258D03*
D148*
X004914Y016942D03*
X005930Y017071D03*
X006949Y017095D03*
D149*
X006623Y017039D03*
X006099Y016942D03*
X005689Y017145D03*
X004717Y017087D03*
X004324Y017055D03*
X007400Y017087D03*
X007794Y017087D03*
D150*
X006624Y016942D03*
X004812Y017153D03*
D151*
X004723Y017079D03*
X007597Y016942D03*
D152*
X005924Y017399D03*
X005683Y017151D03*
X005103Y017393D03*
X003229Y016944D03*
X003054Y017069D03*
D153*
X003229Y016946D03*
X003394Y017417D03*
X003235Y017530D03*
X004747Y017417D03*
X004845Y017206D03*
X004747Y017057D03*
X004914Y016944D03*
X005673Y017159D03*
X006971Y017399D03*
D154*
X007419Y017407D03*
X007421Y017409D03*
X007419Y017067D03*
X007421Y017065D03*
X007773Y017065D03*
X007775Y017067D03*
X007775Y017407D03*
X007773Y017409D03*
X008369Y017391D03*
X006300Y017407D03*
X005937Y017065D03*
X006098Y016944D03*
X005362Y017326D03*
X005362Y017423D03*
X005108Y017377D03*
X005090Y017061D03*
X004333Y017051D03*
X003405Y017407D03*
X003065Y017415D03*
D155*
X006624Y016944D03*
D156*
X006963Y017081D03*
X007597Y016944D03*
X007597Y017530D03*
X005365Y017324D03*
X005107Y017375D03*
D157*
X004849Y017212D03*
X004914Y016946D03*
X005661Y017167D03*
X006274Y017425D03*
D158*
X006981Y017067D03*
X007597Y016946D03*
X004759Y017049D03*
X004759Y017425D03*
X003382Y017425D03*
D159*
X003229Y016948D03*
X005377Y017316D03*
X005665Y017165D03*
X005958Y017049D03*
X006278Y017423D03*
D160*
X006116Y017530D03*
X005955Y017425D03*
X005102Y017367D03*
X004476Y016948D03*
D161*
X004914Y016948D03*
X005387Y017310D03*
X003235Y017526D03*
D162*
X005445Y016948D03*
X005568Y017520D03*
X007074Y017049D03*
X008201Y017465D03*
D163*
X008369Y017407D03*
X006984Y017409D03*
X006984Y017065D03*
X006098Y016948D03*
D164*
X006624Y016948D03*
D165*
X006624Y016980D03*
X006624Y017041D03*
X006624Y017043D03*
X006938Y017109D03*
X007171Y016948D03*
X007395Y017093D03*
X007397Y017091D03*
X007399Y017089D03*
X007393Y017097D03*
X007393Y017377D03*
X007397Y017383D03*
X007399Y017385D03*
X007171Y017526D03*
X007795Y017385D03*
X007797Y017383D03*
X007801Y017377D03*
X008073Y017415D03*
X008200Y017530D03*
X008369Y017375D03*
X008538Y017530D03*
X007801Y017097D03*
X007799Y017093D03*
X007797Y017091D03*
X007795Y017089D03*
X005915Y017089D03*
X005907Y017377D03*
X005118Y017093D03*
X005116Y017091D03*
X005116Y017089D03*
X004714Y017091D03*
X004712Y017093D03*
X004714Y017383D03*
X003425Y017383D03*
X003043Y017393D03*
X003039Y017085D03*
X003041Y017083D03*
D166*
X003093Y017043D03*
X003097Y017433D03*
X003371Y017431D03*
X004772Y017431D03*
X004772Y017043D03*
X006994Y017059D03*
X007455Y017043D03*
X007596Y016948D03*
X007739Y017043D03*
X007739Y017431D03*
X007596Y017526D03*
X007455Y017431D03*
D167*
X003228Y016950D03*
D168*
X003469Y016950D03*
X003469Y016958D03*
D169*
X002991Y017210D03*
X002991Y017218D03*
X002991Y017226D03*
X002991Y017234D03*
X002991Y017242D03*
X004039Y017242D03*
X004039Y017250D03*
X004039Y017258D03*
X004039Y017266D03*
X004039Y017274D03*
X004039Y017282D03*
X004039Y017290D03*
X004039Y017298D03*
X004039Y017306D03*
X004039Y017314D03*
X004039Y017322D03*
X004039Y017234D03*
X004039Y017226D03*
X004039Y017218D03*
X004039Y017210D03*
X004039Y017202D03*
X004039Y017194D03*
X004039Y017185D03*
X004039Y017177D03*
X004039Y017169D03*
X004039Y017161D03*
X004039Y017153D03*
X004039Y017145D03*
X004039Y017137D03*
X004039Y017127D03*
X004039Y017119D03*
X004039Y017111D03*
X004039Y017103D03*
X004039Y017095D03*
X004039Y017087D03*
X004039Y017079D03*
X004039Y017071D03*
X004039Y017063D03*
X004039Y017055D03*
X004039Y017047D03*
X004039Y017039D03*
X004039Y017030D03*
X004039Y017022D03*
X004039Y017014D03*
X004039Y017006D03*
X004039Y016998D03*
X004039Y016990D03*
X004039Y016982D03*
X004039Y016974D03*
X004039Y016966D03*
X004039Y016958D03*
X004039Y016950D03*
D170*
X004470Y016950D03*
D171*
X004915Y016950D03*
X004949Y017274D03*
X004963Y017282D03*
X005643Y017177D03*
D172*
X005452Y016950D03*
D173*
X006097Y016950D03*
X007146Y016958D03*
D174*
X006624Y016950D03*
X004822Y017169D03*
D175*
X004731Y017071D03*
X005093Y017063D03*
X005681Y017153D03*
X006957Y017087D03*
X007164Y016950D03*
D176*
X007596Y016950D03*
D177*
X008369Y017417D03*
X005974Y017433D03*
X005647Y017175D03*
X004856Y017222D03*
X003228Y016952D03*
D178*
X004465Y016952D03*
D179*
X004915Y016952D03*
X004915Y017522D03*
X006096Y016956D03*
X007131Y016968D03*
X007131Y017505D03*
D180*
X005555Y017512D03*
X005458Y016952D03*
X004915Y016988D03*
X003198Y017020D03*
D181*
X006097Y016952D03*
X007140Y016962D03*
X007140Y017512D03*
D182*
X006624Y016952D03*
X003739Y017606D03*
X003739Y017707D03*
D183*
X007158Y017522D03*
X007158Y016952D03*
X008094Y017433D03*
X008643Y017433D03*
D184*
X007596Y017522D03*
X007596Y016952D03*
X005402Y017302D03*
D185*
X003229Y016954D03*
D186*
X004461Y016954D03*
D187*
X004914Y016954D03*
D188*
X005462Y016954D03*
X003194Y017028D03*
D189*
X005398Y017304D03*
X005639Y017179D03*
X006096Y016954D03*
X007010Y017053D03*
D190*
X006624Y017069D03*
X006624Y016954D03*
D191*
X006979Y017069D03*
X007154Y016954D03*
X007440Y017051D03*
X007754Y017051D03*
X007754Y017423D03*
X007440Y017423D03*
X007154Y017520D03*
X005667Y017163D03*
X005103Y017369D03*
X005073Y017049D03*
D192*
X004453Y016960D03*
X007597Y016954D03*
X007597Y017520D03*
D193*
X008201Y017512D03*
X003229Y016956D03*
D194*
X004458Y016956D03*
D195*
X004915Y016956D03*
D196*
X004914Y017479D03*
X005465Y016956D03*
X006073Y017028D03*
X007597Y016994D03*
X007597Y017479D03*
X003191Y017037D03*
D197*
X003329Y017043D03*
X006624Y017067D03*
X006624Y016956D03*
D198*
X007149Y016956D03*
X008369Y017409D03*
X008538Y017522D03*
X005965Y017045D03*
X005066Y017045D03*
X003089Y017045D03*
D199*
X006095Y016960D03*
X007597Y016956D03*
D200*
X007124Y016974D03*
X003229Y016958D03*
D201*
X004455Y016958D03*
D202*
X004914Y016958D03*
X005427Y017290D03*
X007116Y016982D03*
D203*
X005468Y016958D03*
D204*
X005628Y017185D03*
X006095Y016958D03*
D205*
X006623Y016958D03*
D206*
X007597Y016958D03*
D207*
X007118Y016980D03*
X008201Y017505D03*
X005423Y017292D03*
X004443Y016970D03*
X003229Y016960D03*
D208*
X004436Y016980D03*
X004915Y016960D03*
X004915Y017514D03*
X007111Y016988D03*
X008369Y017431D03*
D209*
X005471Y016960D03*
X003233Y017473D03*
D210*
X003324Y017041D03*
X005155Y017206D03*
X006623Y016960D03*
X008539Y017534D03*
D211*
X007143Y017514D03*
X007143Y016960D03*
X005967Y017431D03*
X004915Y017526D03*
D212*
X005432Y017288D03*
X005607Y017196D03*
X004438Y016976D03*
X003234Y017514D03*
X007113Y017487D03*
X007113Y016986D03*
X007596Y016960D03*
X007596Y017514D03*
D213*
X003229Y016962D03*
D214*
X004450Y016962D03*
D215*
X004432Y016986D03*
X004915Y016962D03*
X004915Y017512D03*
X008200Y017497D03*
X008538Y017497D03*
D216*
X005474Y016962D03*
D217*
X006095Y016962D03*
D218*
X005602Y017198D03*
X003229Y016964D03*
D219*
X004448Y016964D03*
X005623Y017187D03*
X006116Y017522D03*
D220*
X004914Y016964D03*
D221*
X006095Y016964D03*
X007114Y016984D03*
X007114Y017489D03*
D222*
X007597Y016964D03*
X006095Y016970D03*
D223*
X003229Y016966D03*
D224*
X004446Y016966D03*
D225*
X004915Y016966D03*
X005460Y017274D03*
X005579Y017210D03*
X006094Y016974D03*
X007097Y017006D03*
D226*
X005478Y016966D03*
D227*
X006094Y016966D03*
D228*
X005881Y017153D03*
X005879Y017161D03*
X005871Y017282D03*
X005873Y017290D03*
X005875Y017298D03*
X006624Y016966D03*
X006901Y017202D03*
X006899Y017226D03*
X006899Y017234D03*
X006899Y017242D03*
X006899Y017250D03*
X007352Y017210D03*
X007841Y017226D03*
X007841Y017234D03*
X007841Y017242D03*
X007841Y017250D03*
X007839Y017274D03*
X004832Y017185D03*
X003468Y017266D03*
X003466Y017282D03*
X003319Y017039D03*
X002997Y017290D03*
X002999Y017298D03*
X003001Y017306D03*
D229*
X007134Y016966D03*
D230*
X007597Y016966D03*
D231*
X007102Y017473D03*
X006117Y017514D03*
X004427Y016996D03*
X003229Y016968D03*
D232*
X004444Y016968D03*
X008538Y017505D03*
D233*
X007093Y017012D03*
X005571Y017214D03*
X005468Y017270D03*
X004915Y016968D03*
X003234Y017503D03*
D234*
X005532Y017487D03*
X005481Y016968D03*
D235*
X006094Y016968D03*
D236*
X007096Y017008D03*
X007096Y017465D03*
X007597Y017505D03*
X007597Y016968D03*
X004421Y017010D03*
X004421Y017012D03*
D237*
X003229Y016970D03*
D238*
X004915Y016970D03*
D239*
X005631Y017183D03*
X007129Y016970D03*
X007129Y017503D03*
X008369Y017423D03*
D240*
X007597Y017503D03*
X007597Y016970D03*
D241*
X005588Y017526D03*
X004914Y017505D03*
X003229Y016972D03*
D242*
X004441Y016972D03*
X008201Y017503D03*
D243*
X004915Y016972D03*
D244*
X004915Y017008D03*
X004913Y017463D03*
X005529Y017481D03*
X005484Y016972D03*
X006116Y017471D03*
D245*
X006094Y016972D03*
X005452Y017278D03*
X007101Y017000D03*
D246*
X006923Y017133D03*
X006623Y016972D03*
X006331Y017367D03*
X005892Y017351D03*
X005697Y017133D03*
X005345Y017344D03*
X005345Y017409D03*
X007377Y017353D03*
X007377Y017351D03*
X007375Y017125D03*
X007377Y017123D03*
X007377Y017121D03*
X007816Y017123D03*
X007816Y017351D03*
X003022Y017361D03*
X003024Y017105D03*
D247*
X007126Y016972D03*
X008370Y017425D03*
D248*
X007597Y016972D03*
X006093Y016980D03*
X005560Y017220D03*
X005479Y017264D03*
X003225Y016978D03*
D249*
X003228Y016974D03*
D250*
X004440Y016974D03*
X005611Y017194D03*
D251*
X004915Y016974D03*
X007083Y017030D03*
D252*
X005486Y016974D03*
D253*
X005136Y017127D03*
X004699Y017111D03*
X004695Y017119D03*
X006624Y016974D03*
X006926Y017127D03*
X007378Y017119D03*
D254*
X007596Y016974D03*
X006094Y016982D03*
X005549Y017226D03*
X003222Y016982D03*
D255*
X003227Y016976D03*
X004415Y017032D03*
X004914Y017503D03*
X007090Y017455D03*
X007090Y017018D03*
D256*
X006094Y016986D03*
X004915Y016976D03*
X004404Y017431D03*
X004404Y017433D03*
X004404Y017439D03*
X004404Y017441D03*
X004404Y017447D03*
X004404Y017449D03*
X004404Y017455D03*
X004404Y017457D03*
X004404Y017463D03*
X004404Y017465D03*
X004404Y017471D03*
X004404Y017473D03*
X004404Y017479D03*
X004404Y017481D03*
X004404Y017487D03*
X004404Y017489D03*
X004404Y017495D03*
X004404Y017497D03*
X004404Y017503D03*
X004404Y017505D03*
X004404Y017512D03*
X004404Y017514D03*
X004404Y017520D03*
X004404Y017522D03*
X004404Y017526D03*
D257*
X003233Y017457D03*
X005487Y016976D03*
D258*
X005527Y017238D03*
X005517Y017244D03*
X005513Y017246D03*
X005509Y017248D03*
X007081Y017439D03*
X007081Y017035D03*
X007596Y016976D03*
D259*
X004437Y016978D03*
D260*
X004915Y016978D03*
X003212Y016996D03*
X007075Y017425D03*
X008538Y017465D03*
D261*
X005524Y017471D03*
X005489Y016978D03*
X003233Y017455D03*
D262*
X006094Y016978D03*
D263*
X007120Y016978D03*
X007120Y017495D03*
D264*
X007078Y017433D03*
X007078Y017041D03*
X007597Y016978D03*
X007597Y017495D03*
D265*
X005552Y017224D03*
X005483Y017262D03*
X003223Y016980D03*
D266*
X004915Y016980D03*
X006092Y016992D03*
D267*
X005490Y016980D03*
X004913Y017457D03*
D268*
X007596Y016980D03*
D269*
X004434Y016982D03*
D270*
X004915Y016982D03*
X003206Y017006D03*
D271*
X005492Y016982D03*
D272*
X005120Y017095D03*
X005114Y017087D03*
X004838Y017194D03*
X006624Y016982D03*
X006936Y017111D03*
X007799Y017095D03*
D273*
X007597Y016982D03*
D274*
X004433Y016984D03*
D275*
X004915Y016984D03*
X006116Y017495D03*
X003234Y017487D03*
X003204Y017010D03*
D276*
X005493Y016984D03*
X005520Y017463D03*
D277*
X005688Y017147D03*
X005921Y017081D03*
X005913Y017385D03*
X006624Y017037D03*
X006624Y017035D03*
X006624Y016988D03*
X006624Y016986D03*
X006624Y016984D03*
X006944Y017101D03*
X004720Y017083D03*
X004718Y017085D03*
X004720Y017391D03*
X003419Y017391D03*
X003049Y017399D03*
D278*
X003205Y017008D03*
X004914Y017489D03*
X006087Y017000D03*
X007597Y016984D03*
X007597Y017489D03*
D279*
X007597Y017497D03*
X007082Y017441D03*
X007082Y017032D03*
X005530Y017236D03*
X005502Y017252D03*
X003219Y016986D03*
D280*
X004915Y016986D03*
D281*
X005494Y016986D03*
X006116Y017463D03*
D282*
X007597Y017487D03*
X007597Y016986D03*
D283*
X003217Y016988D03*
D284*
X004431Y016988D03*
X007106Y016994D03*
X007106Y017479D03*
D285*
X005496Y016988D03*
D286*
X006094Y016988D03*
D287*
X003216Y016990D03*
D288*
X004430Y016990D03*
X005444Y017282D03*
D289*
X004915Y016990D03*
X006076Y017022D03*
D290*
X005498Y016990D03*
X007597Y017022D03*
D291*
X006094Y016990D03*
D292*
X006624Y016990D03*
X006624Y017030D03*
X007407Y017079D03*
X007787Y017079D03*
D293*
X007109Y016990D03*
D294*
X007597Y016990D03*
X003197Y017022D03*
D295*
X003215Y016992D03*
D296*
X004429Y016992D03*
X007104Y016996D03*
X008201Y017495D03*
D297*
X006074Y017026D03*
X004915Y016992D03*
X003192Y017035D03*
D298*
X004913Y017449D03*
X005515Y017447D03*
X005499Y016992D03*
D299*
X005919Y017393D03*
X006308Y017399D03*
X006624Y017028D03*
X006624Y017026D03*
X006624Y016994D03*
X006624Y016992D03*
X006948Y017097D03*
X006948Y017377D03*
X007785Y017077D03*
X008079Y017423D03*
X008369Y017385D03*
X008369Y017383D03*
X008659Y017423D03*
X004840Y017198D03*
X004726Y017077D03*
D300*
X007596Y016992D03*
X007596Y017481D03*
D301*
X007076Y017045D03*
X004914Y017495D03*
X003213Y016994D03*
D302*
X004428Y016994D03*
D303*
X004916Y016994D03*
X006071Y017035D03*
X007597Y016996D03*
D304*
X007597Y017024D03*
X007597Y017449D03*
X005514Y017441D03*
X005500Y016994D03*
D305*
X006091Y016994D03*
X003209Y017000D03*
D306*
X004915Y016996D03*
D307*
X004913Y017447D03*
X005513Y017439D03*
X005501Y016996D03*
X006116Y017457D03*
D308*
X006090Y016996D03*
X003208Y017002D03*
D309*
X003056Y017407D03*
X003058Y017409D03*
X003412Y017399D03*
X004727Y017399D03*
X004729Y017401D03*
X004727Y017075D03*
X004729Y017073D03*
X005097Y017067D03*
X005099Y017069D03*
X005681Y017053D03*
X005928Y017073D03*
X006305Y017401D03*
X006623Y017024D03*
X006623Y016996D03*
X006951Y017093D03*
X006953Y017383D03*
X008082Y017425D03*
X008656Y017425D03*
D310*
X003211Y016998D03*
D311*
X004426Y016998D03*
D312*
X004915Y016998D03*
D313*
X005502Y016998D03*
D314*
X006089Y016998D03*
D315*
X006624Y016998D03*
X006624Y017006D03*
X006624Y017014D03*
X006624Y017022D03*
X007415Y017071D03*
X007779Y017071D03*
D316*
X007103Y016998D03*
D317*
X007596Y016998D03*
D318*
X004425Y017000D03*
D319*
X005503Y017000D03*
D320*
X007597Y017000D03*
X007597Y017473D03*
D321*
X007099Y017004D03*
X005583Y017208D03*
X005456Y017276D03*
X004424Y017004D03*
X004424Y017002D03*
D322*
X004916Y017002D03*
X007597Y017004D03*
D323*
X005504Y017002D03*
X003233Y017441D03*
D324*
X006086Y017002D03*
D325*
X007100Y017002D03*
X007100Y017471D03*
D326*
X003207Y017004D03*
D327*
X003232Y017439D03*
X005505Y017004D03*
D328*
X006085Y017004D03*
D329*
X004423Y017006D03*
D330*
X004915Y017006D03*
D331*
X005505Y017006D03*
D332*
X006084Y017006D03*
D333*
X007597Y017006D03*
D334*
X004422Y017008D03*
X003234Y017505D03*
D335*
X005506Y017008D03*
D336*
X004915Y017010D03*
D337*
X004913Y017441D03*
X005507Y017010D03*
D338*
X006082Y017010D03*
X003200Y017016D03*
D339*
X005528Y017479D03*
X007597Y017463D03*
X007597Y017010D03*
D340*
X003202Y017012D03*
D341*
X004916Y017012D03*
D342*
X005508Y017012D03*
X007597Y017032D03*
X007597Y017441D03*
D343*
X006081Y017012D03*
X003199Y017018D03*
D344*
X007597Y017012D03*
D345*
X003201Y017014D03*
D346*
X004420Y017014D03*
D347*
X004916Y017014D03*
D348*
X004916Y017030D03*
X005508Y017014D03*
D349*
X006080Y017014D03*
D350*
X007092Y017014D03*
D351*
X007597Y017014D03*
D352*
X004419Y017016D03*
X004419Y017018D03*
D353*
X004916Y017016D03*
X007597Y017018D03*
X007597Y017455D03*
D354*
X006116Y017449D03*
X005509Y017016D03*
X004915Y017032D03*
X004913Y017439D03*
D355*
X006079Y017016D03*
D356*
X005567Y017216D03*
X005472Y017268D03*
X004416Y017028D03*
X004416Y017026D03*
X007091Y017016D03*
X007091Y017457D03*
D357*
X007597Y017457D03*
X007597Y017016D03*
D358*
X007597Y017020D03*
X004916Y017018D03*
D359*
X005510Y017018D03*
X005510Y017020D03*
D360*
X006078Y017018D03*
D361*
X004418Y017020D03*
D362*
X004916Y017020D03*
X005516Y017449D03*
D363*
X006077Y017020D03*
D364*
X007089Y017020D03*
X008538Y017481D03*
X004414Y017037D03*
X004414Y017035D03*
D365*
X004417Y017022D03*
D366*
X004916Y017022D03*
D367*
X005511Y017022D03*
D368*
X004412Y017047D03*
X007087Y017022D03*
D369*
X003234Y017481D03*
X003196Y017024D03*
D370*
X004417Y017024D03*
D371*
X004916Y017024D03*
X005510Y017425D03*
X005512Y017431D03*
X005512Y017433D03*
X007597Y017447D03*
X007597Y017026D03*
D372*
X006116Y017447D03*
X005511Y017024D03*
D373*
X006075Y017024D03*
X004914Y017481D03*
X003193Y017032D03*
D374*
X005487Y017260D03*
X007086Y017024D03*
X008201Y017479D03*
D375*
X007597Y017028D03*
X004916Y017026D03*
D376*
X005512Y017026D03*
D377*
X006116Y017505D03*
X007085Y017447D03*
X007085Y017026D03*
D378*
X004916Y017028D03*
D379*
X004915Y017037D03*
X005513Y017028D03*
D380*
X005544Y017228D03*
X007084Y017028D03*
D381*
X003194Y017030D03*
D382*
X004415Y017030D03*
D383*
X005513Y017030D03*
D384*
X006072Y017030D03*
D385*
X007597Y017030D03*
D386*
X005514Y017032D03*
X005514Y017035D03*
X005514Y017037D03*
D387*
X005547Y017505D03*
X006072Y017032D03*
D388*
X004915Y017035D03*
D389*
X007597Y017037D03*
X007597Y017035D03*
X007597Y017439D03*
D390*
X006070Y017037D03*
D391*
X007080Y017037D03*
X004914Y017497D03*
X004403Y017425D03*
D392*
X003107Y017039D03*
D393*
X004413Y017039D03*
D394*
X004783Y017039D03*
D395*
X005047Y017039D03*
X005983Y017039D03*
X007468Y017039D03*
X007726Y017039D03*
D396*
X005515Y017039D03*
D397*
X006196Y017039D03*
X007814Y017119D03*
D398*
X007079Y017039D03*
D399*
X007461Y017041D03*
X007733Y017041D03*
X007733Y017433D03*
X007461Y017433D03*
X006261Y017431D03*
X005976Y017041D03*
X005390Y017308D03*
X004854Y017220D03*
X004776Y017041D03*
X004776Y017433D03*
X003099Y017041D03*
D400*
X004413Y017041D03*
X008201Y017481D03*
D401*
X005650Y017173D03*
X005097Y017359D03*
X005055Y017041D03*
D402*
X005515Y017041D03*
X006116Y017441D03*
D403*
X005555Y017222D03*
X004412Y017045D03*
X004412Y017043D03*
X004410Y017049D03*
X007087Y017449D03*
X008538Y017479D03*
D404*
X006995Y017415D03*
X005970Y017043D03*
X005383Y017312D03*
X005061Y017043D03*
X004851Y017216D03*
D405*
X005516Y017045D03*
X005516Y017043D03*
D406*
X006205Y017043D03*
X003739Y017695D03*
D407*
X007077Y017431D03*
X007077Y017043D03*
D408*
X007450Y017045D03*
X007744Y017045D03*
X004851Y017214D03*
X004767Y017045D03*
X003092Y017431D03*
D409*
X003085Y017047D03*
D410*
X003335Y017047D03*
X006624Y017071D03*
D411*
X007748Y017047D03*
X004763Y017047D03*
D412*
X005069Y017047D03*
D413*
X005516Y017047D03*
D414*
X005961Y017047D03*
D415*
X006211Y017047D03*
D416*
X007075Y017047D03*
D417*
X007446Y017047D03*
D418*
X003338Y017049D03*
D419*
X005517Y017049D03*
X006116Y017439D03*
D420*
X003077Y017051D03*
D421*
X003341Y017051D03*
X006624Y017075D03*
D422*
X004755Y017051D03*
X004755Y017423D03*
D423*
X004753Y017053D03*
X005077Y017051D03*
X005371Y017320D03*
X005952Y017053D03*
X006973Y017073D03*
X006973Y017401D03*
X007436Y017053D03*
X007758Y017053D03*
X003080Y017425D03*
D424*
X003402Y017409D03*
X003064Y017061D03*
X004737Y017065D03*
X004737Y017409D03*
X005089Y017407D03*
X005679Y017155D03*
X005677Y017051D03*
X005932Y017407D03*
X005934Y017409D03*
X006961Y017391D03*
X006961Y017083D03*
D425*
X005955Y017051D03*
X005070Y017423D03*
X004846Y017208D03*
D426*
X004823Y017171D03*
X006216Y017051D03*
D427*
X005927Y017075D03*
X005925Y017077D03*
X005686Y017149D03*
X005102Y017073D03*
X005104Y017391D03*
X004327Y017053D03*
X007409Y017077D03*
X007411Y017075D03*
X007411Y017399D03*
X007783Y017399D03*
X007783Y017075D03*
D428*
X006218Y017053D03*
D429*
X003072Y017055D03*
D430*
X003345Y017055D03*
X006227Y017063D03*
D431*
X007433Y017055D03*
X007761Y017055D03*
X004750Y017055D03*
D432*
X005082Y017055D03*
D433*
X005685Y017055D03*
D434*
X005949Y017055D03*
D435*
X006220Y017055D03*
D436*
X005887Y017137D03*
X005881Y017322D03*
X005702Y017119D03*
X005702Y017087D03*
X005156Y017185D03*
X005154Y017177D03*
X004677Y017161D03*
X004675Y017169D03*
X004673Y017177D03*
X004675Y017306D03*
X004681Y017322D03*
X003456Y017322D03*
X006624Y017055D03*
X006907Y017169D03*
X006905Y017177D03*
X007362Y017161D03*
X007364Y017153D03*
X007356Y017290D03*
X007358Y017298D03*
X007360Y017306D03*
X007362Y017314D03*
X007831Y017314D03*
X007833Y017306D03*
X007835Y017298D03*
X007835Y017177D03*
X007833Y017169D03*
X007831Y017161D03*
D437*
X007004Y017055D03*
D438*
X005131Y017212D03*
X004815Y017159D03*
X003348Y017057D03*
D439*
X003739Y017642D03*
X003739Y017646D03*
X003739Y017662D03*
X003739Y017667D03*
X003739Y017671D03*
X004321Y017057D03*
X004707Y017099D03*
X004836Y017192D03*
X004707Y017375D03*
X005126Y017107D03*
X005126Y017105D03*
X005692Y017141D03*
X005901Y017367D03*
X008369Y017369D03*
D440*
X008090Y017431D03*
X007766Y017415D03*
X007428Y017415D03*
X007426Y017061D03*
X007428Y017059D03*
X007766Y017059D03*
X007768Y017061D03*
X005944Y017059D03*
X005085Y017057D03*
X003066Y017059D03*
D441*
X005080Y017415D03*
X005947Y017057D03*
X006290Y017415D03*
X006968Y017077D03*
D442*
X006222Y017057D03*
D443*
X006999Y017057D03*
X006999Y017417D03*
X003366Y017433D03*
D444*
X003030Y017097D03*
X004318Y017059D03*
X005691Y017061D03*
X007385Y017107D03*
X007385Y017109D03*
X007388Y017105D03*
X007385Y017367D03*
X007388Y017369D03*
X007806Y017369D03*
X007806Y017105D03*
X008370Y017367D03*
D445*
X005941Y017061D03*
X005088Y017059D03*
D446*
X004819Y017165D03*
X004914Y017538D03*
X006224Y017059D03*
D447*
X006234Y017073D03*
X003352Y017061D03*
D448*
X003029Y017099D03*
X003027Y017101D03*
X003027Y017369D03*
X003031Y017375D03*
X003739Y017634D03*
X003739Y017638D03*
X003739Y017675D03*
X004317Y017061D03*
X004915Y017534D03*
X005140Y017135D03*
X005694Y017065D03*
X005901Y017109D03*
X005903Y017107D03*
X007382Y017113D03*
X007382Y017361D03*
X008063Y017401D03*
X008369Y017361D03*
X008675Y017401D03*
X008677Y017399D03*
D449*
X006624Y017061D03*
X004830Y017181D03*
D450*
X006990Y017061D03*
D451*
X005939Y017063D03*
X003061Y017063D03*
D452*
X003354Y017063D03*
D453*
X004315Y017063D03*
X005144Y017145D03*
X005146Y017153D03*
X005897Y017119D03*
X006914Y017153D03*
X007370Y017137D03*
X007374Y017127D03*
X007823Y017137D03*
D454*
X007771Y017063D03*
X007423Y017063D03*
X004740Y017063D03*
D455*
X005693Y017063D03*
X007383Y017111D03*
D456*
X006624Y017063D03*
D457*
X006988Y017063D03*
X005380Y017314D03*
D458*
X005359Y017328D03*
X005097Y017399D03*
X005095Y017401D03*
X004841Y017200D03*
X004733Y017069D03*
X004735Y017067D03*
X004735Y017407D03*
X005095Y017065D03*
X005934Y017067D03*
X005926Y017401D03*
X006955Y017385D03*
X006955Y017089D03*
X007416Y017069D03*
X007778Y017069D03*
X003058Y017065D03*
D459*
X003356Y017065D03*
X005123Y017214D03*
D460*
X006228Y017065D03*
D461*
X006624Y017065D03*
D462*
X006240Y017083D03*
X004811Y017151D03*
X003358Y017067D03*
D463*
X003020Y017113D03*
X004312Y017067D03*
X004682Y017147D03*
X004682Y017149D03*
X004684Y017143D03*
X004684Y017141D03*
X004682Y017324D03*
X004682Y017326D03*
X004682Y017328D03*
X005151Y017167D03*
X005151Y017165D03*
X005149Y017159D03*
X005699Y017129D03*
X005701Y017125D03*
X005701Y017123D03*
X005699Y017075D03*
X005894Y017123D03*
X006908Y017167D03*
X006910Y017159D03*
X006910Y017312D03*
X007828Y017324D03*
X007830Y017316D03*
X007830Y017157D03*
X007828Y017151D03*
X007828Y017149D03*
X008054Y017383D03*
X008056Y017385D03*
X008684Y017383D03*
D464*
X008539Y017538D03*
X006230Y017067D03*
D465*
X004809Y017149D03*
X003360Y017069D03*
D466*
X003458Y017316D03*
X003458Y017318D03*
X003458Y017320D03*
X004311Y017069D03*
X005700Y017077D03*
X005700Y017081D03*
X006909Y017163D03*
X006909Y017165D03*
X006909Y017308D03*
X006909Y017310D03*
X007829Y017318D03*
X007829Y017320D03*
X007829Y017155D03*
X008685Y017377D03*
D467*
X006231Y017069D03*
D468*
X005101Y017071D03*
X003052Y017071D03*
D469*
X003362Y017071D03*
D470*
X003465Y017290D03*
X003463Y017298D03*
X003461Y017306D03*
X003459Y017314D03*
X003008Y017137D03*
X003012Y017127D03*
X003004Y017314D03*
X003006Y017322D03*
X004310Y017071D03*
X004672Y017185D03*
X004670Y017194D03*
X004670Y017202D03*
X004668Y017210D03*
X004668Y017218D03*
X004668Y017226D03*
X004668Y017250D03*
X004668Y017258D03*
X004668Y017266D03*
X004670Y017274D03*
X004670Y017282D03*
X004672Y017290D03*
X004674Y017298D03*
X005157Y017194D03*
X005159Y017202D03*
X005703Y017111D03*
X005703Y017103D03*
X005703Y017095D03*
X005884Y017145D03*
X005876Y017306D03*
X005878Y017314D03*
X006900Y017266D03*
X006900Y017258D03*
X006902Y017274D03*
X006902Y017282D03*
X006904Y017290D03*
X006906Y017298D03*
X006900Y017218D03*
X006900Y017210D03*
X006902Y017194D03*
X006904Y017185D03*
X007351Y017218D03*
X007351Y017226D03*
X007351Y017234D03*
X007351Y017242D03*
X007351Y017250D03*
X007351Y017258D03*
X007353Y017266D03*
X007353Y017274D03*
X007355Y017282D03*
X007353Y017202D03*
X007355Y017194D03*
X007355Y017185D03*
X007357Y017177D03*
X007359Y017169D03*
X007836Y017185D03*
X007838Y017194D03*
X007840Y017202D03*
X007840Y017210D03*
X007840Y017218D03*
X007840Y017258D03*
X007840Y017266D03*
X007838Y017282D03*
X007836Y017290D03*
D471*
X007826Y017145D03*
X007367Y017145D03*
X007365Y017322D03*
X006915Y017322D03*
X005697Y017071D03*
X004686Y017137D03*
X004680Y017153D03*
X004678Y017314D03*
X003016Y017119D03*
D472*
X006233Y017071D03*
X006624Y017079D03*
D473*
X006976Y017071D03*
D474*
X006330Y017369D03*
X005893Y017125D03*
X005895Y017121D03*
X005698Y017131D03*
X005698Y017073D03*
X005344Y017407D03*
X005150Y017163D03*
X005148Y017157D03*
X005148Y017155D03*
X004685Y017139D03*
X004685Y017334D03*
X003021Y017359D03*
X003019Y017353D03*
X003021Y017109D03*
X003023Y017107D03*
X008057Y017391D03*
D475*
X006624Y017073D03*
X003739Y017602D03*
D476*
X007781Y017401D03*
X007781Y017073D03*
D477*
X007788Y017081D03*
X007790Y017083D03*
X007790Y017391D03*
X007788Y017393D03*
X007406Y017393D03*
X007404Y017391D03*
X007404Y017083D03*
X007406Y017081D03*
X005918Y017391D03*
X005111Y017383D03*
X005109Y017385D03*
X005107Y017077D03*
X004721Y017081D03*
X004721Y017393D03*
X003418Y017393D03*
X003048Y017075D03*
D478*
X003366Y017075D03*
X006248Y017097D03*
D479*
X006235Y017075D03*
D480*
X005110Y017081D03*
X004838Y017196D03*
X003047Y017077D03*
D481*
X003368Y017077D03*
D482*
X003739Y017594D03*
X006237Y017077D03*
D483*
X006624Y017077D03*
D484*
X003044Y017079D03*
D485*
X003369Y017079D03*
D486*
X003469Y017242D03*
X003469Y017250D03*
X003469Y017258D03*
X003467Y017274D03*
X002996Y017282D03*
X002994Y017274D03*
X002994Y017266D03*
X002992Y017250D03*
X002996Y017177D03*
X002998Y017169D03*
X003000Y017161D03*
X003002Y017153D03*
X004302Y017095D03*
X004304Y017087D03*
X004306Y017079D03*
X005868Y017234D03*
X005868Y017242D03*
X005868Y017250D03*
X005870Y017266D03*
X005870Y017274D03*
X005874Y017177D03*
X006353Y017282D03*
X006351Y017306D03*
X006349Y017314D03*
X008370Y017322D03*
D487*
X005108Y017079D03*
D488*
X005700Y017079D03*
X007829Y017153D03*
D489*
X006942Y017103D03*
X005923Y017079D03*
D490*
X006238Y017079D03*
D491*
X006965Y017079D03*
D492*
X006239Y017081D03*
D493*
X006624Y017081D03*
D494*
X003373Y017083D03*
D495*
X005111Y017083D03*
X005353Y017334D03*
X005918Y017085D03*
X007402Y017085D03*
X008370Y017377D03*
D496*
X006241Y017085D03*
D497*
X006297Y017409D03*
X006959Y017085D03*
X005087Y017409D03*
X003068Y017417D03*
D498*
X003038Y017087D03*
X004711Y017095D03*
X007394Y017095D03*
D499*
X005917Y017087D03*
D500*
X006242Y017087D03*
D501*
X006244Y017089D03*
D502*
X006245Y017091D03*
D503*
X006246Y017093D03*
D504*
X003031Y017095D03*
D505*
X004705Y017103D03*
X005124Y017103D03*
X005911Y017095D03*
X006930Y017119D03*
X007389Y017103D03*
D506*
X006247Y017095D03*
D507*
X005900Y017111D03*
X005141Y017137D03*
X004690Y017127D03*
X003026Y017103D03*
X006917Y017145D03*
X006921Y017137D03*
X007818Y017127D03*
D508*
X006250Y017103D03*
D509*
X007805Y017103D03*
D510*
X006251Y017105D03*
X004804Y017141D03*
D511*
X006252Y017107D03*
D512*
X006253Y017109D03*
D513*
X005700Y017127D03*
X003021Y017111D03*
D514*
X006254Y017111D03*
D515*
X006255Y017113D03*
D516*
X005892Y017127D03*
X005151Y017169D03*
X005149Y017161D03*
X004682Y017145D03*
X006910Y017161D03*
X006908Y017306D03*
X006910Y017314D03*
X007828Y017322D03*
D517*
X004803Y017139D03*
D518*
X004667Y017230D03*
X004667Y017232D03*
X004667Y017236D03*
X004667Y017238D03*
X004667Y017240D03*
X004667Y017244D03*
X005877Y017167D03*
X006346Y017328D03*
X006344Y017334D03*
X006344Y017336D03*
X003005Y017318D03*
X003005Y017143D03*
D519*
X003005Y017145D03*
X004667Y017234D03*
X004667Y017242D03*
D520*
X004806Y017145D03*
D521*
X005876Y017171D03*
X005876Y017173D03*
X005878Y017165D03*
X005878Y017163D03*
X006347Y017324D03*
X006347Y017326D03*
X003004Y017147D03*
D522*
X004808Y017147D03*
D523*
X004812Y017155D03*
D524*
X004814Y017157D03*
D525*
X004817Y017161D03*
D526*
X005671Y017161D03*
D527*
X004820Y017167D03*
X003739Y017711D03*
D528*
X005658Y017169D03*
D529*
X005876Y017169D03*
X006347Y017322D03*
D530*
X005654Y017171D03*
X008201Y017520D03*
D531*
X004825Y017175D03*
D532*
X004827Y017177D03*
D533*
X004828Y017179D03*
X008200Y017534D03*
D534*
X005635Y017181D03*
D535*
X005619Y017189D03*
D536*
X005615Y017192D03*
X006116Y017520D03*
D537*
X004843Y017202D03*
D538*
X005595Y017202D03*
D539*
X005591Y017204D03*
X005448Y017280D03*
D540*
X005587Y017206D03*
D541*
X004848Y017210D03*
D542*
X005139Y017210D03*
D543*
X005575Y017212D03*
X008200Y017487D03*
X008538Y017487D03*
D544*
X005116Y017216D03*
D545*
X004853Y017218D03*
D546*
X005108Y017218D03*
D547*
X005563Y017218D03*
D548*
X005395Y017306D03*
X005006Y017306D03*
X004992Y017298D03*
X004978Y017290D03*
X004920Y017258D03*
X004906Y017250D03*
X004892Y017242D03*
X004861Y017226D03*
D549*
X004870Y017230D03*
X004884Y017238D03*
X004902Y017248D03*
X004916Y017256D03*
X004996Y017300D03*
X005014Y017310D03*
X005029Y017318D03*
X005047Y017328D03*
X005061Y017336D03*
D550*
X005538Y017232D03*
D551*
X005036Y017322D03*
X005021Y017314D03*
X004877Y017234D03*
D552*
X005534Y017234D03*
D553*
X005523Y017240D03*
X006116Y017503D03*
X008200Y017473D03*
X008538Y017473D03*
D554*
X005519Y017242D03*
D555*
X005506Y017250D03*
D556*
X005491Y017258D03*
D557*
X005076Y017344D03*
X004999Y017302D03*
X004981Y017292D03*
X004967Y017284D03*
X004931Y017264D03*
X006255Y017433D03*
D558*
X004934Y017266D03*
D559*
X005476Y017266D03*
D560*
X005435Y017286D03*
D561*
X005415Y017296D03*
D562*
X005410Y017298D03*
D563*
X005367Y017322D03*
D564*
X004299Y017330D03*
X004299Y017338D03*
X004299Y017346D03*
X004299Y017355D03*
X004299Y017363D03*
X004299Y017371D03*
X004299Y017379D03*
X004299Y017387D03*
X004299Y017395D03*
X004299Y017403D03*
X004299Y017411D03*
X004299Y017419D03*
X004299Y017532D03*
X004299Y017540D03*
X004299Y017548D03*
X004299Y017556D03*
X004299Y017564D03*
X004299Y017572D03*
X004299Y017580D03*
X004299Y017588D03*
X004299Y017596D03*
X004299Y017604D03*
X004299Y017612D03*
X004299Y017620D03*
X004299Y017628D03*
X004299Y017636D03*
X004299Y017644D03*
X004299Y017652D03*
X004299Y017660D03*
X004299Y017669D03*
X003739Y017693D03*
X003739Y017620D03*
X003739Y017524D03*
X003739Y017516D03*
X003739Y017508D03*
X003739Y017499D03*
X003739Y017491D03*
X003739Y017483D03*
X003739Y017475D03*
X003739Y017467D03*
X003739Y017459D03*
X003739Y017451D03*
X003739Y017443D03*
X003739Y017435D03*
X003739Y017427D03*
X003739Y017419D03*
X003739Y017411D03*
X003739Y017403D03*
X003739Y017395D03*
X003739Y017387D03*
X003739Y017379D03*
X003739Y017371D03*
X003739Y017363D03*
X003739Y017355D03*
X003739Y017346D03*
X003739Y017338D03*
X003739Y017330D03*
X008693Y017330D03*
D565*
X008539Y017532D03*
X008201Y017532D03*
X008056Y017387D03*
X004684Y017330D03*
D566*
X005051Y017330D03*
X005065Y017338D03*
X003235Y017524D03*
X003104Y017435D03*
D567*
X005357Y017330D03*
D568*
X006344Y017338D03*
X006346Y017330D03*
D569*
X005887Y017338D03*
X006918Y017330D03*
X007370Y017338D03*
X007374Y017346D03*
X007821Y017338D03*
X007825Y017330D03*
X008369Y017355D03*
X004687Y017338D03*
D570*
X005337Y017371D03*
X005337Y017379D03*
X008047Y017355D03*
X008049Y017363D03*
X008047Y017346D03*
X008369Y017330D03*
X008689Y017363D03*
X008691Y017355D03*
D571*
X007824Y017332D03*
X005884Y017332D03*
X005340Y017397D03*
X003453Y017332D03*
X003016Y017349D03*
D572*
X003739Y017349D03*
X003739Y017357D03*
X003739Y017365D03*
X003739Y017373D03*
X003739Y017381D03*
X003739Y017389D03*
X003739Y017397D03*
X003739Y017405D03*
X003739Y017413D03*
X003739Y017421D03*
X003739Y017429D03*
X003739Y017437D03*
X003739Y017445D03*
X003739Y017453D03*
X003739Y017461D03*
X003739Y017469D03*
X003739Y017477D03*
X003739Y017485D03*
X003739Y017493D03*
X003739Y017501D03*
X003739Y017510D03*
X003739Y017518D03*
X003739Y017340D03*
X003739Y017332D03*
X004299Y017332D03*
X004299Y017340D03*
X004299Y017349D03*
X004299Y017357D03*
X004299Y017365D03*
X004299Y017373D03*
X004299Y017381D03*
X004299Y017389D03*
X004299Y017397D03*
X004299Y017405D03*
X004299Y017413D03*
X004299Y017421D03*
X004299Y017528D03*
X004299Y017536D03*
X004299Y017544D03*
X004299Y017552D03*
X004299Y017560D03*
X004299Y017568D03*
X004299Y017576D03*
X004299Y017584D03*
X004299Y017592D03*
X004299Y017600D03*
X004299Y017608D03*
X004299Y017616D03*
X004299Y017624D03*
X004299Y017632D03*
X004299Y017640D03*
X004299Y017648D03*
X004299Y017656D03*
X004299Y017665D03*
D573*
X004684Y017332D03*
X008054Y017381D03*
X008684Y017381D03*
D574*
X007137Y017510D03*
X005054Y017332D03*
D575*
X005355Y017332D03*
X005916Y017389D03*
X008078Y017421D03*
X008660Y017421D03*
D576*
X006345Y017332D03*
D577*
X006919Y017332D03*
X007818Y017349D03*
X008060Y017397D03*
X008678Y017397D03*
X004692Y017349D03*
X003446Y017349D03*
D578*
X004695Y017355D03*
X004699Y017363D03*
X005344Y017346D03*
X006922Y017338D03*
X006926Y017346D03*
X007378Y017355D03*
D579*
X005083Y017349D03*
X005069Y017340D03*
D580*
X005343Y017349D03*
X005892Y017349D03*
X006923Y017340D03*
X007375Y017349D03*
X003024Y017365D03*
D581*
X005079Y017346D03*
X005093Y017355D03*
D582*
X005347Y017411D03*
X005890Y017346D03*
X005894Y017355D03*
X006329Y017371D03*
X007814Y017355D03*
X003442Y017355D03*
X003024Y017363D03*
D583*
X004700Y017365D03*
X006927Y017349D03*
X007808Y017365D03*
X008066Y017405D03*
X008674Y017405D03*
D584*
X003019Y017355D03*
D585*
X003039Y017387D03*
X004705Y017371D03*
X005903Y017371D03*
X006930Y017355D03*
X007389Y017371D03*
X008669Y017411D03*
D586*
X008057Y017389D03*
X005344Y017405D03*
X003021Y017357D03*
D587*
X003441Y017357D03*
X004695Y017357D03*
X005348Y017413D03*
X005895Y017357D03*
X006328Y017373D03*
X007380Y017357D03*
X007813Y017357D03*
D588*
X008201Y017518D03*
X008537Y017518D03*
X005095Y017357D03*
D589*
X005098Y017361D03*
X005050Y017433D03*
D590*
X005354Y017419D03*
X005909Y017379D03*
X006318Y017387D03*
X006936Y017363D03*
X007799Y017379D03*
D591*
X008064Y017403D03*
X007383Y017363D03*
X006323Y017379D03*
D592*
X008369Y017363D03*
X003739Y017636D03*
X003739Y017677D03*
X003029Y017371D03*
D593*
X003374Y017429D03*
X004767Y017429D03*
X005101Y017365D03*
X006991Y017413D03*
X007450Y017429D03*
X007744Y017429D03*
D594*
X007385Y017365D03*
X005900Y017365D03*
X003738Y017673D03*
D595*
X003427Y017381D03*
X004712Y017381D03*
X006316Y017389D03*
X006938Y017365D03*
X007395Y017381D03*
X007799Y017381D03*
X008071Y017413D03*
X008369Y017373D03*
D596*
X008369Y017371D03*
X007805Y017371D03*
X003739Y017644D03*
X003739Y017669D03*
X003433Y017371D03*
D597*
X005104Y017371D03*
X006283Y017419D03*
X006976Y017403D03*
X008369Y017403D03*
D598*
X008075Y017419D03*
X006942Y017371D03*
X006312Y017395D03*
D599*
X003432Y017373D03*
D600*
X005105Y017373D03*
D601*
X005904Y017373D03*
X007390Y017373D03*
X007804Y017373D03*
X008668Y017413D03*
X003738Y017656D03*
X003040Y017389D03*
D602*
X003421Y017389D03*
X004718Y017389D03*
X006944Y017373D03*
D603*
X007415Y017403D03*
X007779Y017403D03*
X008369Y017387D03*
X006304Y017403D03*
X005110Y017379D03*
X004915Y017532D03*
X003061Y017411D03*
D604*
X003236Y017532D03*
X005921Y017395D03*
X006950Y017379D03*
X007407Y017395D03*
X007787Y017395D03*
D605*
X008369Y017379D03*
X008663Y017419D03*
X005915Y017387D03*
D606*
X008685Y017379D03*
D607*
X007785Y017397D03*
X005110Y017381D03*
X005106Y017389D03*
X004726Y017397D03*
D608*
X005910Y017381D03*
X007792Y017389D03*
D609*
X006322Y017381D03*
X003739Y017640D03*
X003739Y017648D03*
X003739Y017665D03*
D610*
X003414Y017397D03*
X005922Y017397D03*
X006951Y017381D03*
D611*
X008369Y017381D03*
X003047Y017397D03*
D612*
X006321Y017383D03*
D613*
X005107Y017387D03*
X004723Y017395D03*
X003416Y017395D03*
X007597Y017532D03*
D614*
X006960Y017389D03*
X008651Y017429D03*
X003063Y017413D03*
D615*
X003406Y017405D03*
X004733Y017405D03*
X005930Y017405D03*
X006301Y017405D03*
X007778Y017405D03*
X008370Y017389D03*
D616*
X003045Y017395D03*
D617*
X005101Y017395D03*
D618*
X005936Y017411D03*
X006965Y017395D03*
D619*
X007771Y017411D03*
X008369Y017395D03*
X004740Y017411D03*
X003401Y017411D03*
D620*
X005098Y017397D03*
X007417Y017405D03*
X008538Y017528D03*
D621*
X006309Y017397D03*
X005357Y017421D03*
D622*
X006968Y017397D03*
X008369Y017397D03*
D623*
X008369Y017399D03*
X006288Y017417D03*
X005078Y017417D03*
X003077Y017423D03*
D624*
X008370Y017401D03*
D625*
X003409Y017403D03*
D626*
X005094Y017403D03*
D627*
X006280Y017421D03*
X006979Y017405D03*
D628*
X008369Y017405D03*
D629*
X006982Y017407D03*
X003385Y017423D03*
D630*
X003070Y017419D03*
X005085Y017411D03*
X006295Y017411D03*
D631*
X005959Y017427D03*
X006988Y017411D03*
D632*
X007424Y017411D03*
D633*
X008369Y017411D03*
D634*
X006293Y017413D03*
X003398Y017413D03*
D635*
X004742Y017413D03*
D636*
X005083Y017413D03*
X007426Y017413D03*
X007768Y017413D03*
D637*
X005939Y017413D03*
X003073Y017421D03*
D638*
X008369Y017413D03*
D639*
X008369Y017415D03*
D640*
X005946Y017419D03*
D641*
X007004Y017419D03*
D642*
X008369Y017419D03*
X005044Y017435D03*
X004915Y017524D03*
D643*
X005073Y017421D03*
X004753Y017421D03*
X003388Y017421D03*
X007436Y017421D03*
X007758Y017421D03*
D644*
X005949Y017421D03*
D645*
X007010Y017421D03*
D646*
X008369Y017421D03*
D647*
X008538Y017524D03*
X003083Y017427D03*
D648*
X003378Y017427D03*
X004763Y017427D03*
X007748Y017427D03*
D649*
X007079Y017435D03*
X004404Y017435D03*
X004404Y017427D03*
X004404Y017443D03*
X004404Y017451D03*
X004404Y017459D03*
X004404Y017467D03*
X004404Y017475D03*
X004404Y017483D03*
X004404Y017491D03*
X004404Y017499D03*
X004404Y017508D03*
X004404Y017516D03*
X004404Y017524D03*
D650*
X005064Y017427D03*
D651*
X005511Y017427D03*
D652*
X006270Y017427D03*
D653*
X007076Y017427D03*
X008201Y017467D03*
D654*
X007446Y017427D03*
D655*
X008370Y017427D03*
D656*
X003087Y017429D03*
D657*
X004404Y017429D03*
X004404Y017437D03*
X004404Y017445D03*
X004404Y017453D03*
X004404Y017461D03*
X004404Y017469D03*
X004404Y017477D03*
X004404Y017485D03*
X004404Y017493D03*
X004404Y017501D03*
X004404Y017510D03*
X004404Y017518D03*
D658*
X004915Y017528D03*
X005060Y017429D03*
D659*
X004913Y017445D03*
X005511Y017429D03*
D660*
X006266Y017429D03*
D661*
X006116Y017501D03*
X007077Y017429D03*
X008200Y017469D03*
X008538Y017469D03*
D662*
X008087Y017429D03*
D663*
X008369Y017429D03*
D664*
X005056Y017431D03*
D665*
X008369Y017433D03*
D666*
X003359Y017435D03*
D667*
X004783Y017435D03*
X008201Y017516D03*
X008537Y017516D03*
D668*
X005512Y017435D03*
X003233Y017443D03*
D669*
X005981Y017435D03*
D670*
X006247Y017435D03*
D671*
X007468Y017435D03*
X007726Y017435D03*
D672*
X008098Y017435D03*
X008201Y017524D03*
X008639Y017435D03*
D673*
X008370Y017435D03*
D674*
X003232Y017437D03*
D675*
X004913Y017437D03*
D676*
X005513Y017437D03*
D677*
X006116Y017437D03*
D678*
X007080Y017437D03*
D679*
X007597Y017437D03*
D680*
X008369Y017437D03*
D681*
X008370Y017439D03*
D682*
X008369Y017441D03*
D683*
X004913Y017443D03*
D684*
X005514Y017443D03*
D685*
X006115Y017443D03*
D686*
X007083Y017443D03*
X008200Y017475D03*
X008538Y017475D03*
X004915Y017499D03*
D687*
X007597Y017443D03*
D688*
X008369Y017443D03*
D689*
X003233Y017445D03*
D690*
X005515Y017445D03*
D691*
X006115Y017445D03*
D692*
X007084Y017445D03*
D693*
X007597Y017445D03*
D694*
X008369Y017445D03*
D695*
X003233Y017447D03*
D696*
X008369Y017447D03*
D697*
X005518Y017455D03*
X005518Y017457D03*
X003233Y017449D03*
D698*
X008369Y017449D03*
D699*
X003233Y017451D03*
D700*
X004913Y017451D03*
D701*
X005516Y017451D03*
X007597Y017451D03*
D702*
X006116Y017451D03*
D703*
X007088Y017451D03*
D704*
X008369Y017451D03*
D705*
X003233Y017453D03*
D706*
X004913Y017453D03*
D707*
X005517Y017453D03*
D708*
X006116Y017453D03*
D709*
X007089Y017453D03*
X003234Y017501D03*
D710*
X007597Y017453D03*
D711*
X008369Y017453D03*
D712*
X006116Y017465D03*
X005521Y017465D03*
X004913Y017455D03*
D713*
X006116Y017455D03*
D714*
X008369Y017455D03*
D715*
X008370Y017457D03*
D716*
X003233Y017459D03*
D717*
X004913Y017459D03*
D718*
X005519Y017459D03*
D719*
X006116Y017459D03*
D720*
X007092Y017459D03*
D721*
X007597Y017459D03*
D722*
X008200Y017459D03*
D723*
X008538Y017459D03*
D724*
X003233Y017461D03*
D725*
X005520Y017461D03*
D726*
X006116Y017461D03*
D727*
X007094Y017461D03*
D728*
X007597Y017461D03*
D729*
X008200Y017461D03*
X008538Y017461D03*
D730*
X003233Y017463D03*
D731*
X008200Y017463D03*
X008538Y017463D03*
D732*
X005534Y017489D03*
X003233Y017465D03*
D733*
X003233Y017467D03*
D734*
X004913Y017467D03*
D735*
X005522Y017467D03*
D736*
X006116Y017467D03*
D737*
X007098Y017467D03*
X004914Y017508D03*
D738*
X007597Y017467D03*
D739*
X008538Y017467D03*
D740*
X003233Y017469D03*
D741*
X005523Y017469D03*
D742*
X006116Y017469D03*
D743*
X007099Y017469D03*
D744*
X007597Y017469D03*
D745*
X005540Y017497D03*
X004914Y017473D03*
X003233Y017471D03*
D746*
X003234Y017495D03*
X005573Y017522D03*
X008200Y017471D03*
X008538Y017471D03*
D747*
X005525Y017473D03*
D748*
X003234Y017475D03*
D749*
X006116Y017475D03*
D750*
X007103Y017475D03*
D751*
X007596Y017475D03*
D752*
X004913Y017477D03*
D753*
X007105Y017477D03*
D754*
X007597Y017477D03*
X006117Y017485D03*
D755*
X008200Y017477D03*
D756*
X008538Y017477D03*
D757*
X006116Y017481D03*
D758*
X006116Y017491D03*
X003234Y017483D03*
D759*
X004913Y017483D03*
D760*
X005530Y017483D03*
D761*
X006116Y017483D03*
D762*
X007109Y017483D03*
D763*
X007597Y017483D03*
D764*
X008201Y017483D03*
D765*
X008538Y017483D03*
D766*
X006117Y017493D03*
X003233Y017485D03*
D767*
X004914Y017485D03*
D768*
X005531Y017485D03*
D769*
X007111Y017485D03*
D770*
X007597Y017485D03*
D771*
X008200Y017485D03*
X008538Y017485D03*
X006116Y017510D03*
D772*
X004914Y017487D03*
D773*
X006116Y017487D03*
D774*
X006117Y017497D03*
X003233Y017489D03*
D775*
X006116Y017512D03*
X008200Y017489D03*
X008538Y017489D03*
D776*
X003234Y017491D03*
D777*
X004914Y017491D03*
D778*
X007116Y017491D03*
D779*
X007597Y017491D03*
D780*
X008201Y017491D03*
D781*
X008538Y017491D03*
D782*
X003234Y017493D03*
D783*
X004914Y017493D03*
D784*
X005537Y017493D03*
D785*
X007118Y017493D03*
D786*
X007596Y017493D03*
D787*
X008201Y017493D03*
D788*
X008537Y017493D03*
X004914Y017510D03*
D789*
X008538Y017495D03*
D790*
X007596Y017499D03*
X005579Y017524D03*
X003234Y017499D03*
D791*
X005541Y017499D03*
D792*
X006117Y017499D03*
D793*
X007124Y017499D03*
D794*
X008201Y017499D03*
X008537Y017499D03*
D795*
X004915Y017501D03*
D796*
X005543Y017501D03*
D797*
X007126Y017501D03*
D798*
X007597Y017501D03*
D799*
X008201Y017501D03*
X006117Y017518D03*
D800*
X008538Y017501D03*
D801*
X008538Y017503D03*
D802*
X007597Y017508D03*
X003235Y017508D03*
D803*
X005550Y017508D03*
D804*
X006116Y017508D03*
D805*
X007134Y017508D03*
D806*
X008201Y017508D03*
D807*
X008538Y017508D03*
D808*
X007597Y017510D03*
X003235Y017510D03*
D809*
X005552Y017510D03*
D810*
X008200Y017510D03*
X008538Y017510D03*
D811*
X008538Y017512D03*
D812*
X008537Y017514D03*
X008201Y017514D03*
X003235Y017522D03*
D813*
X003234Y017516D03*
D814*
X004915Y017516D03*
D815*
X005561Y017516D03*
D816*
X006117Y017516D03*
D817*
X007597Y017516D03*
D818*
X003235Y017518D03*
D819*
X004915Y017518D03*
D820*
X005564Y017518D03*
D821*
X007150Y017518D03*
D822*
X007597Y017518D03*
D823*
X003234Y017520D03*
D824*
X004915Y017520D03*
D825*
X008538Y017520D03*
D826*
X006116Y017524D03*
D827*
X007596Y017524D03*
D828*
X006116Y017526D03*
D829*
X003236Y017528D03*
D830*
X006116Y017528D03*
D831*
X007597Y017528D03*
D832*
X008200Y017528D03*
D833*
X006116Y017532D03*
D834*
X003237Y017536D03*
D835*
X004915Y017536D03*
D836*
X007596Y017536D03*
D837*
X008200Y017536D03*
D838*
X008539Y017536D03*
D839*
X006115Y017538D03*
D840*
X003738Y017592D03*
D841*
X003739Y017596D03*
D842*
X003738Y017598D03*
D843*
X003739Y017600D03*
D844*
X003739Y017604D03*
D845*
X003738Y017608D03*
D846*
X003739Y017610D03*
X003739Y017703D03*
D847*
X003739Y017701D03*
X003739Y017612D03*
D848*
X003739Y017614D03*
X003739Y017699D03*
D849*
X003739Y017616D03*
D850*
X003738Y017697D03*
D851*
X003739Y017705D03*
D852*
X003739Y017709D03*
D853*
X003739Y017713D03*
D854*
X003739Y017715D03*
D855*
X003738Y017717D03*
D856*
X003739Y017719D03*
D857*
X012500Y016190D02*
X012500Y008997D01*
X014057Y007440D01*
X014072Y009070D02*
X013100Y010042D01*
X013100Y015940D01*
X013700Y016540D01*
X013700Y016790D01*
X012912Y016790D02*
X012912Y016602D01*
X012500Y016190D01*
D858*
X013700Y016790D02*
X014700Y016790D01*
X014845Y016935D01*
X014845Y017540D01*
X015550Y017535D02*
X015550Y017090D01*
X015550Y017535D02*
X015555Y017540D01*
D859*
X010120Y009670D02*
X006614Y013176D01*
X002773Y013176D01*
X002773Y011117D02*
X005423Y011117D01*
X008151Y008389D01*
X008151Y007440D01*
X010120Y007440D02*
X010120Y009670D01*
D860*
X015550Y017090D03*
M02*
