G75*
G70*
%OFA0B0*%
%FSLAX24Y24*%
%IPPOS*%
%LPD*%
%AMOC8*
5,1,8,0,0,1.08239X$1,22.5*
%
%ADD10C,0.0160*%
%ADD11C,0.0000*%
D10*
X001140Y001540D02*
X009040Y001540D01*
X009079Y001538D01*
X009118Y001532D01*
X009156Y001523D01*
X009193Y001510D01*
X009229Y001493D01*
X009262Y001473D01*
X009294Y001449D01*
X009323Y001423D01*
X009349Y001394D01*
X009373Y001362D01*
X009393Y001329D01*
X009410Y001293D01*
X009423Y001256D01*
X009432Y001218D01*
X009438Y001179D01*
X009440Y001140D01*
X009442Y001101D01*
X009448Y001062D01*
X009457Y001024D01*
X009470Y000987D01*
X009487Y000951D01*
X009507Y000918D01*
X009531Y000886D01*
X009557Y000857D01*
X009586Y000831D01*
X009618Y000807D01*
X009651Y000787D01*
X009687Y000770D01*
X009724Y000757D01*
X009762Y000748D01*
X009801Y000742D01*
X009840Y000740D01*
X014040Y000740D01*
X014079Y000742D01*
X014118Y000748D01*
X014156Y000757D01*
X014193Y000770D01*
X014229Y000787D01*
X014262Y000807D01*
X014294Y000831D01*
X014323Y000857D01*
X014349Y000886D01*
X014373Y000918D01*
X014393Y000951D01*
X014410Y000987D01*
X014423Y001024D01*
X014432Y001062D01*
X014438Y001101D01*
X014440Y001140D01*
X014442Y001179D01*
X014448Y001218D01*
X014457Y001256D01*
X014470Y001293D01*
X014487Y001329D01*
X014507Y001362D01*
X014531Y001394D01*
X014557Y001423D01*
X014586Y001449D01*
X014618Y001473D01*
X014651Y001493D01*
X014687Y001510D01*
X014724Y001523D01*
X014762Y001532D01*
X014801Y001538D01*
X014840Y001540D01*
X015140Y001540D01*
X015179Y001542D01*
X015218Y001548D01*
X015256Y001557D01*
X015293Y001570D01*
X015329Y001587D01*
X015362Y001607D01*
X015394Y001631D01*
X015423Y001657D01*
X015449Y001686D01*
X015473Y001718D01*
X015493Y001751D01*
X015510Y001787D01*
X015523Y001824D01*
X015532Y001862D01*
X015538Y001901D01*
X015540Y001940D01*
X015540Y004340D01*
X015538Y004366D01*
X015533Y004392D01*
X015525Y004417D01*
X015513Y004440D01*
X015499Y004462D01*
X015481Y004481D01*
X015462Y004499D01*
X015440Y004513D01*
X015417Y004525D01*
X015392Y004533D01*
X015366Y004538D01*
X015340Y004540D01*
X008940Y004540D01*
X008914Y004542D01*
X008888Y004547D01*
X008863Y004555D01*
X008840Y004567D01*
X008818Y004581D01*
X008799Y004599D01*
X008781Y004618D01*
X008767Y004640D01*
X008755Y004663D01*
X008747Y004688D01*
X008742Y004714D01*
X008740Y004740D01*
X008740Y007240D01*
X008738Y007266D01*
X008733Y007292D01*
X008725Y007317D01*
X008713Y007340D01*
X008699Y007362D01*
X008681Y007381D01*
X008662Y007399D01*
X008640Y007413D01*
X008617Y007425D01*
X008592Y007433D01*
X008566Y007438D01*
X008540Y007440D01*
X006440Y007440D01*
X006414Y007442D01*
X006388Y007447D01*
X006363Y007455D01*
X006340Y007467D01*
X006318Y007481D01*
X006299Y007499D01*
X006281Y007518D01*
X006267Y007540D01*
X006255Y007563D01*
X006247Y007588D01*
X006242Y007614D01*
X006240Y007640D01*
X006240Y007940D01*
X006238Y007966D01*
X006233Y007992D01*
X006225Y008017D01*
X006213Y008040D01*
X006199Y008062D01*
X006181Y008081D01*
X006162Y008099D01*
X006140Y008113D01*
X006117Y008125D01*
X006092Y008133D01*
X006066Y008138D01*
X006040Y008140D01*
X000940Y008140D01*
X000914Y008138D01*
X000888Y008133D01*
X000863Y008125D01*
X000840Y008113D01*
X000818Y008099D01*
X000799Y008081D01*
X000781Y008062D01*
X000767Y008040D01*
X000755Y008017D01*
X000747Y007992D01*
X000742Y007966D01*
X000740Y007940D01*
X000740Y001940D01*
X000742Y001901D01*
X000748Y001862D01*
X000757Y001824D01*
X000770Y001787D01*
X000787Y001751D01*
X000807Y001718D01*
X000831Y001686D01*
X000857Y001657D01*
X000886Y001631D01*
X000918Y001607D01*
X000951Y001587D01*
X000987Y001570D01*
X001024Y001557D01*
X001062Y001548D01*
X001101Y001542D01*
X001140Y001540D01*
D11*
X002899Y002957D02*
X002901Y002983D01*
X002907Y003009D01*
X002917Y003034D01*
X002930Y003057D01*
X002946Y003077D01*
X002966Y003095D01*
X002988Y003110D01*
X003011Y003122D01*
X003037Y003130D01*
X003063Y003134D01*
X003089Y003134D01*
X003115Y003130D01*
X003141Y003122D01*
X003165Y003110D01*
X003186Y003095D01*
X003206Y003077D01*
X003222Y003057D01*
X003235Y003034D01*
X003245Y003009D01*
X003251Y002983D01*
X003253Y002957D01*
X003251Y002931D01*
X003245Y002905D01*
X003235Y002880D01*
X003222Y002857D01*
X003206Y002837D01*
X003186Y002819D01*
X003164Y002804D01*
X003141Y002792D01*
X003115Y002784D01*
X003089Y002780D01*
X003063Y002780D01*
X003037Y002784D01*
X003011Y002792D01*
X002987Y002804D01*
X002966Y002819D01*
X002946Y002837D01*
X002930Y002857D01*
X002917Y002880D01*
X002907Y002905D01*
X002901Y002931D01*
X002899Y002957D01*
X005982Y002953D02*
X005984Y002979D01*
X005990Y003005D01*
X006000Y003030D01*
X006013Y003053D01*
X006029Y003073D01*
X006049Y003091D01*
X006071Y003106D01*
X006094Y003118D01*
X006120Y003126D01*
X006146Y003130D01*
X006172Y003130D01*
X006198Y003126D01*
X006224Y003118D01*
X006248Y003106D01*
X006269Y003091D01*
X006289Y003073D01*
X006305Y003053D01*
X006318Y003030D01*
X006328Y003005D01*
X006334Y002979D01*
X006336Y002953D01*
X006334Y002927D01*
X006328Y002901D01*
X006318Y002876D01*
X006305Y002853D01*
X006289Y002833D01*
X006269Y002815D01*
X006247Y002800D01*
X006224Y002788D01*
X006198Y002780D01*
X006172Y002776D01*
X006146Y002776D01*
X006120Y002780D01*
X006094Y002788D01*
X006070Y002800D01*
X006049Y002815D01*
X006029Y002833D01*
X006013Y002853D01*
X006000Y002876D01*
X005990Y002901D01*
X005984Y002927D01*
X005982Y002953D01*
X010672Y002759D02*
X010674Y002781D01*
X010680Y002803D01*
X010689Y002823D01*
X010702Y002841D01*
X010718Y002857D01*
X010736Y002870D01*
X010756Y002879D01*
X010778Y002885D01*
X010800Y002887D01*
X010822Y002885D01*
X010844Y002879D01*
X010864Y002870D01*
X010882Y002857D01*
X010898Y002841D01*
X010911Y002823D01*
X010920Y002803D01*
X010926Y002781D01*
X010928Y002759D01*
X010926Y002737D01*
X010920Y002715D01*
X010911Y002695D01*
X010898Y002677D01*
X010882Y002661D01*
X010864Y002648D01*
X010844Y002639D01*
X010822Y002633D01*
X010800Y002631D01*
X010778Y002633D01*
X010756Y002639D01*
X010736Y002648D01*
X010718Y002661D01*
X010702Y002677D01*
X010689Y002695D01*
X010680Y002715D01*
X010674Y002737D01*
X010672Y002759D01*
X012947Y002759D02*
X012949Y002781D01*
X012955Y002803D01*
X012964Y002823D01*
X012977Y002841D01*
X012993Y002857D01*
X013011Y002870D01*
X013031Y002879D01*
X013053Y002885D01*
X013075Y002887D01*
X013097Y002885D01*
X013119Y002879D01*
X013139Y002870D01*
X013157Y002857D01*
X013173Y002841D01*
X013186Y002823D01*
X013195Y002803D01*
X013201Y002781D01*
X013203Y002759D01*
X013201Y002737D01*
X013195Y002715D01*
X013186Y002695D01*
X013173Y002677D01*
X013157Y002661D01*
X013139Y002648D01*
X013119Y002639D01*
X013097Y002633D01*
X013075Y002631D01*
X013053Y002633D01*
X013031Y002639D01*
X013011Y002648D01*
X012993Y002661D01*
X012977Y002677D01*
X012964Y002695D01*
X012955Y002715D01*
X012949Y002737D01*
X012947Y002759D01*
M02*
