%
M48
M72
T01C0.0120
T02C0.0140
T03C0.0180
T04C0.0256
T05C0.0354
T06C0.0400
%
T01
X12490Y3890
X14340Y2490
T02
X14040Y3890
X13690Y3890
X13340Y3890
X9590Y3240
X7740Y2190
X7390Y2190
X7040Y2190
X6690Y2190
X6340Y2190
X2840Y5940
X3040Y6340
X2390Y6540
X3690Y7740
T03
X4540Y7740
X6340Y6290
X10973Y3878
X12902Y3878
T04
X13075Y2759
X10800Y2759
T05
X3076Y2957
X6159Y2953
T06
X5640Y4140
X4640Y4140
X3640Y4140
X3640Y5140
X4640Y5140
X5640Y5140
X11440Y2390
X12440Y2390
X12440Y1390
X11440Y1390
M30
