G75*
G70*
%OFA0B0*%
%FSLAX24Y24*%
%IPPOS*%
%LPD*%
%AMOC8*
5,1,8,0,0,1.08239X$1,22.5*
%
%ADD10C,0.0000*%
%ADD11C,0.1000*%
%ADD12C,0.0600*%
%ADD13C,0.0160*%
%ADD14R,0.0591X0.0354*%
%ADD15R,0.0354X0.0591*%
%ADD16R,0.2362X0.2362*%
%ADD17C,0.0118*%
%ADD18R,0.0610X0.0512*%
%ADD19R,0.0787X0.0354*%
%ADD20R,0.1969X0.1969*%
%ADD21C,0.0055*%
%ADD22R,0.0984X0.0984*%
%ADD23R,0.0630X0.0433*%
%ADD24R,0.0315X0.0354*%
%ADD25R,0.0394X0.0433*%
%ADD26R,0.0236X0.0866*%
%ADD27R,0.0472X0.0276*%
%ADD28R,0.0433X0.0394*%
%ADD29R,0.0197X0.0276*%
%ADD30C,0.0675*%
%ADD31C,0.0600*%
%ADD32R,0.0400X0.0700*%
%ADD33R,0.0315X0.0197*%
%ADD34R,0.0079X0.0079*%
%ADD35C,0.0050*%
%ADD36R,0.0256X0.0197*%
%ADD37R,0.0197X0.0256*%
%ADD38C,0.0787*%
%ADD39C,0.0700*%
%ADD40R,0.0240X0.0870*%
%ADD41R,0.0394X0.0551*%
%ADD42OC8,0.0850*%
%ADD43R,0.0453X0.0433*%
%ADD44R,0.0630X0.0551*%
%ADD45OC8,0.0600*%
%ADD46R,0.0315X0.0551*%
%ADD47C,0.0500*%
D10*
X001696Y002796D02*
X001698Y002840D01*
X001704Y002884D01*
X001714Y002927D01*
X001727Y002969D01*
X001744Y003010D01*
X001765Y003049D01*
X001789Y003086D01*
X001816Y003121D01*
X001846Y003153D01*
X001879Y003183D01*
X001915Y003209D01*
X001952Y003233D01*
X001992Y003252D01*
X002033Y003269D01*
X002076Y003281D01*
X002119Y003290D01*
X002163Y003295D01*
X002207Y003296D01*
X002251Y003293D01*
X002295Y003286D01*
X002338Y003275D01*
X002380Y003261D01*
X002420Y003243D01*
X002459Y003221D01*
X002495Y003197D01*
X002529Y003169D01*
X002561Y003138D01*
X002590Y003104D01*
X002616Y003068D01*
X002638Y003030D01*
X002657Y002990D01*
X002672Y002948D01*
X002684Y002906D01*
X002692Y002862D01*
X002696Y002818D01*
X002696Y002774D01*
X002692Y002730D01*
X002684Y002686D01*
X002672Y002644D01*
X002657Y002602D01*
X002638Y002562D01*
X002616Y002524D01*
X002590Y002488D01*
X002561Y002454D01*
X002529Y002423D01*
X002495Y002395D01*
X002459Y002371D01*
X002420Y002349D01*
X002380Y002331D01*
X002338Y002317D01*
X002295Y002306D01*
X002251Y002299D01*
X002207Y002296D01*
X002163Y002297D01*
X002119Y002302D01*
X002076Y002311D01*
X002033Y002323D01*
X001992Y002340D01*
X001952Y002359D01*
X001915Y002383D01*
X001879Y002409D01*
X001846Y002439D01*
X001816Y002471D01*
X001789Y002506D01*
X001765Y002543D01*
X001744Y002582D01*
X001727Y002623D01*
X001714Y002665D01*
X001704Y002708D01*
X001698Y002752D01*
X001696Y002796D01*
X001896Y002796D02*
X001898Y002840D01*
X001904Y002884D01*
X001914Y002927D01*
X001927Y002969D01*
X001944Y003010D01*
X001965Y003049D01*
X001989Y003086D01*
X002016Y003121D01*
X002046Y003153D01*
X002079Y003183D01*
X002115Y003209D01*
X002152Y003233D01*
X002192Y003252D01*
X002233Y003269D01*
X002276Y003281D01*
X002319Y003290D01*
X002363Y003295D01*
X002407Y003296D01*
X002451Y003293D01*
X002495Y003286D01*
X002538Y003275D01*
X002580Y003261D01*
X002620Y003243D01*
X002659Y003221D01*
X002695Y003197D01*
X002729Y003169D01*
X002761Y003138D01*
X002790Y003104D01*
X002816Y003068D01*
X002838Y003030D01*
X002857Y002990D01*
X002872Y002948D01*
X002884Y002906D01*
X002892Y002862D01*
X002896Y002818D01*
X002896Y002774D01*
X002892Y002730D01*
X002884Y002686D01*
X002872Y002644D01*
X002857Y002602D01*
X002838Y002562D01*
X002816Y002524D01*
X002790Y002488D01*
X002761Y002454D01*
X002729Y002423D01*
X002695Y002395D01*
X002659Y002371D01*
X002620Y002349D01*
X002580Y002331D01*
X002538Y002317D01*
X002495Y002306D01*
X002451Y002299D01*
X002407Y002296D01*
X002363Y002297D01*
X002319Y002302D01*
X002276Y002311D01*
X002233Y002323D01*
X002192Y002340D01*
X002152Y002359D01*
X002115Y002383D01*
X002079Y002409D01*
X002046Y002439D01*
X002016Y002471D01*
X001989Y002506D01*
X001965Y002543D01*
X001944Y002582D01*
X001927Y002623D01*
X001914Y002665D01*
X001904Y002708D01*
X001898Y002752D01*
X001896Y002796D01*
X002232Y004331D02*
X002234Y004365D01*
X002240Y004399D01*
X002249Y004432D01*
X002263Y004463D01*
X002280Y004493D01*
X002300Y004521D01*
X002323Y004546D01*
X002349Y004569D01*
X002377Y004588D01*
X002407Y004604D01*
X002439Y004616D01*
X002472Y004625D01*
X002506Y004630D01*
X002541Y004631D01*
X002575Y004628D01*
X002608Y004621D01*
X002641Y004611D01*
X002672Y004596D01*
X002701Y004579D01*
X002728Y004558D01*
X002753Y004534D01*
X002775Y004507D01*
X002793Y004479D01*
X002808Y004448D01*
X002820Y004416D01*
X002828Y004382D01*
X002832Y004348D01*
X002832Y004314D01*
X002828Y004280D01*
X002820Y004246D01*
X002808Y004214D01*
X002793Y004183D01*
X002775Y004155D01*
X002753Y004128D01*
X002728Y004104D01*
X002701Y004083D01*
X002672Y004066D01*
X002641Y004051D01*
X002608Y004041D01*
X002575Y004034D01*
X002541Y004031D01*
X002506Y004032D01*
X002472Y004037D01*
X002439Y004046D01*
X002407Y004058D01*
X002377Y004074D01*
X002349Y004093D01*
X002323Y004116D01*
X002300Y004141D01*
X002280Y004169D01*
X002263Y004199D01*
X002249Y004230D01*
X002240Y004263D01*
X002234Y004297D01*
X002232Y004331D01*
X006792Y016535D02*
X006794Y016574D01*
X006800Y016613D01*
X006810Y016651D01*
X006823Y016688D01*
X006840Y016723D01*
X006860Y016757D01*
X006884Y016788D01*
X006911Y016817D01*
X006940Y016843D01*
X006972Y016866D01*
X007006Y016886D01*
X007042Y016902D01*
X007079Y016914D01*
X007118Y016923D01*
X007157Y016928D01*
X007196Y016929D01*
X007235Y016926D01*
X007274Y016919D01*
X007311Y016908D01*
X007348Y016894D01*
X007383Y016876D01*
X007416Y016855D01*
X007447Y016830D01*
X007475Y016803D01*
X007500Y016773D01*
X007522Y016740D01*
X007541Y016706D01*
X007556Y016670D01*
X007568Y016632D01*
X007576Y016594D01*
X007580Y016555D01*
X007580Y016515D01*
X007576Y016476D01*
X007568Y016438D01*
X007556Y016400D01*
X007541Y016364D01*
X007522Y016330D01*
X007500Y016297D01*
X007475Y016267D01*
X007447Y016240D01*
X007416Y016215D01*
X007383Y016194D01*
X007348Y016176D01*
X007311Y016162D01*
X007274Y016151D01*
X007235Y016144D01*
X007196Y016141D01*
X007157Y016142D01*
X007118Y016147D01*
X007079Y016156D01*
X007042Y016168D01*
X007006Y016184D01*
X006972Y016204D01*
X006940Y016227D01*
X006911Y016253D01*
X006884Y016282D01*
X006860Y016313D01*
X006840Y016347D01*
X006823Y016382D01*
X006810Y016419D01*
X006800Y016457D01*
X006794Y016496D01*
X006792Y016535D01*
X006792Y028346D02*
X006794Y028385D01*
X006800Y028424D01*
X006810Y028462D01*
X006823Y028499D01*
X006840Y028534D01*
X006860Y028568D01*
X006884Y028599D01*
X006911Y028628D01*
X006940Y028654D01*
X006972Y028677D01*
X007006Y028697D01*
X007042Y028713D01*
X007079Y028725D01*
X007118Y028734D01*
X007157Y028739D01*
X007196Y028740D01*
X007235Y028737D01*
X007274Y028730D01*
X007311Y028719D01*
X007348Y028705D01*
X007383Y028687D01*
X007416Y028666D01*
X007447Y028641D01*
X007475Y028614D01*
X007500Y028584D01*
X007522Y028551D01*
X007541Y028517D01*
X007556Y028481D01*
X007568Y028443D01*
X007576Y028405D01*
X007580Y028366D01*
X007580Y028326D01*
X007576Y028287D01*
X007568Y028249D01*
X007556Y028211D01*
X007541Y028175D01*
X007522Y028141D01*
X007500Y028108D01*
X007475Y028078D01*
X007447Y028051D01*
X007416Y028026D01*
X007383Y028005D01*
X007348Y027987D01*
X007311Y027973D01*
X007274Y027962D01*
X007235Y027955D01*
X007196Y027952D01*
X007157Y027953D01*
X007118Y027958D01*
X007079Y027967D01*
X007042Y027979D01*
X007006Y027995D01*
X006972Y028015D01*
X006940Y028038D01*
X006911Y028064D01*
X006884Y028093D01*
X006860Y028124D01*
X006840Y028158D01*
X006823Y028193D01*
X006810Y028230D01*
X006800Y028268D01*
X006794Y028307D01*
X006792Y028346D01*
X001974Y030512D02*
X001976Y030556D01*
X001982Y030600D01*
X001992Y030643D01*
X002005Y030685D01*
X002022Y030726D01*
X002043Y030765D01*
X002067Y030802D01*
X002094Y030837D01*
X002124Y030869D01*
X002157Y030899D01*
X002193Y030925D01*
X002230Y030949D01*
X002270Y030968D01*
X002311Y030985D01*
X002354Y030997D01*
X002397Y031006D01*
X002441Y031011D01*
X002485Y031012D01*
X002529Y031009D01*
X002573Y031002D01*
X002616Y030991D01*
X002658Y030977D01*
X002698Y030959D01*
X002737Y030937D01*
X002773Y030913D01*
X002807Y030885D01*
X002839Y030854D01*
X002868Y030820D01*
X002894Y030784D01*
X002916Y030746D01*
X002935Y030706D01*
X002950Y030664D01*
X002962Y030622D01*
X002970Y030578D01*
X002974Y030534D01*
X002974Y030490D01*
X002970Y030446D01*
X002962Y030402D01*
X002950Y030360D01*
X002935Y030318D01*
X002916Y030278D01*
X002894Y030240D01*
X002868Y030204D01*
X002839Y030170D01*
X002807Y030139D01*
X002773Y030111D01*
X002737Y030087D01*
X002698Y030065D01*
X002658Y030047D01*
X002616Y030033D01*
X002573Y030022D01*
X002529Y030015D01*
X002485Y030012D01*
X002441Y030013D01*
X002397Y030018D01*
X002354Y030027D01*
X002311Y030039D01*
X002270Y030056D01*
X002230Y030075D01*
X002193Y030099D01*
X002157Y030125D01*
X002124Y030155D01*
X002094Y030187D01*
X002067Y030222D01*
X002043Y030259D01*
X002022Y030298D01*
X002005Y030339D01*
X001992Y030381D01*
X001982Y030424D01*
X001976Y030468D01*
X001974Y030512D01*
X001774Y030512D02*
X001776Y030556D01*
X001782Y030600D01*
X001792Y030643D01*
X001805Y030685D01*
X001822Y030726D01*
X001843Y030765D01*
X001867Y030802D01*
X001894Y030837D01*
X001924Y030869D01*
X001957Y030899D01*
X001993Y030925D01*
X002030Y030949D01*
X002070Y030968D01*
X002111Y030985D01*
X002154Y030997D01*
X002197Y031006D01*
X002241Y031011D01*
X002285Y031012D01*
X002329Y031009D01*
X002373Y031002D01*
X002416Y030991D01*
X002458Y030977D01*
X002498Y030959D01*
X002537Y030937D01*
X002573Y030913D01*
X002607Y030885D01*
X002639Y030854D01*
X002668Y030820D01*
X002694Y030784D01*
X002716Y030746D01*
X002735Y030706D01*
X002750Y030664D01*
X002762Y030622D01*
X002770Y030578D01*
X002774Y030534D01*
X002774Y030490D01*
X002770Y030446D01*
X002762Y030402D01*
X002750Y030360D01*
X002735Y030318D01*
X002716Y030278D01*
X002694Y030240D01*
X002668Y030204D01*
X002639Y030170D01*
X002607Y030139D01*
X002573Y030111D01*
X002537Y030087D01*
X002498Y030065D01*
X002458Y030047D01*
X002416Y030033D01*
X002373Y030022D01*
X002329Y030015D01*
X002285Y030012D01*
X002241Y030013D01*
X002197Y030018D01*
X002154Y030027D01*
X002111Y030039D01*
X002070Y030056D01*
X002030Y030075D01*
X001993Y030099D01*
X001957Y030125D01*
X001924Y030155D01*
X001894Y030187D01*
X001867Y030222D01*
X001843Y030259D01*
X001822Y030298D01*
X001805Y030339D01*
X001792Y030381D01*
X001782Y030424D01*
X001776Y030468D01*
X001774Y030512D01*
X018603Y028346D02*
X018605Y028385D01*
X018611Y028424D01*
X018621Y028462D01*
X018634Y028499D01*
X018651Y028534D01*
X018671Y028568D01*
X018695Y028599D01*
X018722Y028628D01*
X018751Y028654D01*
X018783Y028677D01*
X018817Y028697D01*
X018853Y028713D01*
X018890Y028725D01*
X018929Y028734D01*
X018968Y028739D01*
X019007Y028740D01*
X019046Y028737D01*
X019085Y028730D01*
X019122Y028719D01*
X019159Y028705D01*
X019194Y028687D01*
X019227Y028666D01*
X019258Y028641D01*
X019286Y028614D01*
X019311Y028584D01*
X019333Y028551D01*
X019352Y028517D01*
X019367Y028481D01*
X019379Y028443D01*
X019387Y028405D01*
X019391Y028366D01*
X019391Y028326D01*
X019387Y028287D01*
X019379Y028249D01*
X019367Y028211D01*
X019352Y028175D01*
X019333Y028141D01*
X019311Y028108D01*
X019286Y028078D01*
X019258Y028051D01*
X019227Y028026D01*
X019194Y028005D01*
X019159Y027987D01*
X019122Y027973D01*
X019085Y027962D01*
X019046Y027955D01*
X019007Y027952D01*
X018968Y027953D01*
X018929Y027958D01*
X018890Y027967D01*
X018853Y027979D01*
X018817Y027995D01*
X018783Y028015D01*
X018751Y028038D01*
X018722Y028064D01*
X018695Y028093D01*
X018671Y028124D01*
X018651Y028158D01*
X018634Y028193D01*
X018621Y028230D01*
X018611Y028268D01*
X018605Y028307D01*
X018603Y028346D01*
X018603Y016535D02*
X018605Y016574D01*
X018611Y016613D01*
X018621Y016651D01*
X018634Y016688D01*
X018651Y016723D01*
X018671Y016757D01*
X018695Y016788D01*
X018722Y016817D01*
X018751Y016843D01*
X018783Y016866D01*
X018817Y016886D01*
X018853Y016902D01*
X018890Y016914D01*
X018929Y016923D01*
X018968Y016928D01*
X019007Y016929D01*
X019046Y016926D01*
X019085Y016919D01*
X019122Y016908D01*
X019159Y016894D01*
X019194Y016876D01*
X019227Y016855D01*
X019258Y016830D01*
X019286Y016803D01*
X019311Y016773D01*
X019333Y016740D01*
X019352Y016706D01*
X019367Y016670D01*
X019379Y016632D01*
X019387Y016594D01*
X019391Y016555D01*
X019391Y016515D01*
X019387Y016476D01*
X019379Y016438D01*
X019367Y016400D01*
X019352Y016364D01*
X019333Y016330D01*
X019311Y016297D01*
X019286Y016267D01*
X019258Y016240D01*
X019227Y016215D01*
X019194Y016194D01*
X019159Y016176D01*
X019122Y016162D01*
X019085Y016151D01*
X019046Y016144D01*
X019007Y016141D01*
X018968Y016142D01*
X018929Y016147D01*
X018890Y016156D01*
X018853Y016168D01*
X018817Y016184D01*
X018783Y016204D01*
X018751Y016227D01*
X018722Y016253D01*
X018695Y016282D01*
X018671Y016313D01*
X018651Y016347D01*
X018634Y016382D01*
X018621Y016419D01*
X018611Y016457D01*
X018605Y016496D01*
X018603Y016535D01*
X031953Y002796D02*
X031955Y002840D01*
X031961Y002884D01*
X031971Y002927D01*
X031984Y002969D01*
X032001Y003010D01*
X032022Y003049D01*
X032046Y003086D01*
X032073Y003121D01*
X032103Y003153D01*
X032136Y003183D01*
X032172Y003209D01*
X032209Y003233D01*
X032249Y003252D01*
X032290Y003269D01*
X032333Y003281D01*
X032376Y003290D01*
X032420Y003295D01*
X032464Y003296D01*
X032508Y003293D01*
X032552Y003286D01*
X032595Y003275D01*
X032637Y003261D01*
X032677Y003243D01*
X032716Y003221D01*
X032752Y003197D01*
X032786Y003169D01*
X032818Y003138D01*
X032847Y003104D01*
X032873Y003068D01*
X032895Y003030D01*
X032914Y002990D01*
X032929Y002948D01*
X032941Y002906D01*
X032949Y002862D01*
X032953Y002818D01*
X032953Y002774D01*
X032949Y002730D01*
X032941Y002686D01*
X032929Y002644D01*
X032914Y002602D01*
X032895Y002562D01*
X032873Y002524D01*
X032847Y002488D01*
X032818Y002454D01*
X032786Y002423D01*
X032752Y002395D01*
X032716Y002371D01*
X032677Y002349D01*
X032637Y002331D01*
X032595Y002317D01*
X032552Y002306D01*
X032508Y002299D01*
X032464Y002296D01*
X032420Y002297D01*
X032376Y002302D01*
X032333Y002311D01*
X032290Y002323D01*
X032249Y002340D01*
X032209Y002359D01*
X032172Y002383D01*
X032136Y002409D01*
X032103Y002439D01*
X032073Y002471D01*
X032046Y002506D01*
X032022Y002543D01*
X032001Y002582D01*
X031984Y002623D01*
X031971Y002665D01*
X031961Y002708D01*
X031955Y002752D01*
X031953Y002796D01*
X032153Y002796D02*
X032155Y002840D01*
X032161Y002884D01*
X032171Y002927D01*
X032184Y002969D01*
X032201Y003010D01*
X032222Y003049D01*
X032246Y003086D01*
X032273Y003121D01*
X032303Y003153D01*
X032336Y003183D01*
X032372Y003209D01*
X032409Y003233D01*
X032449Y003252D01*
X032490Y003269D01*
X032533Y003281D01*
X032576Y003290D01*
X032620Y003295D01*
X032664Y003296D01*
X032708Y003293D01*
X032752Y003286D01*
X032795Y003275D01*
X032837Y003261D01*
X032877Y003243D01*
X032916Y003221D01*
X032952Y003197D01*
X032986Y003169D01*
X033018Y003138D01*
X033047Y003104D01*
X033073Y003068D01*
X033095Y003030D01*
X033114Y002990D01*
X033129Y002948D01*
X033141Y002906D01*
X033149Y002862D01*
X033153Y002818D01*
X033153Y002774D01*
X033149Y002730D01*
X033141Y002686D01*
X033129Y002644D01*
X033114Y002602D01*
X033095Y002562D01*
X033073Y002524D01*
X033047Y002488D01*
X033018Y002454D01*
X032986Y002423D01*
X032952Y002395D01*
X032916Y002371D01*
X032877Y002349D01*
X032837Y002331D01*
X032795Y002317D01*
X032752Y002306D01*
X032708Y002299D01*
X032664Y002296D01*
X032620Y002297D01*
X032576Y002302D01*
X032533Y002311D01*
X032490Y002323D01*
X032449Y002340D01*
X032409Y002359D01*
X032372Y002383D01*
X032336Y002409D01*
X032303Y002439D01*
X032273Y002471D01*
X032246Y002506D01*
X032222Y002543D01*
X032201Y002582D01*
X032184Y002623D01*
X032171Y002665D01*
X032161Y002708D01*
X032155Y002752D01*
X032153Y002796D01*
X031953Y030512D02*
X031955Y030556D01*
X031961Y030600D01*
X031971Y030643D01*
X031984Y030685D01*
X032001Y030726D01*
X032022Y030765D01*
X032046Y030802D01*
X032073Y030837D01*
X032103Y030869D01*
X032136Y030899D01*
X032172Y030925D01*
X032209Y030949D01*
X032249Y030968D01*
X032290Y030985D01*
X032333Y030997D01*
X032376Y031006D01*
X032420Y031011D01*
X032464Y031012D01*
X032508Y031009D01*
X032552Y031002D01*
X032595Y030991D01*
X032637Y030977D01*
X032677Y030959D01*
X032716Y030937D01*
X032752Y030913D01*
X032786Y030885D01*
X032818Y030854D01*
X032847Y030820D01*
X032873Y030784D01*
X032895Y030746D01*
X032914Y030706D01*
X032929Y030664D01*
X032941Y030622D01*
X032949Y030578D01*
X032953Y030534D01*
X032953Y030490D01*
X032949Y030446D01*
X032941Y030402D01*
X032929Y030360D01*
X032914Y030318D01*
X032895Y030278D01*
X032873Y030240D01*
X032847Y030204D01*
X032818Y030170D01*
X032786Y030139D01*
X032752Y030111D01*
X032716Y030087D01*
X032677Y030065D01*
X032637Y030047D01*
X032595Y030033D01*
X032552Y030022D01*
X032508Y030015D01*
X032464Y030012D01*
X032420Y030013D01*
X032376Y030018D01*
X032333Y030027D01*
X032290Y030039D01*
X032249Y030056D01*
X032209Y030075D01*
X032172Y030099D01*
X032136Y030125D01*
X032103Y030155D01*
X032073Y030187D01*
X032046Y030222D01*
X032022Y030259D01*
X032001Y030298D01*
X031984Y030339D01*
X031971Y030381D01*
X031961Y030424D01*
X031955Y030468D01*
X031953Y030512D01*
X032153Y030512D02*
X032155Y030556D01*
X032161Y030600D01*
X032171Y030643D01*
X032184Y030685D01*
X032201Y030726D01*
X032222Y030765D01*
X032246Y030802D01*
X032273Y030837D01*
X032303Y030869D01*
X032336Y030899D01*
X032372Y030925D01*
X032409Y030949D01*
X032449Y030968D01*
X032490Y030985D01*
X032533Y030997D01*
X032576Y031006D01*
X032620Y031011D01*
X032664Y031012D01*
X032708Y031009D01*
X032752Y031002D01*
X032795Y030991D01*
X032837Y030977D01*
X032877Y030959D01*
X032916Y030937D01*
X032952Y030913D01*
X032986Y030885D01*
X033018Y030854D01*
X033047Y030820D01*
X033073Y030784D01*
X033095Y030746D01*
X033114Y030706D01*
X033129Y030664D01*
X033141Y030622D01*
X033149Y030578D01*
X033153Y030534D01*
X033153Y030490D01*
X033149Y030446D01*
X033141Y030402D01*
X033129Y030360D01*
X033114Y030318D01*
X033095Y030278D01*
X033073Y030240D01*
X033047Y030204D01*
X033018Y030170D01*
X032986Y030139D01*
X032952Y030111D01*
X032916Y030087D01*
X032877Y030065D01*
X032837Y030047D01*
X032795Y030033D01*
X032752Y030022D01*
X032708Y030015D01*
X032664Y030012D01*
X032620Y030013D01*
X032576Y030018D01*
X032533Y030027D01*
X032490Y030039D01*
X032449Y030056D01*
X032409Y030075D01*
X032372Y030099D01*
X032336Y030125D01*
X032303Y030155D01*
X032273Y030187D01*
X032246Y030222D01*
X032222Y030259D01*
X032201Y030298D01*
X032184Y030339D01*
X032171Y030381D01*
X032161Y030424D01*
X032155Y030468D01*
X032153Y030512D01*
D11*
X032453Y030512D03*
X032653Y030512D03*
X032653Y002796D03*
X032453Y002796D03*
X002474Y030512D03*
X002274Y030512D03*
X002196Y002796D03*
X002396Y002796D03*
D12*
X002532Y004331D03*
D13*
X001790Y001690D02*
X003790Y001690D01*
X003829Y001692D01*
X003868Y001698D01*
X003906Y001707D01*
X003943Y001720D01*
X003979Y001737D01*
X004012Y001757D01*
X004044Y001781D01*
X004073Y001807D01*
X004099Y001836D01*
X004123Y001868D01*
X004143Y001901D01*
X004160Y001937D01*
X004173Y001974D01*
X004182Y002012D01*
X004188Y002051D01*
X004190Y002090D01*
X004190Y004840D01*
X004192Y004885D01*
X004198Y004929D01*
X004207Y004972D01*
X004220Y005015D01*
X004237Y005056D01*
X004257Y005096D01*
X004280Y005134D01*
X004307Y005170D01*
X004336Y005203D01*
X004368Y005234D01*
X004403Y005262D01*
X004440Y005287D01*
X004479Y005309D01*
X004519Y005327D01*
X004561Y005342D01*
X004604Y005353D01*
X004648Y005361D01*
X004693Y005365D01*
X004737Y005365D01*
X004782Y005361D01*
X004826Y005353D01*
X004869Y005342D01*
X004911Y005327D01*
X004951Y005309D01*
X004990Y005287D01*
X005027Y005262D01*
X005062Y005234D01*
X005094Y005203D01*
X005123Y005170D01*
X005150Y005134D01*
X005173Y005096D01*
X005193Y005056D01*
X005210Y005015D01*
X005223Y004972D01*
X005232Y004929D01*
X005238Y004885D01*
X005240Y004840D01*
X005240Y003940D01*
X005242Y003867D01*
X005248Y003794D01*
X005257Y003721D01*
X005271Y003649D01*
X005288Y003578D01*
X005309Y003507D01*
X005333Y003438D01*
X005361Y003371D01*
X005393Y003304D01*
X005428Y003240D01*
X005466Y003178D01*
X005507Y003117D01*
X005552Y003059D01*
X005600Y003003D01*
X005650Y002950D01*
X005703Y002900D01*
X005759Y002852D01*
X005817Y002807D01*
X005878Y002766D01*
X005940Y002728D01*
X006004Y002693D01*
X006071Y002661D01*
X006138Y002633D01*
X006207Y002609D01*
X006278Y002588D01*
X006349Y002571D01*
X006421Y002557D01*
X006494Y002548D01*
X006567Y002542D01*
X006640Y002540D01*
X006713Y002542D01*
X006786Y002548D01*
X006859Y002557D01*
X006931Y002571D01*
X007002Y002588D01*
X007073Y002609D01*
X007142Y002633D01*
X007209Y002661D01*
X007276Y002693D01*
X007340Y002728D01*
X007402Y002766D01*
X007463Y002807D01*
X007521Y002852D01*
X007577Y002900D01*
X007630Y002950D01*
X007680Y003003D01*
X007728Y003059D01*
X007773Y003117D01*
X007814Y003178D01*
X007852Y003240D01*
X007887Y003304D01*
X007919Y003371D01*
X007947Y003438D01*
X007971Y003507D01*
X007992Y003578D01*
X008009Y003649D01*
X008023Y003721D01*
X008032Y003794D01*
X008038Y003867D01*
X008040Y003940D01*
X008040Y004840D01*
X008042Y004886D01*
X008047Y004932D01*
X008057Y004978D01*
X008070Y005022D01*
X008086Y005065D01*
X008106Y005107D01*
X008129Y005147D01*
X008155Y005185D01*
X008185Y005221D01*
X008217Y005255D01*
X008251Y005285D01*
X008288Y005313D01*
X008327Y005338D01*
X008369Y005359D01*
X008411Y005378D01*
X008455Y005392D01*
X008500Y005403D01*
X008546Y005411D01*
X008592Y005415D01*
X008638Y005415D01*
X008684Y005411D01*
X008730Y005403D01*
X008775Y005392D01*
X008819Y005378D01*
X008861Y005359D01*
X008903Y005338D01*
X008942Y005313D01*
X008979Y005285D01*
X009013Y005255D01*
X009045Y005221D01*
X009075Y005185D01*
X009101Y005147D01*
X009124Y005107D01*
X009144Y005065D01*
X009160Y005022D01*
X009173Y004978D01*
X009183Y004932D01*
X009188Y004886D01*
X009190Y004840D01*
X009190Y002090D01*
X009192Y002051D01*
X009198Y002012D01*
X009207Y001974D01*
X009220Y001937D01*
X009237Y001901D01*
X009257Y001868D01*
X009281Y001836D01*
X009307Y001807D01*
X009336Y001781D01*
X009368Y001757D01*
X009401Y001737D01*
X009437Y001720D01*
X009474Y001707D01*
X009512Y001698D01*
X009551Y001692D01*
X009590Y001690D01*
X017490Y001690D01*
X017529Y001688D01*
X017568Y001682D01*
X017606Y001673D01*
X017643Y001660D01*
X017679Y001643D01*
X017712Y001623D01*
X017744Y001599D01*
X017773Y001573D01*
X017799Y001544D01*
X017823Y001512D01*
X017843Y001479D01*
X017860Y001443D01*
X017873Y001406D01*
X017882Y001368D01*
X017888Y001329D01*
X017890Y001290D01*
X017889Y001251D01*
X017892Y001211D01*
X017899Y001173D01*
X017909Y001135D01*
X017923Y001098D01*
X017940Y001062D01*
X017961Y001029D01*
X017984Y000997D01*
X018010Y000968D01*
X018039Y000941D01*
X018070Y000917D01*
X018103Y000895D01*
X018138Y000877D01*
X018175Y000863D01*
X018212Y000852D01*
X018251Y000844D01*
X018290Y000840D01*
X022490Y000840D01*
X022529Y000844D01*
X022568Y000852D01*
X022605Y000863D01*
X022642Y000877D01*
X022677Y000895D01*
X022710Y000917D01*
X022741Y000941D01*
X022770Y000968D01*
X022796Y000997D01*
X022819Y001029D01*
X022840Y001062D01*
X022857Y001098D01*
X022871Y001135D01*
X022881Y001173D01*
X022888Y001211D01*
X022891Y001251D01*
X022890Y001290D01*
X022892Y001329D01*
X022898Y001368D01*
X022907Y001406D01*
X022920Y001443D01*
X022937Y001479D01*
X022957Y001512D01*
X022981Y001544D01*
X023007Y001573D01*
X023036Y001599D01*
X023068Y001623D01*
X023101Y001643D01*
X023137Y001660D01*
X023174Y001673D01*
X023212Y001682D01*
X023251Y001688D01*
X023290Y001690D01*
X023590Y001690D01*
X023629Y001692D01*
X023668Y001698D01*
X023706Y001707D01*
X023743Y001720D01*
X023779Y001737D01*
X023812Y001757D01*
X023844Y001781D01*
X023873Y001807D01*
X023899Y001836D01*
X023923Y001868D01*
X023943Y001901D01*
X023960Y001937D01*
X023973Y001974D01*
X023982Y002012D01*
X023988Y002051D01*
X023990Y002090D01*
X023990Y002190D01*
X023992Y002229D01*
X023998Y002268D01*
X024007Y002306D01*
X024020Y002343D01*
X024037Y002379D01*
X024057Y002412D01*
X024081Y002444D01*
X024107Y002473D01*
X024136Y002499D01*
X024168Y002523D01*
X024201Y002543D01*
X024237Y002560D01*
X024274Y002573D01*
X024312Y002582D01*
X024351Y002588D01*
X024390Y002590D01*
X028990Y002590D01*
X029029Y002588D01*
X029068Y002582D01*
X029106Y002573D01*
X029143Y002560D01*
X029179Y002543D01*
X029212Y002523D01*
X029244Y002499D01*
X029273Y002473D01*
X029299Y002444D01*
X029323Y002412D01*
X029343Y002379D01*
X029360Y002343D01*
X029373Y002306D01*
X029382Y002268D01*
X029388Y002229D01*
X029390Y002190D01*
X029390Y002090D01*
X029392Y002051D01*
X029398Y002012D01*
X029407Y001974D01*
X029420Y001937D01*
X029437Y001901D01*
X029457Y001868D01*
X029481Y001836D01*
X029507Y001807D01*
X029536Y001781D01*
X029568Y001757D01*
X029601Y001737D01*
X029637Y001720D01*
X029674Y001707D01*
X029712Y001698D01*
X029751Y001692D01*
X029790Y001690D01*
X033090Y001690D01*
X033129Y001692D01*
X033168Y001698D01*
X033206Y001707D01*
X033243Y001720D01*
X033279Y001737D01*
X033312Y001757D01*
X033344Y001781D01*
X033373Y001807D01*
X033399Y001836D01*
X033423Y001868D01*
X033443Y001901D01*
X033460Y001937D01*
X033473Y001974D01*
X033482Y002012D01*
X033488Y002051D01*
X033490Y002090D01*
X033490Y032140D01*
X033488Y032179D01*
X033482Y032218D01*
X033473Y032256D01*
X033460Y032293D01*
X033443Y032329D01*
X033423Y032362D01*
X033399Y032394D01*
X033373Y032423D01*
X033344Y032449D01*
X033312Y032473D01*
X033279Y032493D01*
X033243Y032510D01*
X033206Y032523D01*
X033168Y032532D01*
X033129Y032538D01*
X033090Y032540D01*
X031440Y032540D01*
X031401Y032538D01*
X031362Y032532D01*
X031324Y032523D01*
X031287Y032510D01*
X031251Y032493D01*
X031218Y032473D01*
X031186Y032449D01*
X031157Y032423D01*
X031131Y032394D01*
X031107Y032362D01*
X031087Y032329D01*
X031070Y032293D01*
X031057Y032256D01*
X031048Y032218D01*
X031042Y032179D01*
X031040Y032140D01*
X031040Y030390D01*
X031038Y030351D01*
X031032Y030312D01*
X031023Y030274D01*
X031010Y030237D01*
X030993Y030201D01*
X030973Y030168D01*
X030949Y030136D01*
X030923Y030107D01*
X030894Y030081D01*
X030862Y030057D01*
X030829Y030037D01*
X030793Y030020D01*
X030756Y030007D01*
X030718Y029998D01*
X030679Y029992D01*
X030640Y029990D01*
X022940Y029990D01*
X022901Y029992D01*
X022862Y029998D01*
X022824Y030007D01*
X022787Y030020D01*
X022751Y030037D01*
X022718Y030057D01*
X022686Y030081D01*
X022657Y030107D01*
X022631Y030136D01*
X022607Y030168D01*
X022587Y030201D01*
X022570Y030237D01*
X022557Y030274D01*
X022548Y030312D01*
X022542Y030351D01*
X022540Y030390D01*
X022540Y032140D01*
X022538Y032179D01*
X022532Y032218D01*
X022523Y032256D01*
X022510Y032293D01*
X022493Y032329D01*
X022473Y032362D01*
X022449Y032394D01*
X022423Y032423D01*
X022394Y032449D01*
X022362Y032473D01*
X022329Y032493D01*
X022293Y032510D01*
X022256Y032523D01*
X022218Y032532D01*
X022179Y032538D01*
X022140Y032540D01*
X001790Y032540D01*
X001751Y032538D01*
X001712Y032532D01*
X001674Y032523D01*
X001637Y032510D01*
X001601Y032493D01*
X001568Y032473D01*
X001536Y032449D01*
X001507Y032423D01*
X001481Y032394D01*
X001457Y032362D01*
X001437Y032329D01*
X001420Y032293D01*
X001407Y032256D01*
X001398Y032218D01*
X001392Y032179D01*
X001390Y032140D01*
X001390Y002090D01*
X001392Y002051D01*
X001398Y002012D01*
X001407Y001974D01*
X001420Y001937D01*
X001437Y001901D01*
X001457Y001868D01*
X001481Y001836D01*
X001507Y001807D01*
X001536Y001781D01*
X001568Y001757D01*
X001601Y001737D01*
X001637Y001720D01*
X001674Y001707D01*
X001712Y001698D01*
X001751Y001692D01*
X001790Y001690D01*
D14*
X023547Y023091D03*
X023547Y023591D03*
X023547Y024091D03*
X023547Y024591D03*
X023547Y025091D03*
X023547Y025591D03*
X023547Y026091D03*
X023547Y026591D03*
X023547Y027091D03*
X023547Y027591D03*
X023547Y028091D03*
X023547Y028591D03*
X023547Y029091D03*
X023547Y029591D03*
X030033Y029591D03*
X030033Y029091D03*
X030033Y028591D03*
X030033Y028091D03*
X030033Y027591D03*
X030033Y027091D03*
X030033Y026591D03*
X030033Y026091D03*
X030033Y025591D03*
X030033Y025091D03*
X030033Y024591D03*
X030033Y024091D03*
X030033Y023591D03*
X030033Y023091D03*
D15*
X029040Y022505D03*
X028540Y022505D03*
X028040Y022505D03*
X027540Y022505D03*
X027040Y022505D03*
X026540Y022505D03*
X026040Y022505D03*
X025540Y022505D03*
X025040Y022505D03*
X024540Y022505D03*
D16*
X026790Y026560D03*
D17*
X025247Y013782D02*
X025247Y013506D01*
X025247Y013782D02*
X025523Y013782D01*
X025523Y013506D01*
X025247Y013506D01*
X025247Y013623D02*
X025523Y013623D01*
X025523Y013740D02*
X025247Y013740D01*
X024557Y013782D02*
X024557Y013506D01*
X024557Y013782D02*
X024833Y013782D01*
X024833Y013506D01*
X024557Y013506D01*
X024557Y013623D02*
X024833Y013623D01*
X024833Y013740D02*
X024557Y013740D01*
X024557Y010483D02*
X024557Y010207D01*
X024557Y010483D02*
X024833Y010483D01*
X024833Y010207D01*
X024557Y010207D01*
X024557Y010324D02*
X024833Y010324D01*
X024833Y010441D02*
X024557Y010441D01*
X025247Y010483D02*
X025247Y010207D01*
X025247Y010483D02*
X025523Y010483D01*
X025523Y010207D01*
X025247Y010207D01*
X025247Y010324D02*
X025523Y010324D01*
X025523Y010441D02*
X025247Y010441D01*
X025247Y007389D02*
X025247Y007113D01*
X025247Y007389D02*
X025523Y007389D01*
X025523Y007113D01*
X025247Y007113D01*
X025247Y007230D02*
X025523Y007230D01*
X025523Y007347D02*
X025247Y007347D01*
X024557Y007389D02*
X024557Y007113D01*
X024557Y007389D02*
X024833Y007389D01*
X024833Y007113D01*
X024557Y007113D01*
X024557Y007230D02*
X024833Y007230D01*
X024833Y007347D02*
X024557Y007347D01*
X024557Y004346D02*
X024557Y004070D01*
X024557Y004346D02*
X024833Y004346D01*
X024833Y004070D01*
X024557Y004070D01*
X024557Y004187D02*
X024833Y004187D01*
X024833Y004304D02*
X024557Y004304D01*
X025247Y004346D02*
X025247Y004070D01*
X025247Y004346D02*
X025523Y004346D01*
X025523Y004070D01*
X025247Y004070D01*
X025247Y004187D02*
X025523Y004187D01*
X025523Y004304D02*
X025247Y004304D01*
D18*
X025564Y005094D03*
X025564Y006366D03*
X025564Y008137D03*
X025564Y009459D03*
X025564Y011231D03*
X025564Y012759D03*
X025564Y014530D03*
X028694Y014530D03*
X028694Y012759D03*
X028694Y011231D03*
X028694Y009459D03*
X028694Y008137D03*
X028694Y006366D03*
X028694Y005094D03*
X028694Y003322D03*
X025564Y003322D03*
D19*
X023444Y020592D03*
X023444Y021092D03*
X023444Y021592D03*
X023444Y022092D03*
X023444Y022592D03*
X023444Y023092D03*
X023444Y023592D03*
X023444Y024092D03*
X023444Y024592D03*
X023444Y025092D03*
X023444Y025592D03*
X023444Y026092D03*
X023444Y026592D03*
X023444Y027092D03*
X023444Y027592D03*
X023444Y028092D03*
X023444Y028592D03*
X023444Y029092D03*
X023444Y029592D03*
X030136Y029592D03*
X030136Y029092D03*
X030136Y028592D03*
X030136Y028092D03*
X030136Y027592D03*
X030136Y027092D03*
X030136Y026592D03*
X030136Y026092D03*
X030136Y025592D03*
X030136Y025092D03*
X030136Y024592D03*
X030136Y024092D03*
X030136Y023592D03*
X030136Y023092D03*
X030136Y022592D03*
X030136Y022092D03*
X030136Y021592D03*
X030136Y021092D03*
X030136Y020592D03*
D20*
X026396Y026639D03*
D21*
X020854Y007057D02*
X020854Y006797D01*
X020854Y007057D02*
X020910Y007057D01*
X020910Y006797D01*
X020854Y006797D01*
X020854Y006851D02*
X020910Y006851D01*
X020910Y006905D02*
X020854Y006905D01*
X020854Y006959D02*
X020910Y006959D01*
X020910Y007013D02*
X020854Y007013D01*
X020657Y007057D02*
X020657Y006797D01*
X020657Y007057D02*
X020713Y007057D01*
X020713Y006797D01*
X020657Y006797D01*
X020657Y006851D02*
X020713Y006851D01*
X020713Y006905D02*
X020657Y006905D01*
X020657Y006959D02*
X020713Y006959D01*
X020713Y007013D02*
X020657Y007013D01*
X020460Y007057D02*
X020460Y006797D01*
X020460Y007057D02*
X020516Y007057D01*
X020516Y006797D01*
X020460Y006797D01*
X020460Y006851D02*
X020516Y006851D01*
X020516Y006905D02*
X020460Y006905D01*
X020460Y006959D02*
X020516Y006959D01*
X020516Y007013D02*
X020460Y007013D01*
X020264Y007057D02*
X020264Y006797D01*
X020264Y007057D02*
X020320Y007057D01*
X020320Y006797D01*
X020264Y006797D01*
X020264Y006851D02*
X020320Y006851D01*
X020320Y006905D02*
X020264Y006905D01*
X020264Y006959D02*
X020320Y006959D01*
X020320Y007013D02*
X020264Y007013D01*
X020067Y007057D02*
X020067Y006797D01*
X020067Y007057D02*
X020123Y007057D01*
X020123Y006797D01*
X020067Y006797D01*
X020067Y006851D02*
X020123Y006851D01*
X020123Y006905D02*
X020067Y006905D01*
X020067Y006959D02*
X020123Y006959D01*
X020123Y007013D02*
X020067Y007013D01*
X019870Y007057D02*
X019870Y006797D01*
X019870Y007057D02*
X019926Y007057D01*
X019926Y006797D01*
X019870Y006797D01*
X019870Y006851D02*
X019926Y006851D01*
X019926Y006905D02*
X019870Y006905D01*
X019870Y006959D02*
X019926Y006959D01*
X019926Y007013D02*
X019870Y007013D01*
X019733Y006660D02*
X019473Y006660D01*
X019733Y006660D02*
X019733Y006604D01*
X019473Y006604D01*
X019473Y006660D01*
X019473Y006658D02*
X019733Y006658D01*
X019733Y006463D02*
X019473Y006463D01*
X019733Y006463D02*
X019733Y006407D01*
X019473Y006407D01*
X019473Y006463D01*
X019473Y006461D02*
X019733Y006461D01*
X019733Y006266D02*
X019473Y006266D01*
X019733Y006266D02*
X019733Y006210D01*
X019473Y006210D01*
X019473Y006266D01*
X019473Y006264D02*
X019733Y006264D01*
X019733Y006070D02*
X019473Y006070D01*
X019733Y006070D02*
X019733Y006014D01*
X019473Y006014D01*
X019473Y006070D01*
X019473Y006068D02*
X019733Y006068D01*
X019733Y005873D02*
X019473Y005873D01*
X019733Y005873D02*
X019733Y005817D01*
X019473Y005817D01*
X019473Y005873D01*
X019473Y005871D02*
X019733Y005871D01*
X019733Y005676D02*
X019473Y005676D01*
X019733Y005676D02*
X019733Y005620D01*
X019473Y005620D01*
X019473Y005676D01*
X019473Y005674D02*
X019733Y005674D01*
X019926Y005483D02*
X019926Y005223D01*
X019870Y005223D01*
X019870Y005483D01*
X019926Y005483D01*
X019926Y005277D02*
X019870Y005277D01*
X019870Y005331D02*
X019926Y005331D01*
X019926Y005385D02*
X019870Y005385D01*
X019870Y005439D02*
X019926Y005439D01*
X020123Y005483D02*
X020123Y005223D01*
X020067Y005223D01*
X020067Y005483D01*
X020123Y005483D01*
X020123Y005277D02*
X020067Y005277D01*
X020067Y005331D02*
X020123Y005331D01*
X020123Y005385D02*
X020067Y005385D01*
X020067Y005439D02*
X020123Y005439D01*
X020320Y005483D02*
X020320Y005223D01*
X020264Y005223D01*
X020264Y005483D01*
X020320Y005483D01*
X020320Y005277D02*
X020264Y005277D01*
X020264Y005331D02*
X020320Y005331D01*
X020320Y005385D02*
X020264Y005385D01*
X020264Y005439D02*
X020320Y005439D01*
X020516Y005483D02*
X020516Y005223D01*
X020460Y005223D01*
X020460Y005483D01*
X020516Y005483D01*
X020516Y005277D02*
X020460Y005277D01*
X020460Y005331D02*
X020516Y005331D01*
X020516Y005385D02*
X020460Y005385D01*
X020460Y005439D02*
X020516Y005439D01*
X020713Y005483D02*
X020713Y005223D01*
X020657Y005223D01*
X020657Y005483D01*
X020713Y005483D01*
X020713Y005277D02*
X020657Y005277D01*
X020657Y005331D02*
X020713Y005331D01*
X020713Y005385D02*
X020657Y005385D01*
X020657Y005439D02*
X020713Y005439D01*
X020910Y005483D02*
X020910Y005223D01*
X020854Y005223D01*
X020854Y005483D01*
X020910Y005483D01*
X020910Y005277D02*
X020854Y005277D01*
X020854Y005331D02*
X020910Y005331D01*
X020910Y005385D02*
X020854Y005385D01*
X020854Y005439D02*
X020910Y005439D01*
X021047Y005620D02*
X021307Y005620D01*
X021047Y005620D02*
X021047Y005676D01*
X021307Y005676D01*
X021307Y005620D01*
X021307Y005674D02*
X021047Y005674D01*
X021047Y005817D02*
X021307Y005817D01*
X021047Y005817D02*
X021047Y005873D01*
X021307Y005873D01*
X021307Y005817D01*
X021307Y005871D02*
X021047Y005871D01*
X021047Y006014D02*
X021307Y006014D01*
X021047Y006014D02*
X021047Y006070D01*
X021307Y006070D01*
X021307Y006014D01*
X021307Y006068D02*
X021047Y006068D01*
X021047Y006210D02*
X021307Y006210D01*
X021047Y006210D02*
X021047Y006266D01*
X021307Y006266D01*
X021307Y006210D01*
X021307Y006264D02*
X021047Y006264D01*
X021047Y006407D02*
X021307Y006407D01*
X021047Y006407D02*
X021047Y006463D01*
X021307Y006463D01*
X021307Y006407D01*
X021307Y006461D02*
X021047Y006461D01*
X021047Y006604D02*
X021307Y006604D01*
X021047Y006604D02*
X021047Y006660D01*
X021307Y006660D01*
X021307Y006604D01*
X021307Y006658D02*
X021047Y006658D01*
D22*
X020390Y006140D03*
D23*
X018090Y006403D03*
X018090Y005577D03*
D24*
X030366Y018046D03*
X031114Y018046D03*
X031866Y018046D03*
X032614Y018046D03*
X032240Y018873D03*
X030740Y018873D03*
D25*
X031135Y016940D03*
X031845Y016940D03*
X031845Y016140D03*
X031135Y016140D03*
X031835Y023840D03*
X032545Y023840D03*
X032545Y025390D03*
X031835Y025390D03*
X031835Y027090D03*
X032545Y027090D03*
X020095Y011690D03*
X019385Y011690D03*
X006995Y004840D03*
X006285Y004840D03*
D26*
X005390Y016579D03*
X004890Y016579D03*
X004390Y016579D03*
X003890Y016579D03*
X003390Y016579D03*
X002890Y016579D03*
X002390Y016579D03*
X001890Y016579D03*
X001890Y020201D03*
X002390Y020201D03*
X002890Y020201D03*
X003390Y020201D03*
X003890Y020201D03*
X004390Y020201D03*
X004890Y020201D03*
X005390Y020201D03*
D27*
X004918Y014640D03*
X003462Y014640D03*
D28*
X002640Y014585D03*
X002640Y015295D03*
X002240Y023985D03*
X002240Y024695D03*
X003390Y024695D03*
X003390Y023985D03*
D29*
X005740Y015170D03*
X005740Y014710D03*
X025840Y015456D03*
X025840Y015916D03*
D30*
X017840Y018440D03*
X009769Y018440D03*
D31*
X015240Y008590D02*
X015240Y007990D01*
X016240Y007990D02*
X016240Y008590D01*
X017240Y008590D02*
X017240Y007990D01*
X018240Y007990D02*
X018240Y008590D01*
X019240Y008590D02*
X019240Y007990D01*
D32*
X023933Y017990D03*
X025647Y017990D03*
X027933Y017990D03*
X029647Y017990D03*
D33*
X007231Y003984D03*
X007231Y003590D03*
X007231Y003196D03*
X006049Y003196D03*
X006049Y003590D03*
X006049Y003984D03*
D34*
X006640Y003590D03*
D35*
X006945Y003588D02*
X006315Y003588D01*
X006315Y003636D02*
X006945Y003636D01*
X006945Y003685D02*
X006315Y003685D01*
X006315Y003733D02*
X006945Y003733D01*
X006945Y003782D02*
X006315Y003782D01*
X006315Y003830D02*
X006945Y003830D01*
X006945Y003879D02*
X006315Y003879D01*
X006315Y003925D02*
X006315Y003068D01*
X006945Y003068D01*
X006945Y004102D01*
X006492Y004102D01*
X006315Y003925D01*
X006318Y003927D02*
X006945Y003927D01*
X006945Y003976D02*
X006366Y003976D01*
X006415Y004024D02*
X006945Y004024D01*
X006945Y004073D02*
X006463Y004073D01*
X006315Y003539D02*
X006945Y003539D01*
X006945Y003491D02*
X006315Y003491D01*
X006315Y003442D02*
X006945Y003442D01*
X006945Y003394D02*
X006315Y003394D01*
X006315Y003345D02*
X006945Y003345D01*
X006945Y003297D02*
X006315Y003297D01*
X006315Y003248D02*
X006945Y003248D01*
X006945Y003200D02*
X006315Y003200D01*
X006315Y003151D02*
X006945Y003151D01*
X006945Y003103D02*
X006315Y003103D01*
D36*
X022294Y009868D03*
X022294Y010183D03*
X022294Y010497D03*
X022294Y010812D03*
X022786Y010812D03*
X022786Y010497D03*
X022786Y010183D03*
X022786Y009868D03*
D37*
X026657Y015444D03*
X026972Y015444D03*
X027287Y015444D03*
X027602Y015444D03*
X027602Y015936D03*
X027287Y015936D03*
X026972Y015936D03*
X026657Y015936D03*
D38*
X018997Y016535D03*
X007186Y016535D03*
X007186Y028346D03*
X018997Y028346D03*
D39*
X016592Y030337D02*
X016592Y031037D01*
X016592Y031237D02*
X016592Y030537D01*
X015592Y030537D02*
X015592Y031237D01*
X015592Y031037D02*
X015592Y030337D01*
X014592Y030337D02*
X014592Y031037D01*
X014592Y031237D02*
X014592Y030537D01*
X013592Y030537D02*
X013592Y031237D01*
X013592Y031037D02*
X013592Y030337D01*
X012592Y030337D02*
X012592Y031037D01*
X012592Y031237D02*
X012592Y030537D01*
X011592Y030537D02*
X011592Y031237D01*
X011592Y031037D02*
X011592Y030337D01*
X010592Y030337D02*
X010592Y031037D01*
X010592Y031237D02*
X010592Y030537D01*
X009592Y030537D02*
X009592Y031237D01*
X009592Y031037D02*
X009592Y030337D01*
D40*
X016890Y012170D03*
X017390Y012170D03*
X017890Y012170D03*
X018390Y012170D03*
X018390Y010110D03*
X017890Y010110D03*
X017390Y010110D03*
X016890Y010110D03*
D41*
X005264Y023907D03*
X004516Y023907D03*
X004890Y024773D03*
D42*
X004720Y027140D03*
X002560Y027140D03*
D43*
X019410Y012640D03*
X020070Y012640D03*
D44*
X014390Y011441D03*
X014390Y010339D03*
X009890Y010339D03*
X009890Y011441D03*
D45*
X012090Y005290D03*
X012090Y004290D03*
X013090Y004290D03*
X013090Y005290D03*
X014090Y005290D03*
X014090Y004290D03*
X019890Y002540D03*
X019890Y001540D03*
X020890Y001540D03*
X020890Y002540D03*
D46*
X012680Y010660D03*
X012090Y010660D03*
X011500Y010660D03*
D47*
X012340Y011590D02*
X012340Y012290D01*
X012340Y011590D02*
X011840Y011590D01*
X011840Y012290D01*
X012340Y012290D01*
X012340Y012089D02*
X011840Y012089D01*
M02*
