%
M48
M72
T01C0.0120
T02C0.0140
T03C0.0150
T04C0.0160
T05C0.0180
T06C0.0200
T07C0.0220
T08C0.0236
T09C0.0360
T10C0.0400
T11C0.0450
T12C0.0600
T13C0.0787
T14C0.1000
%
T01
X18640Y3940
X18990Y3940
X19240Y2040
X18990Y5940
X18640Y6090
X21440Y7215
X21840Y7240
X21990Y6940
X22090Y7590
X23690Y5540
X24490Y5540
X26440Y13940
X26940Y14040
X27240Y14390
X27940Y15040
X31340Y17490
X32540Y17190
X30740Y19340
X27140Y24190
X27390Y24540
X26690Y25140
X26440Y24790
X31040Y27640
X31040Y28090
X31840Y27440
X3240Y25640
T02
X1690Y21290
X1990Y20940
X1690Y13440
X2040Y13040
X6290Y4840
X5690Y3590
X14890Y14290
X15240Y14290
X15640Y14290
X16040Y14290
X16440Y14290
X18940Y12640
X18940Y11690
X17890Y10340
X17390Y10340
X21590Y10490
X21590Y14290
X22740Y21990
X21590Y22290
X22740Y23590
X22740Y24090
X22740Y24590
X22740Y25090
X22740Y25590
X22740Y26090
X21340Y27340
X20640Y26840
X20990Y28590
X18440Y30940
X18690Y31290
X18940Y31640
X16440Y26440
X17040Y26090
X16740Y25090
X17340Y24590
X15740Y23590
X16040Y22840
X15240Y22290
X14890Y21990
X14990Y23140
X14592Y24092
X13590Y25590
X11592Y23588
X12590Y22290
X24340Y23090
X24340Y23440
X24340Y23790
X24340Y24140
X24540Y28240
X28890Y28590
X29790Y28990
X28940Y27340
X28940Y26840
X29240Y26090
T03
X31040Y24690
X31040Y23990
X30040Y16890
X26040Y16890
T04
X24690Y19440
X24340Y19440
X23990Y19440
X23640Y19440
X23290Y19440
X22940Y19440
X19990Y20290
X19640Y20290
X19290Y20290
X18940Y20290
X18590Y20290
X18240Y20290
X23290Y16290
X23290Y15940
X23290Y15590
X23290Y15240
X23290Y14890
X23290Y14540
X27740Y19440
X28090Y19440
X28440Y19440
X28790Y19440
X29140Y19440
X31840Y20440
X31840Y20790
X31840Y21140
X31840Y21490
X31840Y21840
X31840Y22190
X28390Y24240
X28390Y24590
X28390Y24940
X28390Y25290
X28390Y25640
X28390Y25990
X27040Y25840
X26840Y25540
X26640Y25840
X26440Y25540
X26240Y25840
X26440Y26140
X26840Y26140
X21940Y31940
X21590Y31940
X21240Y31940
X20890Y31940
X20540Y31940
X20190Y31940
X19240Y29690
X18890Y29690
X18540Y29690
X18190Y29690
X17840Y29690
X17490Y29690
X17340Y27790
X16990Y27790
X16640Y27790
X16290Y27790
X15940Y27790
X17690Y27790
X6840Y26740
X6840Y26390
X6840Y26040
X6840Y25690
X6840Y25340
X6840Y24990
X4790Y18140
X4440Y18140
X4090Y18140
X3740Y18140
X3390Y18140
X3040Y18140
X6790Y10890
X6790Y10540
X6790Y10190
X6790Y9840
X6790Y9490
X6790Y9140
X3690Y5840
X3690Y5490
X3690Y5140
X3690Y4790
X3690Y4440
X3690Y4090
X10590Y10490
X10590Y10790
X10890Y10790
X10890Y10490
X11190Y10490
X11190Y10790
X16740Y6790
X16740Y6440
X16740Y6090
X16740Y5740
X16740Y5390
X16740Y5040
X16640Y2790
X16290Y2790
X15940Y2790
X16990Y2790
X17340Y2790
X17690Y2790
X19440Y3990
X19440Y4340
X19440Y4690
X19440Y5040
X21390Y4540
X21740Y4540
X22090Y4540
X22440Y4540
X22790Y4540
X23140Y4540
X26290Y4490
X26290Y4140
X26290Y4840
X26290Y5190
X26290Y5540
X28690Y5690
X28690Y7090
X28690Y7440
X28690Y8790
X28690Y10090
X28690Y11840
X28690Y12140
X26490Y9690
X26490Y9340
X26490Y8990
X26490Y8640
X26490Y8290
X26490Y7940
X22740Y8840
X22390Y8840
X22040Y8840
X21690Y8840
X21340Y8840
X20990Y8840
X29440Y15190
X29790Y15190
X30140Y15190
X30490Y15190
X30840Y15190
X31190Y15190
X31140Y9640
X31140Y9290
X31140Y8940
X31140Y8590
X31140Y8240
X31140Y7890
X31290Y2340
X30940Y2340
X30590Y2340
X30240Y2340
X29890Y2340
X31640Y2340
X4190Y31690
X3840Y31690
X3490Y31690
X3140Y31690
X2790Y31690
X2440Y31690
T05
X29490Y23090
T06
X2390Y17290
T07
X18190Y5090
T08
X12690Y12440
X12090Y12190
X11440Y12440
X10890Y12740
X10340Y13090
X9990Y13690
X10090Y14290
X10390Y14890
X10990Y15040
X11490Y14740
X12090Y14490
X12690Y14740
X13190Y15040
X13740Y14890
X14090Y14290
X14190Y13690
X13840Y13090
X13290Y12740
T09
X12690Y9940
X11140Y9940
X4720Y27140
X2560Y27140
X27940Y29490
X31340Y29490
X29390Y3340
T10
X20890Y2540
X20890Y1540
X19890Y1540
X19890Y2540
X19240Y8290
X18240Y8290
X17240Y8290
X16240Y8290
X15240Y8290
X14090Y5290
X14090Y4290
X13090Y4290
X13090Y5290
X12090Y5290
X12090Y4290
X11592Y30687
X11592Y30887
X12592Y30887
X12592Y30687
X13592Y30687
X13592Y30887
X14592Y30887
X14592Y30687
X15592Y30687
X15592Y30887
X16592Y30887
X16592Y30687
X10592Y30687
X10592Y30887
X9592Y30887
X9592Y30687
T11
X9769Y18440
X17840Y18440
T12
X2532Y4331
T13
X7186Y16535
X18997Y16535
X18997Y28346
X7186Y28346
T14
X2196Y2796
X2396Y2796
X2474Y30512
X2274Y30512
X32453Y30512
X32653Y30512
X32653Y2796
X32453Y2796
M30
